<?xml version="1.0" encoding="UTF-8"?>
<svg width="95px" height="81px" viewBox="0 0 95 81" version="1.1" xmlns="http://www.w3.org/2000/svg" xmlns:xlink="http://www.w3.org/1999/xlink">
    <!-- Generator: Sketch 51.3 (57544) - http://www.bohemiancoding.com/sketch -->
    <title>Group 24</title>
    <desc>Created with Sketch.</desc>
    <defs></defs>
    <g id="Page-1" stroke="none" stroke-width="1" fill="none" fill-rule="evenodd">
        <g id="scrum" transform="translate(-153.000000, -558.000000)">
            <g id="stickers">
                <g id="Bitmap">
                    <g id="Group-16" transform="translate(128.000000, -3.000000)">
                        <g id="Group-21" transform="translate(0.000000, 317.000000)">
                            <g id="Group-19" transform="translate(0.000000, 245.000000)">
                                <g id="Group-24" transform="translate(26.000000, 0.000000)">
                                    <g id="Group-23">
                                        <g id="Group-22" transform="translate(0.000000, 19.148936)">
                                            <g id="offer">
                                                <path d="M55.7982995,27.9255319 C55.7982995,29.3625332 53.8374542,30.6287234 53.6213521,32.0049867 C53.3995538,33.4177859 54.8714665,35.2260805 54.4397271,36.5571975 C54.0003155,37.9118185 51.7439718,38.5087267 51.105895,39.7599069 C50.4610759,41.0242354 51.2997941,43.2018451 50.4714218,44.3412068 C49.6390972,45.4859209 47.3095182,45.3567653 46.3116586,46.3555685 C45.313799,47.3543717 45.4428326,49.6861536 44.2991999,50.5192653 C43.1609146,51.3484209 40.9853622,50.5089096 39.7222282,51.1543384 C38.47223,51.793135 37.8758857,54.051496 36.5225444,54.4913231 C35.1928012,54.9234707 33.3860988,53.4501662 31.9746343,53.6721742 C30.5997874,53.8883644 29.3347935,55.8510638 27.8991497,55.8510638 C26.463506,55.8510638 25.198512,53.8883644 23.8235489,53.6720578 C22.4120845,53.4500499 20.6054983,54.9233544 19.2756388,54.4912068 C17.9222975,54.0513797 17.3259532,51.7929023 16.0759551,51.1542221 C14.8128211,50.5087932 12.6372686,51.3483045 11.4989833,50.5191489 C10.3553507,49.6860372 10.4843842,47.3542553 9.48652464,46.3554521 C8.48866505,45.3566489 6.15908604,45.4858045 5.32676141,44.3410904 C4.49838916,43.2017287 5.33710735,41.024119 4.69228825,39.7597906 C4.0540952,38.5086104 1.79786771,37.9117021 1.3584561,36.5570811 C0.926716757,35.2260805 2.3986294,33.4176695 2.17683116,32.0048703 C1.96084524,30.6287234 0,29.3625332 0,27.9255319 C0,26.4885306 1.96084524,25.2223404 2.1769474,23.8460771 C2.39874565,22.4332779 0.926833004,20.6249834 1.35857235,19.2938664 C1.79798395,17.9392453 4.05432769,17.3423371 4.69240449,16.0911569 C5.33722359,14.8268285 4.4985054,12.6492188 5.32687766,11.509857 C6.15920229,10.365143 8.48878129,10.4942985 9.48664088,9.49549535 C10.4845005,8.49669215 10.3554669,6.16491024 11.4990996,5.33179854 C12.6373849,4.50264295 14.8129373,5.34215426 16.0760713,4.6967254 C17.3260695,4.05792886 17.9224138,1.79956782 19.275755,1.35974069 C20.6054983,0.927593085 22.4122007,2.40089761 23.8236652,2.17888963 C25.198512,1.96269947 26.463506,0 27.8991497,0 C29.3347935,0 30.5997874,1.96269947 31.9747505,2.17900598 C33.386215,2.40101396 35.1928012,0.927709441 36.5226607,1.35985705 C37.8760019,1.79968418 38.4723463,4.05816157 39.7223444,4.69684176 C40.9854784,5.34227061 43.1610309,4.50275931 44.2993162,5.33191489 C45.4429488,6.1650266 45.3139153,8.49680851 46.3117748,9.4956117 C47.3096344,10.4944149 49.6392134,10.3652593 50.4715381,11.5099734 C51.2999103,12.6493351 50.4611921,14.8269448 51.1060112,16.0912733 C51.7442043,17.3424535 54.0004318,17.9393617 54.4398434,19.2939827 C54.8715827,20.6249834 53.3996701,22.4333943 53.6214683,23.8461935 C53.8374542,25.2223404 55.7982995,26.4885306 55.7982995,27.9255319 Z" id="Shape" stroke="#000000" stroke-width="0.79787234" fill="#FDC730" fill-rule="nonzero"></path>
                                                <ellipse id="Oval" stroke="#000000" stroke-width="0.79787234" fill="#F9F6F6" fill-rule="nonzero" cx="28.3193198" cy="28.3404255" rx="22.3193198" ry="22.3404255"></ellipse>
                                                <path d="M17.5,32.29 C16.9999975,32.29 16.5616685,32.1866677 16.185,31.98 C15.8083314,31.7733323 15.5166677,31.4766686 15.31,31.09 C15.1033323,30.7033314 15,30.2533359 15,29.74 C15,29.2266641 15.1033323,28.7783352 15.31,28.395 C15.5166677,28.0116648 15.8083314,27.7166677 16.185,27.51 C16.5616685,27.3033323 16.9999975,27.2 17.5,27.2 C18.0000025,27.2 18.4383314,27.3033323 18.815,27.51 C19.1916685,27.7166677 19.4816656,28.0116648 19.685,28.395 C19.8883344,28.7783352 19.99,29.2266641 19.99,29.74 C19.99,30.2533359 19.8883344,30.7033314 19.685,31.09 C19.4816656,31.4766686 19.1916685,31.7733323 18.815,31.98 C18.4383314,32.1866677 18.0000025,32.29 17.5,32.29 Z M17.49,31.32 C17.8966687,31.32 18.2066656,31.186668 18.42,30.92 C18.6333344,30.653332 18.74,30.2600026 18.74,29.74 C18.74,29.2266641 18.6333344,28.8350013 18.42,28.565 C18.2066656,28.2949987 17.900002,28.16 17.5,28.16 C17.099998,28.16 16.7916677,28.2949987 16.575,28.565 C16.3583322,28.8350013 16.25,29.2266641 16.25,29.74 C16.25,30.2600026 16.3566656,30.653332 16.57,30.92 C16.7833344,31.186668 17.089998,31.32 17.49,31.32 Z M23.86,27.2 C24.4466696,27.2 24.8833319,27.366665 25.17,27.7 C25.4566681,28.033335 25.6,28.5366633 25.6,29.21 L25.6,31.67 C25.6,31.8566676 25.5450005,32.0033328 25.435,32.11 C25.3249994,32.2166672 25.1733343,32.27 24.98,32.27 C24.7866657,32.27 24.6333339,32.2166672 24.52,32.11 C24.4066661,32.0033328 24.35,31.8566676 24.35,31.67 L24.35,29.28 C24.35,28.8999981 24.278334,28.6233342 24.135,28.45 C23.9916659,28.2766658 23.7666682,28.19 23.46,28.19 C23.0999982,28.19 22.8116677,28.3033322 22.595,28.53 C22.3783322,28.7566678 22.27,29.0599981 22.27,29.44 L22.27,31.67 C22.27,31.8566676 22.2133339,32.0033328 22.1,32.11 C21.9866661,32.2166672 21.8333343,32.27 21.64,32.27 C21.4466657,32.27 21.2950005,32.2166672 21.185,32.11 C21.0749994,32.0033328 21.02,31.8566676 21.02,31.67 L21.02,27.8 C21.02,27.6266658 21.0766661,27.4866672 21.19,27.38 C21.3033339,27.2733328 21.4566657,27.22 21.65,27.22 C21.8233342,27.22 21.9649995,27.2716662 22.075,27.375 C22.1850005,27.4783338 22.24,27.6133325 22.24,27.78 L22.24,28.05 C22.4066675,27.7766653 22.6299986,27.5666674 22.91,27.42 C23.1900014,27.2733326 23.5066649,27.2 23.86,27.2 Z M27.49,32.27 C27.3099991,32.27 27.1616673,32.2183339 27.045,32.115 C26.9283327,32.0116662 26.87,31.8633343 26.87,31.67 L26.87,25.7 C26.87,25.5066657 26.9283327,25.3600005 27.045,25.26 C27.1616673,25.1599995 27.3099991,25.11 27.49,25.11 C27.6700009,25.11 27.8199994,25.1599995 27.94,25.26 C28.0600006,25.3600005 28.12,25.5066657 28.12,25.7 L28.12,31.67 C28.12,31.8633343 28.0600006,32.0116662 27.94,32.115 C27.8199994,32.2183339 27.6700009,32.27 27.49,32.27 Z M30.03,32.27 C29.8499991,32.27 29.7016672,32.2183339 29.585,32.115 C29.4683327,32.0116662 29.41,31.8633343 29.41,31.67 L29.41,27.81 C29.41,27.6166657 29.4683327,27.4700005 29.585,27.37 C29.7016672,27.2699995 29.8499991,27.22 30.03,27.22 C30.2100009,27.22 30.3599994,27.2699995 30.48,27.37 C30.6000006,27.4700005 30.66,27.6166657 30.66,27.81 L30.66,31.67 C30.66,31.8633343 30.6000006,32.0116662 30.48,32.115 C30.3599994,32.2183339 30.2100009,32.27 30.03,32.27 Z M30.03,26.33 C29.8033322,26.33 29.623334,26.2683339 29.49,26.145 C29.356666,26.0216661 29.29,25.860001 29.29,25.66 C29.29,25.459999 29.356666,25.3000006 29.49,25.18 C29.623334,25.0599994 29.8033322,25 30.03,25 C30.2500011,25 30.4283326,25.0599994 30.565,25.18 C30.7016674,25.3000006 30.77,25.459999 30.77,25.66 C30.77,25.860001 30.703334,26.0216661 30.57,26.145 C30.436666,26.2683339 30.2566678,26.33 30.03,26.33 Z M34.79,27.2 C35.3766696,27.2 35.8133319,27.366665 36.1,27.7 C36.3866681,28.033335 36.53,28.5366633 36.53,29.21 L36.53,31.67 C36.53,31.8566676 36.4750005,32.0033328 36.365,32.11 C36.2549994,32.2166672 36.1033343,32.27 35.91,32.27 C35.7166657,32.27 35.5633339,32.2166672 35.45,32.11 C35.3366661,32.0033328 35.28,31.8566676 35.28,31.67 L35.28,29.28 C35.28,28.8999981 35.208334,28.6233342 35.065,28.45 C34.9216659,28.2766658 34.6966682,28.19 34.39,28.19 C34.0299982,28.19 33.7416677,28.3033322 33.525,28.53 C33.3083322,28.7566678 33.2,29.0599981 33.2,29.44 L33.2,31.67 C33.2,31.8566676 33.1433339,32.0033328 33.03,32.11 C32.9166661,32.2166672 32.7633343,32.27 32.57,32.27 C32.3766657,32.27 32.2250005,32.2166672 32.115,32.11 C32.0049994,32.0033328 31.95,31.8566676 31.95,31.67 L31.95,27.8 C31.95,27.6266658 32.0066661,27.4866672 32.12,27.38 C32.2333339,27.2733328 32.3866657,27.22 32.58,27.22 C32.7533342,27.22 32.8949994,27.2716662 33.005,27.375 C33.1150005,27.4783338 33.17,27.6133325 33.17,27.78 L33.17,28.05 C33.3366675,27.7766653 33.5599986,27.5666674 33.84,27.42 C34.1200014,27.2733326 34.4366649,27.2 34.79,27.2 Z M41.67,30.87 C41.7833339,30.87 41.8749996,30.9133329 41.945,31 C42.0150004,31.0866671 42.05,31.2033326 42.05,31.35 C42.05,31.5566677 41.9266679,31.7299993 41.68,31.87 C41.4533322,31.9966673 41.1966681,32.0983329 40.91,32.175 C40.6233319,32.251667 40.3500013,32.29 40.09,32.29 C39.3033294,32.29 38.6800023,32.0633356 38.22,31.61 C37.7599977,31.1566644 37.53,30.5366706 37.53,29.75 C37.53,29.2499975 37.629999,28.8066686 37.83,28.42 C38.030001,28.0333314 38.3116648,27.7333344 38.675,27.52 C39.0383351,27.3066656 39.4499977,27.2 39.91,27.2 C40.3500022,27.2 40.7333317,27.2966657 41.06,27.49 C41.3866683,27.6833343 41.6399991,27.9566649 41.82,28.31 C42.0000009,28.6633351 42.09,29.0799976 42.09,29.56 C42.09,29.8466681 41.9633346,29.99 41.71,29.99 L38.76,29.99 C38.8000002,30.4500023 38.9299989,30.7883323 39.15,31.005 C39.3700011,31.2216678 39.6899979,31.33 40.11,31.33 C40.3233344,31.33 40.5116658,31.3033336 40.675,31.25 C40.8383342,31.1966664 41.0233323,31.1233338 41.23,31.03 C41.430001,30.9233328 41.5766662,30.87 41.67,30.87 Z M39.94,28.08 C39.5999983,28.08 39.3283343,28.1866656 39.125,28.4 C38.9216657,28.6133344 38.8000002,28.919998 38.76,29.32 L41.02,29.32 C41.0066666,28.9133313 40.9066676,28.6050011 40.72,28.395 C40.5333324,28.184999 40.273335,28.08 39.94,28.08 Z" id="online" fill="#04162C"></path>
                                            </g>
                                        </g>
                                        <g id="Group-22" transform="translate(36.879310, 0.000000)">
                                            <g id="offer">
                                                <path d="M55.7982995,27.9255319 C55.7982995,29.3625332 53.8374542,30.6287234 53.6213521,32.0049867 C53.3995538,33.4177859 54.8714665,35.2260805 54.4397271,36.5571975 C54.0003155,37.9118185 51.7439718,38.5087267 51.105895,39.7599069 C50.4610759,41.0242354 51.2997941,43.2018451 50.4714218,44.3412068 C49.6390972,45.4859209 47.3095182,45.3567653 46.3116586,46.3555685 C45.313799,47.3543717 45.4428326,49.6861536 44.2991999,50.5192653 C43.1609146,51.3484209 40.9853622,50.5089096 39.7222282,51.1543384 C38.47223,51.793135 37.8758857,54.051496 36.5225444,54.4913231 C35.1928012,54.9234707 33.3860988,53.4501662 31.9746343,53.6721742 C30.5997874,53.8883644 29.3347935,55.8510638 27.8991497,55.8510638 C26.463506,55.8510638 25.198512,53.8883644 23.8235489,53.6720578 C22.4120845,53.4500499 20.6054983,54.9233544 19.2756388,54.4912068 C17.9222975,54.0513797 17.3259532,51.7929023 16.0759551,51.1542221 C14.8128211,50.5087932 12.6372686,51.3483045 11.4989833,50.5191489 C10.3553507,49.6860372 10.4843842,47.3542553 9.48652464,46.3554521 C8.48866505,45.3566489 6.15908604,45.4858045 5.32676141,44.3410904 C4.49838916,43.2017287 5.33710735,41.024119 4.69228825,39.7597906 C4.0540952,38.5086104 1.79786771,37.9117021 1.3584561,36.5570811 C0.926716757,35.2260805 2.3986294,33.4176695 2.17683116,32.0048703 C1.96084524,30.6287234 0,29.3625332 0,27.9255319 C0,26.4885306 1.96084524,25.2223404 2.1769474,23.8460771 C2.39874565,22.4332779 0.926833004,20.6249834 1.35857235,19.2938664 C1.79798395,17.9392453 4.05432769,17.3423371 4.69240449,16.0911569 C5.33722359,14.8268285 4.4985054,12.6492188 5.32687766,11.509857 C6.15920229,10.365143 8.48878129,10.4942985 9.48664088,9.49549535 C10.4845005,8.49669215 10.3554669,6.16491024 11.4990996,5.33179854 C12.6373849,4.50264295 14.8129373,5.34215426 16.0760713,4.6967254 C17.3260695,4.05792886 17.9224138,1.79956782 19.275755,1.35974069 C20.6054983,0.927593085 22.4122007,2.40089761 23.8236652,2.17888963 C25.198512,1.96269947 26.463506,0 27.8991497,0 C29.3347935,0 30.5997874,1.96269947 31.9747505,2.17900598 C33.386215,2.40101396 35.1928012,0.927709441 36.5226607,1.35985705 C37.8760019,1.79968418 38.4723463,4.05816157 39.7223444,4.69684176 C40.9854784,5.34227061 43.1610309,4.50275931 44.2993162,5.33191489 C45.4429488,6.1650266 45.3139153,8.49680851 46.3117748,9.4956117 C47.3096344,10.4944149 49.6392134,10.3652593 50.4715381,11.5099734 C51.2999103,12.6493351 50.4611921,14.8269448 51.1060112,16.0912733 C51.7442043,17.3424535 54.0004318,17.9393617 54.4398434,19.2939827 C54.8715827,20.6249834 53.3996701,22.4333943 53.6214683,23.8461935 C53.8374542,25.2223404 55.7982995,26.4885306 55.7982995,27.9255319 Z" id="Shape" stroke="#000000" stroke-width="0.79787234" fill="#2997A0" fill-rule="nonzero"></path>
                                                <ellipse id="Oval" stroke="#000000" stroke-width="0.79787234" fill="#F9F6F6" fill-rule="nonzero" cx="28.3193198" cy="28.3404255" rx="22.3193198" ry="22.3404255"></ellipse>
                                                <path d="M17.5,32.29 C16.9999975,32.29 16.5616686,32.1866677 16.185,31.98 C15.8083315,31.7733323 15.5166677,31.4766686 15.31,31.09 C15.1033323,30.7033314 15,30.2533359 15,29.74 C15,29.2266641 15.1033323,28.7783352 15.31,28.395 C15.5166677,28.0116648 15.8083315,27.7166677 16.185,27.51 C16.5616686,27.3033323 16.9999975,27.2 17.5,27.2 C18.0000025,27.2 18.4383314,27.3033323 18.815,27.51 C19.1916686,27.7166677 19.4816657,28.0116648 19.685,28.395 C19.8883344,28.7783352 19.99,29.2266641 19.99,29.74 C19.99,30.2533359 19.8883344,30.7033314 19.685,31.09 C19.4816657,31.4766686 19.1916686,31.7733323 18.815,31.98 C18.4383314,32.1866677 18.0000025,32.29 17.5,32.29 Z M17.49,31.32 C17.8966687,31.32 18.2066656,31.186668 18.42,30.92 C18.6333344,30.653332 18.74,30.2600026 18.74,29.74 C18.74,29.2266641 18.6333344,28.8350013 18.42,28.565 C18.2066656,28.2949987 17.900002,28.16 17.5,28.16 C17.099998,28.16 16.7916678,28.2949987 16.575,28.565 C16.3583323,28.8350013 16.25,29.2266641 16.25,29.74 C16.25,30.2600026 16.3566656,30.653332 16.57,30.92 C16.7833344,31.186668 17.089998,31.32 17.49,31.32 Z M23.86,27.2 C24.4466696,27.2 24.8833319,27.366665 25.17,27.7 C25.4566681,28.033335 25.6,28.5366633 25.6,29.21 L25.6,31.67 C25.6,31.8566676 25.5450006,32.0033328 25.435,32.11 C25.3249994,32.2166672 25.1733343,32.27 24.98,32.27 C24.7866657,32.27 24.6333339,32.2166672 24.52,32.11 C24.4066661,32.0033328 24.35,31.8566676 24.35,31.67 L24.35,29.28 C24.35,28.8999981 24.2783341,28.6233342 24.135,28.45 C23.991666,28.2766658 23.7666682,28.19 23.46,28.19 C23.0999982,28.19 22.8116678,28.3033322 22.595,28.53 C22.3783322,28.7566678 22.27,29.0599981 22.27,29.44 L22.27,31.67 C22.27,31.8566676 22.2133339,32.0033328 22.1,32.11 C21.9866661,32.2166672 21.8333343,32.27 21.64,32.27 C21.4466657,32.27 21.2950006,32.2166672 21.185,32.11 C21.0749994,32.0033328 21.02,31.8566676 21.02,31.67 L21.02,27.8 C21.02,27.6266658 21.0766661,27.4866672 21.19,27.38 C21.3033339,27.2733328 21.4566657,27.22 21.65,27.22 C21.8233342,27.22 21.9649995,27.2716662 22.075,27.375 C22.1850006,27.4783338 22.24,27.6133325 22.24,27.78 L22.24,28.05 C22.4066675,27.7766653 22.6299986,27.5666674 22.91,27.42 C23.1900014,27.2733326 23.5066649,27.2 23.86,27.2 Z M28.64,32.29 C27.9133297,32.29 27.3266689,32.1466681 26.88,31.86 C26.6666656,31.7333327 26.56,31.5533345 26.56,31.32 C26.56,31.186666 26.5966663,31.0783338 26.67,30.995 C26.7433337,30.9116663 26.8333328,30.87 26.94,30.87 C27.0533339,30.87 27.209999,30.9233328 27.41,31.03 C27.6233344,31.1300005 27.8183325,31.2066664 27.995,31.26 C28.1716676,31.3133336 28.3966653,31.34 28.67,31.34 C28.9500014,31.34 29.1683326,31.2933338 29.325,31.2 C29.4816675,31.1066662 29.56,30.9766675 29.56,30.81 C29.56,30.6966661 29.5283337,30.606667 29.465,30.54 C29.4016664,30.473333 29.2883342,30.411667 29.125,30.355 C28.9616659,30.298333 28.713335,30.2333337 28.38,30.16 C27.7866637,30.0399994 27.361668,29.8700011 27.105,29.65 C26.8483321,29.4299989 26.72,29.1266686 26.72,28.74 C26.72,28.4466652 26.8066658,28.1816678 26.98,27.945 C27.1533342,27.7083321 27.3916652,27.5250006 27.695,27.395 C27.9983349,27.2649994 28.3433314,27.2 28.73,27.2 C29.0100014,27.2 29.2799987,27.2349997 29.54,27.305 C29.8000013,27.3750004 30.0333323,27.476666 30.24,27.61 C30.4533344,27.743334 30.56,27.9199989 30.56,28.14 C30.56,28.273334 30.5233337,28.3849995 30.45,28.475 C30.3766663,28.5650004 30.2866672,28.61 30.18,28.61 C30.1066663,28.61 30.0350004,28.5950002 29.965,28.565 C29.8949997,28.5349999 29.8066672,28.4900003 29.7,28.43 C29.5066657,28.3299995 29.3400007,28.2550003 29.2,28.205 C29.0599993,28.1549998 28.8866677,28.13 28.68,28.13 C28.4333321,28.13 28.2383341,28.1799995 28.095,28.28 C27.951666,28.3800005 27.88,28.5166658 27.88,28.69 C27.88,28.8566675 27.9533326,28.9833329 28.1,29.07 C28.2466674,29.1566671 28.5299979,29.2433329 28.95,29.33 C29.3966689,29.4233338 29.7466654,29.5299994 30,29.65 C30.2533346,29.7700006 30.4349994,29.9199991 30.545,30.1 C30.6550006,30.2800009 30.71,30.5099986 30.71,30.79 C30.71,31.2433356 30.5216686,31.6066653 30.145,31.88 C29.7683315,32.1533347 29.2666698,32.29 28.64,32.29 Z M32.34,32.27 C32.1599991,32.27 32.0116673,32.2183339 31.895,32.115 C31.7783328,32.0116662 31.72,31.8633343 31.72,31.67 L31.72,27.81 C31.72,27.6166657 31.7783328,27.4700005 31.895,27.37 C32.0116673,27.2699995 32.1599991,27.22 32.34,27.22 C32.5200009,27.22 32.6699994,27.2699995 32.79,27.37 C32.9100006,27.4700005 32.97,27.6166657 32.97,27.81 L32.97,31.67 C32.97,31.8633343 32.9100006,32.0116662 32.79,32.115 C32.6699994,32.2183339 32.5200009,32.27 32.34,32.27 Z M32.34,26.33 C32.1133322,26.33 31.933334,26.2683339 31.8,26.145 C31.666666,26.0216661 31.6,25.860001 31.6,25.66 C31.6,25.459999 31.666666,25.3000006 31.8,25.18 C31.933334,25.0599994 32.1133322,25 32.34,25 C32.5600011,25 32.7383327,25.0599994 32.875,25.18 C33.0116674,25.3000006 33.08,25.459999 33.08,25.66 C33.08,25.860001 33.013334,26.0216661 32.88,26.145 C32.746666,26.2683339 32.5666678,26.33 32.34,26.33 Z M36.8,31.34 C37.133335,31.3600001 37.3,31.5099986 37.3,31.79 C37.3,31.9500008 37.2350007,32.0716663 37.105,32.155 C36.9749994,32.2383338 36.7900012,32.2733334 36.55,32.26 L36.28,32.24 C35.1599944,32.1599996 34.6,31.5600056 34.6,30.44 L34.6,28.26 L34.1,28.26 C33.9199991,28.26 33.7816672,28.2200004 33.685,28.14 C33.5883329,28.0599996 33.54,27.9433341 33.54,27.79 C33.54,27.6366659 33.5883329,27.5200004 33.685,27.44 C33.7816672,27.3599996 33.9199991,27.32 34.1,27.32 L34.6,27.32 L34.6,26.4 C34.6,26.2199991 34.6566661,26.0766672 34.77,25.97 C34.8833339,25.8633328 35.0366657,25.81 35.23,25.81 C35.4166676,25.81 35.5666661,25.8633328 35.68,25.97 C35.7933339,26.0766672 35.85,26.2199991 35.85,26.4 L35.85,27.32 L36.7,27.32 C36.8800009,27.32 37.0183329,27.3599996 37.115,27.44 C37.2116672,27.5200004 37.26,27.6366659 37.26,27.79 C37.26,27.9433341 37.2116672,28.0599996 37.115,28.14 C37.0183329,28.2200004 36.8800009,28.26 36.7,28.26 L35.85,28.26 L35.85,30.53 C35.85,31.0233358 36.0766644,31.2866665 36.53,31.32 L36.8,31.34 Z M41.82,30.87 C41.9333339,30.87 42.0249997,30.9133329 42.095,31 C42.1650004,31.0866671 42.2,31.2033326 42.2,31.35 C42.2,31.5566677 42.0766679,31.7299993 41.83,31.87 C41.6033322,31.9966673 41.3466681,32.0983329 41.06,32.175 C40.7733319,32.251667 40.5000013,32.29 40.24,32.29 C39.4533294,32.29 38.8300023,32.0633356 38.37,31.61 C37.9099977,31.1566644 37.68,30.5366706 37.68,29.75 C37.68,29.2499975 37.779999,28.8066686 37.98,28.42 C38.180001,28.0333314 38.4616648,27.7333344 38.825,27.52 C39.1883352,27.3066656 39.5999977,27.2 40.06,27.2 C40.5000022,27.2 40.8833317,27.2966657 41.21,27.49 C41.5366683,27.6833343 41.7899991,27.9566649 41.97,28.31 C42.1500009,28.6633351 42.24,29.0799976 42.24,29.56 C42.24,29.8466681 42.1133346,29.99 41.86,29.99 L38.91,29.99 C38.9500002,30.4500023 39.0799989,30.7883323 39.3,31.005 C39.5200011,31.2216678 39.8399979,31.33 40.26,31.33 C40.4733344,31.33 40.6616659,31.3033336 40.825,31.25 C40.9883342,31.1966664 41.1733323,31.1233338 41.38,31.03 C41.580001,30.9233328 41.7266662,30.87 41.82,30.87 Z M40.09,28.08 C39.7499983,28.08 39.4783344,28.1866656 39.275,28.4 C39.0716657,28.6133344 38.9500002,28.919998 38.91,29.32 L41.17,29.32 C41.1566666,28.9133313 41.0566676,28.6050011 40.87,28.395 C40.6833324,28.184999 40.423335,28.08 40.09,28.08 Z" id="onsite" fill="#04162C"></path>
                                            </g>
                                            <text id="Limited" font-family="Nunito-Bold, Nunito" font-size="6" font-weight="bold" fill="#04162C">
                                                <tspan x="12.189" y="63">Limited</tspan>
                                            </text>
                                        </g>
                                    </g>
                                    <g id="stopwatch-(1)" transform="translate(39.000000, 35.000000)">
                                        <circle id="Oval-3" fill="#E14C46" cx="18.75" cy="26.25" r="17.5"></circle>
                                        <ellipse id="Oval-3" fill="#FAFAFA" cx="18.5" cy="26" rx="13.5" ry="14"></ellipse>
                                        <rect id="Rectangle-6" fill="#E14C46" x="13.75" y="1.25" width="10" height="2.5"></rect>
                                        <polygon id="Rectangle-7" fill="#E14C46" points="31.25 7.5 32.5 6.25 38.75 12.5 36.25 13.75"></polygon>
                                        <path d="M18.5185185,45 C25.6062698,45.006027 32.0746054,40.9120326 35.1740726,34.4582241 C38.2735397,28.0044156 37.4594246,20.3250132 33.0777778,14.68425 L34.8148148,12.9285 L35.4688889,13.59075 C36.0268321,14.1756524 36.853062,14.4102284 37.6300163,14.2043186 C38.4069706,13.9984088 39.0137371,13.3840577 39.2171048,12.5973915 C39.4204724,11.8107253 39.1887924,10.9741676 38.6111111,10.40925 L34.1666667,5.90925 C33.6087234,5.32434769 32.7824936,5.08977166 32.0055393,5.2956814 C31.228585,5.50159114 30.6218184,6.1159423 30.4184507,6.90260852 C30.2150831,7.68927473 30.4467631,8.52583245 31.0244444,9.09075 L31.6785185,9.753 L29.9444444,11.50875 C27.4852433,9.54591465 24.5726324,8.24989523 21.4814815,7.743 L21.4814815,5.25 L21.8518519,5.25 C23.2837012,5.25 24.4444444,4.07474747 24.4444444,2.625 C24.4444444,1.17525254 23.2837012,0 21.8518519,0 L15.1851852,0 C13.7533359,0 12.5925926,1.17525254 12.5925926,2.625 C12.5925926,4.07474747 13.7533359,5.25 15.1851852,5.25 L15.5555556,5.25 L15.5555556,7.743 C6.03282137,9.310566 -0.705832059,18.0180641 0.0685171333,27.7549147 C0.842866319,37.4917652 8.87075141,44.9953725 18.5185185,45 Z M32.0688889,6.96975 C32.3581481,6.67696355 32.8270371,6.67696355 33.1162963,6.96975 L37.5607407,11.46975 C37.8499125,11.7626249 37.8499125,12.2373751 37.5607407,12.53025 C37.2677919,12.8138719 36.8062822,12.8138719 36.5133333,12.53025 L32.0688889,8.03025 C31.7797171,7.73737508 31.7797171,7.26262489 32.0688889,6.96975 Z M32.722963,10.8135 L33.7644444,11.868 L32.1155556,13.5375 C31.7822222,13.172 31.4350617,12.8205 31.0740741,12.483 L32.722963,10.8135 Z M14.0740741,2.625 C14.0740741,2.00367966 14.5715355,1.5 15.1851852,1.5 L21.8518519,1.5 C22.4655016,1.50000001 22.962963,2.00367966 22.962963,2.625 C22.962963,3.24632034 22.4655016,3.74999999 21.8518519,3.75 L15.1851852,3.75 C14.8905002,3.75 14.6078847,3.63147356 14.399511,3.42049513 C14.1911373,3.2095167 14.0740741,2.92336855 14.0740741,2.625 Z M17.037037,5.25 L20,5.25 L20,7.56525 C19.5103704,7.52625 19.0177778,7.5 18.5185185,7.5 C18.0192593,7.5 17.5266667,7.52625 17.037037,7.56525 L17.037037,5.25 Z M18.5185185,9 C27.9278142,9 35.5555556,16.7230881 35.5555556,26.25 C35.5555556,35.7769119 27.9278142,43.5 18.5185185,43.5 C9.10922281,43.5 1.48148148,35.7769119 1.48148148,26.25 C1.49209512,16.7275429 9.11362259,9.0107463 18.5185185,9 Z" id="Shape" fill="#000000" fill-rule="nonzero"></path>
                                        <path d="M18.5185185,41.25 C26.7005148,41.25 33.3333333,34.5342713 33.3333333,26.25 C33.3333333,17.9657287 26.7005148,11.25 18.5185185,11.25 C10.3365222,11.25 3.7037037,17.9657287 3.7037037,26.25 C3.71309234,34.5303305 10.3404143,41.240494 18.5185185,41.25 Z M18.5185185,12.75 C25.8823152,12.75 31.8518519,18.7941559 31.8518519,26.25 C31.8518519,33.7058441 25.8823152,39.75 18.5185185,39.75 C11.1547219,39.75 5.18518519,33.7058441 5.18518519,26.25 C5.19375714,18.7977538 11.1582754,12.7586791 18.5185185,12.75 Z" id="Shape" fill="#000000" fill-rule="nonzero"></path>
                                        <path d="M7.866,25 C7.74999942,25 7.66000032,24.9680003 7.596,24.904 C7.53199968,24.8399997 7.5,24.7520006 7.5,24.64 L7.5,21.124 C7.5,21.0079994 7.53499965,20.9150003 7.605,20.845 C7.67500035,20.7749996 7.76799942,20.74 7.884,20.74 C8.0040006,20.74 8.09899965,20.7749996 8.169,20.845 C8.23900035,20.9150003 8.274,21.0079994 8.274,21.124 L8.274,24.364 L9.96,24.364 C10.2000012,24.364 10.32,24.4699989 10.32,24.682 C10.32,24.8940011 10.2000012,25 9.96,25 L7.866,25 Z M11.214,25.036 C11.0979994,25.036 11.0050004,25.0000004 10.935,24.928 C10.8649997,24.8559996 10.83,24.7620006 10.83,24.646 L10.83,21.124 C10.83,21.0079994 10.8649997,20.9150003 10.935,20.845 C11.0050004,20.7749996 11.0979994,20.74 11.214,20.74 C11.3340006,20.74 11.4289997,20.7749996 11.499,20.845 C11.5690004,20.9150003 11.604,21.0079994 11.604,21.124 L11.604,24.646 C11.604,24.7620006 11.5690004,24.8559996 11.499,24.928 C11.4289997,25.0000004 11.3340006,25.036 11.214,25.036 Z M16.272,20.74 C16.3840006,20.74 16.4739997,20.7749996 16.542,20.845 C16.6100003,20.9150003 16.644,21.0079994 16.644,21.124 L16.644,24.676 C16.644,24.7880006 16.6120003,24.8759997 16.548,24.94 C16.4839997,25.0040003 16.4000005,25.036 16.296,25.036 C16.1919995,25.036 16.1100003,25.0040003 16.05,24.94 C15.9899997,24.8759997 15.96,24.7880006 15.96,24.676 L15.96,22.204 L14.94,24.136 C14.8919998,24.2240004 14.8400003,24.2889998 14.784,24.331 C14.7279997,24.3730002 14.6620004,24.394 14.586,24.394 C14.5099996,24.394 14.4440003,24.3740002 14.388,24.334 C14.3319997,24.2939998 14.2800002,24.2280005 14.232,24.136 L13.206,22.234 L13.206,24.676 C13.206,24.7840005 13.1750003,24.8709997 13.113,24.937 C13.0509997,25.0030003 12.9680005,25.036 12.864,25.036 C12.7599995,25.036 12.6780003,25.0040003 12.618,24.94 C12.5579997,24.8759997 12.528,24.7880006 12.528,24.676 L12.528,21.124 C12.528,21.0079994 12.5609997,20.9150003 12.627,20.845 C12.6930003,20.7749996 12.7819994,20.74 12.894,20.74 C13.0500008,20.74 13.1719996,20.8259991 13.26,20.998 L14.592,23.536 L15.918,20.998 C16.0060004,20.8259991 16.1239993,20.74 16.272,20.74 Z M17.946,25.036 C17.8299994,25.036 17.7370004,25.0000004 17.667,24.928 C17.5969997,24.8559996 17.562,24.7620006 17.562,24.646 L17.562,21.124 C17.562,21.0079994 17.5969997,20.9150003 17.667,20.845 C17.7370004,20.7749996 17.8299994,20.74 17.946,20.74 C18.0660006,20.74 18.1609997,20.7749996 18.231,20.845 C18.3010004,20.9150003 18.336,21.0079994 18.336,21.124 L18.336,24.646 C18.336,24.7620006 18.3010004,24.8559996 18.231,24.928 C18.1609997,25.0000004 18.0660006,25.036 17.946,25.036 Z M20.634,25.03 C20.5139994,25.03 20.4190004,24.9950003 20.349,24.925 C20.2789997,24.8549996 20.244,24.7620006 20.244,24.646 L20.244,21.406 L19.152,21.406 C18.9119988,21.406 18.792,21.3000011 18.792,21.088 C18.792,20.8759989 18.9119988,20.77 19.152,20.77 L22.11,20.77 C22.3500012,20.77 22.47,20.8759989 22.47,21.088 C22.47,21.3000011 22.3500012,21.406 22.11,21.406 L21.018,21.406 L21.018,24.646 C21.018,24.7620006 20.9830004,24.8549996 20.913,24.925 C20.8429997,24.9950003 20.7500006,25.03 20.634,25.03 Z M23.298,25 C23.1819994,25 23.0910003,24.9680003 23.025,24.904 C22.9589997,24.8399997 22.926,24.7500006 22.926,24.634 L22.926,21.136 C22.926,21.0199994 22.9589997,20.9300003 23.025,20.866 C23.0910003,20.8019997 23.1819994,20.77 23.298,20.77 L25.464,20.77 C25.5800006,20.77 25.6699997,20.7959997 25.734,20.848 C25.7980003,20.9000003 25.83,20.9739995 25.83,21.07 C25.83,21.1700005 25.7980003,21.2469997 25.734,21.301 C25.6699997,21.3550003 25.5800006,21.382 25.464,21.382 L23.682,21.382 L23.682,22.546 L25.344,22.546 C25.4600006,22.546 25.5499997,22.5719997 25.614,22.624 C25.6780003,22.6760003 25.71,22.7519995 25.71,22.852 C25.71,22.9480005 25.6780003,23.0219997 25.614,23.074 C25.5499997,23.1260003 25.4600006,23.152 25.344,23.152 L23.682,23.152 L23.682,24.388 L25.464,24.388 C25.5800006,24.388 25.6699997,24.4149997 25.734,24.469 C25.7980003,24.5230003 25.83,24.5999995 25.83,24.7 C25.83,24.7960005 25.7980003,24.8699997 25.734,24.922 C25.6699997,24.9740003 25.5800006,25 25.464,25 L23.298,25 Z M26.832,25 C26.7159994,25 26.6250003,24.9680003 26.559,24.904 C26.4929997,24.8399997 26.46,24.7500006 26.46,24.634 L26.46,21.136 C26.46,21.0199994 26.4929997,20.9300003 26.559,20.866 C26.6250003,20.8019997 26.7159994,20.77 26.832,20.77 L28.02,20.77 C28.7120035,20.77 29.2489981,20.9549981 29.631,21.325 C30.0130019,21.6950018 30.204,22.2139967 30.204,22.882 C30.204,23.5540034 30.0130019,24.0749981 29.631,24.445 C29.2489981,24.8150018 28.7120035,25 28.02,25 L26.832,25 Z M27.972,24.37 C28.9440049,24.37 29.43,23.874005 29.43,22.882 C29.43,21.8939951 28.9440049,21.4 27.972,21.4 L27.234,21.4 L27.234,24.37 L27.972,24.37 Z M11.541,32.054 C11.1289979,32.054 10.7720015,31.9660009 10.47,31.79 C10.1679985,31.6139991 9.93500082,31.3620016 9.771,31.034 C9.60699918,30.7059984 9.525,30.3220022 9.525,29.882 C9.525,29.4419978 9.60599919,29.0590016 9.768,28.733 C9.93000081,28.4069984 10.1629985,28.1560009 10.467,27.98 C10.7710015,27.8039991 11.1289979,27.716 11.541,27.716 C11.9530021,27.716 12.3099985,27.8039991 12.612,27.98 C12.9140015,28.1560009 13.1459992,28.4069984 13.308,28.733 C13.4700008,29.0590016 13.551,29.4419978 13.551,29.882 C13.551,30.3220022 13.4690008,30.7059984 13.305,31.034 C13.1409992,31.3620016 12.9080015,31.6139991 12.606,31.79 C12.3039985,31.9660009 11.949002,32.054 11.541,32.054 Z M11.541,31.436 C11.9290019,31.436 12.2319989,31.3020013 12.45,31.034 C12.6680011,30.7659987 12.777,30.3820025 12.777,29.882 C12.777,29.3819975 12.6680011,28.9990013 12.45,28.733 C12.2319989,28.4669987 11.9290019,28.334 11.541,28.334 C11.148998,28.334 10.8440011,28.4669987 10.626,28.733 C10.4079989,28.9990013 10.299,29.3819975 10.299,29.882 C10.299,30.3820025 10.4079989,30.7659987 10.626,31.034 C10.8440011,31.3020013 11.148998,31.436 11.541,31.436 Z M14.715,32.036 C14.5989994,32.036 14.5060004,32.0000004 14.436,31.928 C14.3659997,31.8559996 14.331,31.7620006 14.331,31.646 L14.331,28.136 C14.331,28.0199994 14.3639997,27.9300003 14.43,27.866 C14.4960003,27.8019997 14.5869994,27.77 14.703,27.77 L16.809,27.77 C17.0530012,27.77 17.175,27.873999 17.175,28.082 C17.175,28.286001 17.0530012,28.388 16.809,28.388 L15.093,28.388 L15.093,29.54 L16.689,29.54 C16.9330012,29.54 17.055,29.643999 17.055,29.852 C17.055,30.056001 16.9330012,30.158 16.689,30.158 L15.093,30.158 L15.093,31.646 C15.093,31.7620006 15.0590003,31.8559996 14.991,31.928 C14.9229997,32.0000004 14.8310006,32.036 14.715,32.036 Z M18.111,32.036 C17.9949994,32.036 17.9020004,32.0000004 17.832,31.928 C17.7619997,31.8559996 17.727,31.7620006 17.727,31.646 L17.727,28.136 C17.727,28.0199994 17.7599997,27.9300003 17.826,27.866 C17.8920003,27.8019997 17.9829994,27.77 18.099,27.77 L20.205,27.77 C20.4490012,27.77 20.571,27.873999 20.571,28.082 C20.571,28.286001 20.4490012,28.388 20.205,28.388 L18.489,28.388 L18.489,29.54 L20.085,29.54 C20.3290012,29.54 20.451,29.643999 20.451,29.852 C20.451,30.056001 20.3290012,30.158 20.085,30.158 L18.489,30.158 L18.489,31.646 C18.489,31.7620006 18.4550003,31.8559996 18.387,31.928 C18.3189997,32.0000004 18.2270006,32.036 18.111,32.036 Z M21.495,32 C21.3789994,32 21.2880003,31.9680003 21.222,31.904 C21.1559997,31.8399997 21.123,31.7500006 21.123,31.634 L21.123,28.136 C21.123,28.0199994 21.1559997,27.9300003 21.222,27.866 C21.2880003,27.8019997 21.3789994,27.77 21.495,27.77 L23.661,27.77 C23.7770006,27.77 23.8669997,27.7959997 23.931,27.848 C23.9950003,27.9000003 24.027,27.9739995 24.027,28.07 C24.027,28.1700005 23.9950003,28.2469997 23.931,28.301 C23.8669997,28.3550003 23.7770006,28.382 23.661,28.382 L21.879,28.382 L21.879,29.546 L23.541,29.546 C23.6570006,29.546 23.7469997,29.5719997 23.811,29.624 C23.8750003,29.6760003 23.907,29.7519995 23.907,29.852 C23.907,29.9480005 23.8750003,30.0219997 23.811,30.074 C23.7469997,30.1260003 23.6570006,30.152 23.541,30.152 L21.879,30.152 L21.879,31.388 L23.661,31.388 C23.7770006,31.388 23.8669997,31.4149997 23.931,31.469 C23.9950003,31.5230003 24.027,31.5999995 24.027,31.7 C24.027,31.7960005 23.9950003,31.8699997 23.931,31.922 C23.8669997,31.9740003 23.7770006,32 23.661,32 L21.495,32 Z M26.9369272,30.2314529 C27.0504782,30.2597133 27.1505015,30.3092285 27.237,30.38 C27.3250004,30.4520004 27.4109996,30.5519994 27.495,30.68 L28.041,31.514 C28.0890002,31.5860004 28.113,31.6559997 28.113,31.724 C28.113,31.8160005 28.0760004,31.8919997 28.002,31.952 C27.9279996,32.0120003 27.8410005,32.042 27.741,32.042 C27.6769997,32.042 27.6160003,32.0270001 27.558,31.997 C27.4999997,31.9669998 27.4510002,31.9220003 27.411,31.862 L26.613,30.65 C26.5329996,30.5219994 26.4480005,30.4320003 26.358,30.38 C26.2679996,30.3279997 26.1510007,30.302 26.007,30.302 L25.419,30.302 L25.419,31.646 C25.419,31.7660006 25.3850003,31.8609996 25.317,31.931 C25.2489997,32.0010003 25.1570006,32.036 25.041,32.036 C24.9249994,32.036 24.8320004,32.0010003 24.762,31.931 C24.6919997,31.8609996 24.657,31.7660006 24.657,31.646 L24.657,28.136 C24.657,28.0199994 24.6899997,27.9300003 24.756,27.866 C24.8220003,27.8019997 24.9129994,27.77 25.029,27.77 L26.529,27.77 C27.0090024,27.77 27.3739988,27.8769989 27.624,28.091 C27.8740013,28.3050011 27.999,28.613998 27.999,29.018 C27.999,29.3460016 27.9060009,29.6149989 27.72,29.825 C27.5340054,30.0349939 27.2710197,30.1699905 26.9310349,30.2299938 L26.9369272,30.2314529 Z M26.421,29.708 C26.7130015,29.708 26.9269993,29.6530005 27.063,29.543 C27.1990007,29.4329994 27.267,29.2640011 27.267,29.036 C27.267,28.8039988 27.1990007,28.6350005 27.063,28.529 C26.9269993,28.4229995 26.7130015,28.37 26.421,28.37 L25.413,28.37 L25.413,29.708 L26.421,29.708 Z" id="Limited-offer" fill="#000000"></path>
                                    </g>
                                </g>
                            </g>
                        </g>
                    </g>
                </g>
            </g>
        </g>
    </g>
</svg>