<?xml version="1.0" encoding="UTF-8"?>
<svg width="75px" height="75px" viewBox="0 0 75 75" version="1.1" xmlns="http://www.w3.org/2000/svg" xmlns:xlink="http://www.w3.org/1999/xlink">
    <!-- Generator: Sketch 51.3 (57544) - http://www.bohemiancoding.com/sketch -->
    <title>24-hours</title>
    <desc>Created with Sketch.</desc>
    <defs></defs>
    <g id="Page-1" stroke="none" stroke-width="1" fill="none" fill-rule="evenodd">
        <g id="scrum" transform="translate(-563.000000, -559.000000)" fill-rule="nonzero">
            <g id="stickers">
                <g id="Bitmap">
                    <g id="Group-16" transform="translate(128.000000, -3.000000)">
                        <g id="Group-21" transform="translate(0.000000, 317.000000)">
                            <g id="Group-19" transform="translate(0.000000, 245.000000)">
                                <g id="24-hours" transform="translate(435.000000, 0.000000)">
                                    <circle id="Oval" fill="#DDDDDD" cx="42.9713379" cy="32.0285156" r="30.9298828"></circle>
                                    <circle id="Oval" fill="#F9F6F6" cx="42.9713379" cy="32.0285156" r="22.4983887"></circle>
                                    <path d="M23.934668,41.1194824 L8.50400391,25.6888184 L4.44272461,29.7500977 C-0.0162597656,34.209082 -0.0162597656,41.4383789 4.44272461,45.8973633 L29.1024902,70.5571289 C33.5614746,75.0161133 40.7907715,75.0161133 45.2497559,70.5571289 L49.3110352,66.4958496 L33.8803711,51.0651855 L32.7856934,52.1598633 C30.0392578,54.9062988 25.5864258,54.9062988 22.8401367,52.1598633 C20.0937012,49.4134277 20.0937012,44.9605957 22.8401367,42.2143066 L23.934668,41.1194824 Z" id="Shape" fill="#FDC730"></path>
                                    <path d="M23.934668,41.1194824 L8.50400391,25.6888184 L11.8101562,22.382666 C12.7675781,21.4252441 14.3197266,21.4252441 15.277002,22.382666 L27.2408203,34.3464844 C28.1982422,35.3039063 28.1982422,36.8560547 27.2408203,37.8133301 L23.934668,41.1194824 Z" id="Shape" fill="#FFE07D"></path>
                                    <path d="M49.3110352,66.4957031 L33.8803711,51.0650391 L37.1865234,47.7588867 C38.1439453,46.8014648 39.6960937,46.8014648 40.6533691,47.7588867 L52.6171875,59.7227051 C53.5746094,60.680127 53.5746094,62.2322754 52.6171875,63.1895508 L49.3110352,66.4957031 Z" id="Shape" fill="#FFE07D"></path>
                                    <g id="Group" fill="#000000">
                                        <path d="M65.6189941,9.38100586 C59.5694824,3.33164062 51.5264648,0 42.9714844,0 C35.6141602,0 28.6949707,2.42783203 22.9617187,7.02099609 C22.4882812,7.40039062 22.4118164,8.09194336 22.7912109,8.56538086 C23.1706055,9.03867188 23.8620117,9.1152832 24.3355957,8.73588867 C29.6748047,4.45825195 36.1189453,2.19726562 42.9714844,2.19726562 C59.4205078,2.19726562 72.8025879,15.5793457 72.8025879,32.0283691 C72.8025879,38.2979004 70.8799805,44.296582 67.2427734,49.3762207 C63.8825684,54.0691406 59.3192871,57.6404297 54.0004395,59.7544922 C53.8398926,59.4612305 53.6370117,59.188916 53.3939941,58.945752 L49.2316406,54.7833984 C54.7508789,53.2608398 59.6137207,49.7223633 62.765332,44.8768066 C63.0962402,44.3682129 62.9519531,43.687793 62.4433594,43.3568848 C61.9347656,43.0259766 61.2544922,43.1701172 60.9234375,43.6788574 C57.8311523,48.4331543 52.9242187,51.7995117 47.413623,52.9652344 L41.4303223,46.9819336 C40.0428223,45.5947266 37.7973633,45.5944336 36.4097168,46.9819336 L32.6282227,50.7634277 C29.1250488,48.8217773 26.1782227,45.8748047 24.2365723,42.3713379 L24.7103027,41.8974609 C24.7107422,41.8970215 24.7113281,41.896582 24.7117676,41.8961426 L28.0177734,38.5901367 C28.6882324,37.9195312 29.0575195,37.0280273 29.0575195,36.079834 C29.0575195,35.1314941 28.6882324,34.2399902 28.0177734,33.5693848 L22.0334473,27.5850586 C24.1108887,17.7314941 32.8413574,10.6289062 42.9714844,10.6289062 C54.7712402,10.6289062 64.3710937,20.2287598 64.3710937,32.0285156 C64.3710937,34.7707031 63.8591309,37.4416992 62.8494141,39.9672363 C62.6241211,40.5306152 62.8983398,41.1700195 63.4617187,41.395166 C63.595459,41.4486328 63.7334473,41.4739746 63.8692383,41.4739746 C64.3053223,41.4739746 64.7179687,41.2125 64.8896484,40.7828613 C66.0035156,37.996582 66.5683594,35.0512207 66.5683594,32.0283691 C66.5683594,19.017041 55.9828125,8.43149414 42.9714844,8.43149414 C32.2750488,8.43149414 22.9948242,15.6149414 20.2151367,25.766748 L16.0541016,21.6057129 C15.8116699,21.3632812 15.5400879,21.1609863 15.2477051,21.0005859 C16.6300781,17.5231934 18.6348633,14.3692383 21.2216309,11.6143066 C21.6369141,11.1719238 21.6150879,10.476709 21.1727051,10.0612793 C20.7301758,9.64570312 20.0349609,9.66782227 19.6196777,10.1102051 C16.7406738,13.176416 14.53125,16.7030273 13.0435547,20.6012695 C12.2850586,20.7076172 11.5845703,21.0546387 11.0333496,21.6057129 L3.66591797,28.9731445 C1.30195312,31.3372559 -1.77635684e-14,34.4803711 -1.77635684e-14,37.823584 C-1.77635684e-14,41.1669434 1.30195312,44.3100586 3.66577148,46.6741699 L22.1578125,65.1663574 C22.5868652,65.5951172 23.282373,65.5954102 23.7115723,65.1663574 C24.140625,64.7371582 24.140625,64.0416504 23.7115723,63.6125977 L5.21967773,45.1204102 C1.19619141,41.0970703 1.19619141,34.5503906 5.21967773,30.5270508 L8.50400391,27.2425781 L22.3809082,41.1196289 L22.0631836,41.4373535 C18.885791,44.6147461 18.8850586,49.7586914 22.0631836,52.9368164 C25.2338379,56.1071777 30.3918457,56.1071777 33.5625,52.9368164 L33.8802246,52.6189453 L47.7572754,66.4958496 L44.4726562,69.7801758 C40.4494629,73.8039551 33.9027832,73.8036621 29.8792969,69.7801758 L26.8177734,66.7186523 C26.3885742,66.2897461 25.6930664,66.2897461 25.2640137,66.7186523 C24.8349609,67.1478516 24.8349609,67.8433594 25.2640137,68.2724121 L28.3255371,71.3339355 C30.6896484,73.6979004 33.8327637,74.999707 37.176123,74.999707 C40.5193359,74.999707 43.6624512,73.6977539 46.0265625,71.3339355 C47.272998,70.0875 51.6824707,65.6780273 53.3939941,63.9665039 C53.9446289,63.4157227 54.2916504,62.7158203 54.3981445,61.9580566 C60.2866699,59.7112793 65.3354004,55.8143555 69.0292969,50.6554687 C72.9353027,45.2006836 74.9998535,38.7594727 74.9998535,32.0285156 C74.9998535,23.4735352 71.6683594,15.4303711 65.6189941,9.38100586 Z M12.5871094,23.1596191 C12.8425781,22.9041504 13.1821289,22.7633789 13.5436523,22.7633789 C13.9050293,22.7633789 14.2445801,22.9041504 14.5000488,23.1596191 L26.4638672,35.1234375 C26.7193359,35.3789063 26.8601074,35.718457 26.8601074,36.0799805 C26.8601074,36.4413574 26.7193359,36.7809082 26.4638672,37.0365234 L23.9348145,39.5657227 L10.0577637,25.6886719 L12.5871094,23.1596191 Z M23.6170898,51.3829102 C21.6285645,49.3943848 21.3676758,46.3864746 22.720166,44.1370605 C24.7155762,47.4578613 27.5399414,50.282666 30.8603027,52.2785156 C28.5815918,53.6421387 25.5780762,53.3441895 23.6170898,51.3829102 Z M51.8402344,62.4127441 L49.3110352,64.9420898 L35.4341309,51.0651855 L37.9634766,48.5359863 C38.4922852,48.0071777 39.3477539,48.0073242 39.8765625,48.5359863 L51.8403809,60.4998047 C52.0958496,60.7552734 52.2366211,61.0948242 52.2366211,61.4563477 C52.2364746,61.8175781 52.0957031,62.1572754 51.8402344,62.4127441 Z" id="Shape"></path>
                                        <path d="M48.4812012,24.5228027 C47.8743164,24.5228027 47.3825684,25.0145508 47.3825684,25.6214355 L47.3825684,38.4357422 C47.3825684,39.042627 47.8743164,39.534375 48.4812012,39.534375 C49.0880859,39.534375 49.579834,39.042627 49.579834,38.4357422 L49.579834,34.0371094 C49.579834,32.2482422 50.4569824,30.9990234 51.7130859,30.9990234 C52.4068359,30.9990234 52.678125,31.190918 52.8215332,31.3352051 C53.1021973,31.617334 53.4350098,32.3141602 53.4259277,34.0412109 L53.442041,38.4398437 C53.4443848,39.0452637 53.9356934,39.5345215 54.5405273,39.5345215 L54.5446289,39.5345215 C55.1515137,39.5321777 55.6415039,39.0385254 55.6393066,38.4319336 L55.6231934,34.0429688 C55.6387207,31.0426758 54.6897949,28.8019043 51.7130859,28.8019043 C50.9216309,28.8019043 50.1987305,29.0214844 49.579834,29.4165527 L49.579834,25.621582 C49.579834,25.0145508 49.0879395,24.5228027 48.4812012,24.5228027 Z" id="Shape"></path>
                                        <path d="M43.1878418,38.2592285 L43.1973633,38.2592285 C43.799707,38.2592285 44.2905762,37.7736328 44.2958496,37.1699707 C44.2989258,36.8100586 44.3049316,36.1041504 44.3112305,35.2297852 L44.5324219,35.2297852 C45.1393066,35.2297852 45.6310547,34.7380371 45.6310547,34.1311523 C45.6310547,33.5242676 45.1393066,33.0325195 44.5324219,33.0325195 L44.3258789,33.0325195 C44.3405273,30.5553223 44.3481445,27.8838867 44.3175293,27.5167969 C44.2514648,26.7219727 43.7755371,26.0743652 43.1052246,25.8666504 C42.4407715,25.6617188 41.7328125,25.9204102 41.2111816,26.5604004 C40.6305176,27.2726074 37.9368164,32.1290039 37.125,33.6004395 C36.9373535,33.9407227 36.9433594,34.3549805 37.1409668,34.6898438 C37.3385742,35.0244141 37.6983398,35.2299316 38.0869629,35.2299316 L42.1136719,35.2299316 C42.1086914,35.910498 42.1035645,36.5633789 42.0984375,37.1512207 C42.093457,37.7578125 42.5811035,38.2539551 43.1878418,38.2592285 Z M39.9539062,33.0325195 C40.7724609,31.5676758 41.5727051,30.1605469 42.1420898,29.1924316 C42.1425293,30.197168 42.1368164,31.588623 42.1284668,33.0325195 L39.9539062,33.0325195 Z" id="Shape"></path>
                                        <path d="M34.5632812,31.4178223 C32.9368652,33.7416504 31.9662598,35.0126953 31.4446289,35.695459 C30.796582,36.544043 30.5283691,36.895166 30.716748,37.5083496 C30.8270508,37.8667969 31.0986328,38.142041 31.4625,38.2634766 C31.9297852,38.4188965 35.6818359,38.353125 37.054248,38.3356934 C37.6609863,38.3280762 38.146582,37.8301758 38.1388184,37.223291 C38.1312012,36.6213867 37.640918,36.1385742 37.040625,36.1385742 C37.0359375,36.1385742 37.03125,36.1385742 37.026416,36.1387207 C35.938916,36.1523438 34.7827148,36.1609863 33.847998,36.1621582 C34.4228027,35.3958984 35.2395996,34.2834961 36.3634277,32.6777344 C37.0145508,31.7472656 37.438916,30.8690918 37.6248047,30.0676758 C38.1030762,27.989502 36.4057617,25.6974609 33.9788086,25.6974609 C32.202832,25.6974609 30.665625,26.9608887 30.3237305,28.701709 C30.2068359,29.2970215 30.5947266,29.8744629 31.1900391,29.9915039 C31.7859375,30.1081055 32.3629395,29.7205078 32.479834,29.1251953 C32.619873,28.4122559 33.2503418,27.894873 33.9788086,27.894873 C34.8008789,27.894873 35.4733887,28.5476074 35.5053223,29.362207 C35.4931641,29.3980957 35.5249512,30.0439453 34.5632813,31.4178223 Z" id="Shape"></path>
                                        <path d="M44.0701172,15.4366699 L44.0701172,13.425293 C44.0701172,12.8184082 43.5783691,12.3266602 42.9714844,12.3266602 C42.3645996,12.3266602 41.8728516,12.8184082 41.8728516,13.425293 L41.8728516,15.4366699 C41.8728516,16.0435547 42.3645996,16.5353027 42.9714844,16.5353027 C43.5783691,16.5353027 44.0701172,16.0435547 44.0701172,15.4366699 Z" id="Shape"></path>
                                        <path d="M59.5633301,30.9300293 C58.9564453,30.9300293 58.4646973,31.4217773 58.4646973,32.0286621 C58.4646973,32.6355469 58.9564453,33.1272949 59.5633301,33.1272949 L61.574707,33.1272949 C62.1815918,33.1272949 62.6733398,32.6355469 62.6733398,32.0286621 C62.6733398,31.4217773 62.1815918,30.9300293 61.574707,30.9300293 L59.5633301,30.9300293 Z" id="Shape"></path>
                                    </g>
                                </g>
                            </g>
                        </g>
                    </g>
                </g>
            </g>
        </g>
    </g>
</svg>