<?xml version="1.0" encoding="UTF-8"?>
<svg width="52px" height="46px" viewBox="0 0 52 46" version="1.1" xmlns="http://www.w3.org/2000/svg" xmlns:xlink="http://www.w3.org/1999/xlink">
    <!-- Generator: Sketch 51.3 (57544) - http://www.bohemiancoding.com/sketch -->
    <title>web-programming</title>
    <desc>Created with Sketch.</desc>
    <defs></defs>
    <g id="Page-1" stroke="none" stroke-width="1" fill="none" fill-rule="evenodd">
        <g id="Artboard" transform="translate(-926.000000, -1030.000000)" fill="#0296D7" fill-rule="nonzero">
            <g id="Group-3" transform="translate(927.000000, 1031.000000)">
                <g id="Group-5">
                    <g id="web-programming">
                        <path d="M19.7274837,31.9302499 C19.5386203,31.9302499 19.3483749,31.865625 19.1931382,31.7340834 L13.8515257,27.2085 C13.6672686,27.0522084 13.5613208,26.8239583 13.5613208,26.582875 C13.5613208,26.3422499 13.6677292,26.114 13.8515257,25.9577084 L19.1931382,21.432125 C19.5400022,21.137875 20.0609892,21.1795833 20.3567217,21.5247084 C20.6519936,21.8702916 20.6105358,22.3886667 20.2632112,22.6824583 L15.6600088,26.582875 L20.2632112,30.4832916 C20.6105358,30.7775417 20.6519936,31.2959166 20.3567217,31.6410417 C20.1931935,31.8321667 19.9610296,31.9302499 19.7274837,31.9302499 Z" id="Shape" stroke="#FF9E22" stroke-width="0.9375"></path>
                        <path d="M30.2725163,31.9302499 C30.0389704,31.9302499 29.8068065,31.8321667 29.6437389,31.6410417 C29.3480064,31.2959166 29.3899248,30.7775417 29.7367888,30.4832916 L34.3399912,26.582875 L29.7367888,22.6824583 C29.3899248,22.3886667 29.3480064,21.8702916 29.6437389,21.5247084 C29.9390108,21.1795833 30.4604585,21.137875 30.8068618,21.432125 L36.1484743,25.9577084 C36.3327314,26.114 36.4386792,26.3422499 36.4386792,26.582875 C36.4386792,26.8239583 36.3327314,27.0522084 36.1484743,27.2085 L30.8068618,31.7340834 C30.6516251,31.865625 30.4613797,31.9302499 30.2725163,31.9302499 Z" id="Shape" stroke="#FF9E22" stroke-width="0.9375"></path>
                        <path d="M23.1090618,35.3246667 C23.0524027,35.3246667 22.995283,35.3187084 22.9377027,35.3067916 C22.4918006,35.2132916 22.2062021,34.7774167 22.3001732,34.3337501 L25.629238,18.6069583 C25.723209,18.1632916 26.1608196,17.879125 26.6071823,17.972625 C27.0530844,18.066125 27.3386829,18.5015417 27.2447118,18.9456667 L23.9156472,34.6724583 C23.8336527,35.0592916 23.4909346,35.3246667 23.1090618,35.3246667 Z" id="Shape" stroke="#FF9E22" stroke-width="0.9375"></path>
                        <path d="M44.4575472,43.8927501 L5.54245283,43.8927501 C2.48654929,43.8927501 0,41.419125 0,38.3780834 L0,5.51466667 C0,2.47408339 2.48654929,0 5.54245283,0 L44.4575472,0 C47.5134507,0 50,2.47408339 50,5.51466667 L50,38.3780834 C50,41.419125 47.5134507,43.8927501 44.4575472,43.8927501 Z M5.54245283,1.64266667 C3.39677925,1.64266667 1.6509434,3.37975006 1.6509434,5.51466667 L1.6509434,38.3780834 C1.6509434,40.513 3.39677925,42.2500834 5.54245283,42.2500834 L44.4575472,42.2500834 C46.6032208,42.2500834 48.3490566,40.513 48.3490566,38.3780834 L48.3490566,5.51466667 C48.3490566,3.37975006 46.6032208,1.64266667 44.4575472,1.64266667 L5.54245283,1.64266667 Z" id="Shape" stroke="#FF9E22" stroke-width="0.9375"></path>
                        <path d="M49.1745283,14.0234941 L0.825471698,14.0234941 C0.369435377,14.0234941 0,13.4608664 0,12.7663512 C0,12.0725373 0.369435377,11.5092084 0.825471698,11.5092084 L49.1745283,11.5092084 C49.6305646,11.5092084 50,12.0725373 50,12.7663512 C50,13.4608664 49.6305646,14.0234941 49.1745283,14.0234941 Z" id="Shape"></path>
                        <path d="M14.1039578,9.22166667 C12.6639888,9.22166667 11.4916532,8.05520836 11.4916532,6.6224583 C11.4916532,5.18924994 12.6639888,4.02324994 14.1039578,4.02324994 C15.5443875,4.02324994 16.7162625,5.18924994 16.7162625,6.6224583 C16.7162625,8.05520836 15.5443875,9.22166667 14.1039578,9.22166667 Z M14.1039578,5.66591661 C13.5742188,5.66591661 13.1425966,6.09491661 13.1425966,6.6224583 C13.1425966,7.15 13.5742188,7.579 14.1039578,7.579 C14.6341575,7.579 15.0653191,7.15 15.0653191,6.6224583 C15.0653191,6.09491661 14.6341575,5.66591661 14.1039578,5.66591661 Z" id="Shape"></path>
                        <path d="M6.07771958,9.1964583 C4.63728998,9.1964583 3.46541498,8.0304583 3.46541498,6.59724994 C3.46541498,5.1640417 4.63728998,3.9980417 6.07771958,3.9980417 C7.51814929,3.9980417 8.69002429,5.1640417 8.69002429,6.59724994 C8.69002429,8.0304583 7.51814929,9.1964583 6.07771958,9.1964583 Z M6.07771958,5.64070836 C5.54798054,5.64070836 5.11635837,6.07016667 5.11635837,6.59724994 C5.11635837,7.12479164 5.54798054,7.55379164 6.07771958,7.55379164 C6.60791934,7.55379164 7.0390809,7.12479164 7.0390809,6.59724994 C7.0390809,6.07016667 6.60791934,5.64070836 6.07771958,5.64070836 Z" id="Shape"></path>
                        <path d="M22.130196,9.24641673 C20.690227,9.24641673 19.518352,8.08041673 19.518352,6.64720836 C19.518352,5.2144583 20.690227,4.0484583 22.130196,4.0484583 C23.5706257,4.0484583 24.7425007,5.2144583 24.7425007,6.64720836 C24.7425007,8.08041673 23.5706257,9.24641673 22.130196,9.24641673 Z M22.130196,5.69066667 C21.600457,5.69066667 21.1692954,6.11966667 21.1692954,6.64720836 C21.1692954,7.17475006 21.600457,7.60375006 22.130196,7.60375006 C22.6603958,7.60375006 23.0915573,7.17475006 23.0915573,6.64720836 C23.0915573,6.11966667 22.6603958,5.69066667 22.130196,5.69066667 Z" id="Shape"></path>
                    </g>
                </g>
            </g>
        </g>
    </g>
</svg>
