<?xml version="1.0" encoding="UTF-8"?>
<svg width="50px" height="50px" viewBox="0 0 50 50" version="1.1" xmlns="http://www.w3.org/2000/svg" xmlns:xlink="http://www.w3.org/1999/xlink">
    <!-- Generator: Sketch 51.3 (57544) - http://www.bohemiancoding.com/sketch -->
    <title>atomic</title>
    <desc>Created with Sketch.</desc>
    <defs></defs>
    <g id="Page-1" stroke="none" stroke-width="1" fill="none" fill-rule="evenodd">
        <g id="Artboard" transform="translate(-127.000000, -1027.000000)" fill="#FF9E22" fill-rule="nonzero">
            <g id="Group-3" transform="translate(127.000000, 1027.000000)">
                <g id="Group-5">
                    <g id="atomic">
                        <path d="M26.2575049,19.6120079 C22.7154971,19.6120079 19.8337232,22.5221457 19.8337232,26.0990157 C19.8337232,29.6760827 22.7154971,32.586122 26.2575049,32.586122 C29.7998051,32.586122 32.6815789,29.6759843 32.6815789,26.0990157 C32.6814815,22.5221457 29.7998051,19.6120079 26.2575049,19.6120079 Z M26.2575049,30.1314961 C24.055653,30.1314961 22.264425,28.3225394 22.264425,26.0990157 C22.264425,23.8754921 24.0557505,22.0666339 26.2575049,22.0666339 C28.4593567,22.0666339 30.2507797,23.8755906 30.2507797,26.0990157 C30.2507797,28.3224409 28.4594542,30.1314961 26.2575049,30.1314961 Z" id="Shape"></path>
                        <path d="M49.7366472,14.8830709 C50.2097466,11.3722441 49.6666667,8.38602362 48.1658869,6.18021654 C48.411501,5.63267717 48.5494152,5.0257874 48.5494152,4.38661417 C48.5494152,1.98080709 46.611306,0.023523622 44.2288499,0.023523622 C42.6189084,0.023523622 41.2126706,0.918110236 40.4694932,2.24015748 C36.3992203,2.03474409 31.415692,3.54507874 26.2573099,6.55442913 C17.4500975,1.41437008 9.47612086,0.796948819 5.33966862,4.97559055 C3.54191033,6.79104331 2.61081871,9.3886811 2.61510721,12.5269685 C1.07846004,13.1963583 0,14.7406496 0,16.5350394 C0,18.9408465 1.93820663,20.8981299 4.3205653,20.8981299 C4.34561404,20.8981299 4.3702729,20.8966535 4.39522417,20.8961614 C5.05974659,22.6028543 5.9002924,24.3466535 6.90302144,26.0991142 C1.81306043,34.9929134 1.20175439,43.045374 5.33947368,47.2225394 C7.16491228,49.066437 9.73674464,49.9766732 12.7982456,49.9765748 C16.6748538,49.9764764 21.3363548,48.5156496 26.2572125,45.6438976 C31.17846,48.5159449 35.8394737,49.9765748 39.7164717,49.9765748 C42.7778752,49.9765748 45.3504873,49.066437 47.1761209,47.2228346 C51.3135478,43.0445866 50.7011696,34.9917323 45.6098441,26.0984252 C47.8492203,22.1836614 49.2736842,18.3188976 49.7366472,14.8830709 Z M44.2288499,2.47814961 C45.2708577,2.47814961 46.1187135,3.33435039 46.1187135,4.38661417 C46.1187135,5.43887795 45.2708577,6.29507874 44.2288499,6.29507874 C43.1868421,6.29507874 42.3389864,5.43887795 42.3389864,4.38661417 C42.3389864,3.33435039 43.1867446,2.47814961 44.2288499,2.47814961 Z M39.9188109,4.67627953 C40.0670565,6.94744094 41.942885,8.74980315 44.2288499,8.74980315 C45.0564327,8.74980315 45.830117,8.51318898 46.4878168,8.10413386 C47.3875244,9.75374016 47.6783626,11.9533465 47.3281676,14.5522638 C46.9523392,17.3419291 45.8580897,20.4767717 44.1451267,23.7081693 C42.1923002,20.7172244 39.8454191,17.8298228 37.1459064,15.1035433 C34.4464912,12.3775591 31.5863548,10.0069882 28.6230019,8.03326772 C32.7723197,5.78641732 36.6908382,4.62106299 39.9188109,4.67627953 Z M4.3205653,18.4435039 C3.2785575,18.4435039 2.43070175,17.5874016 2.43070175,16.5350394 C2.43070175,15.4827756 3.2785575,14.6265748 4.3205653,14.6265748 C5.3625731,14.6265748 6.21042885,15.4827756 6.21042885,16.5350394 C6.21052632,17.5873031 5.36267057,18.4435039 4.3205653,18.4435039 Z M6.72280702,20.1596457 C7.8788499,19.3757874 8.64122807,18.0437008 8.64122807,16.5350394 C8.64122807,14.3792323 7.08430799,12.5845472 5.04658869,12.2347441 C5.09580897,9.89606299 5.78167641,8.00068898 7.05847953,6.71122047 C10.1662768,3.57194882 16.6504873,4.12391732 23.8896686,8.03454724 C20.9269006,10.0079724 18.0676413,12.3781496 15.3688109,15.1035433 C12.6695906,17.8293307 10.3224172,20.7170276 8.36822612,23.7090551 C7.7334308,22.5116142 7.18401559,21.3251969 6.72280702,20.1596457 Z M7.05818713,45.4869094 C3.94951267,42.348622 4.49610136,35.8004921 8.36861598,28.4902559 C10.3227096,31.4820866 12.6697856,34.3694882 15.3687135,37.0949803 C18.0676413,39.820374 20.9269006,42.1905512 23.8895712,44.1639764 C16.6503899,48.074311 10.1662768,48.6262795 7.05818713,45.4869094 Z M17.0876218,35.3591535 C14.1920078,32.4351378 11.7219298,29.3229331 9.73664717,26.0991142 C11.7217349,22.8753937 14.1919103,19.7632874 17.0876218,16.8390748 C19.9832359,13.9149606 23.0650097,11.4204724 26.2574074,9.41574803 C29.4497076,11.4205709 32.5315789,13.9149606 35.427193,16.8390748 C38.3236842,19.7641732 40.7934698,22.8761811 42.7769981,26.0991142 C40.7935673,29.3218504 38.3237817,32.4340551 35.427193,35.3591535 C32.5315789,38.2832677 29.4497076,40.7777559 26.2574074,42.7824803 C23.0651072,40.7777559 19.9831384,38.2832677 17.0876218,35.3591535 Z M45.4573099,45.4870079 C42.348538,48.6260827 35.8640351,48.074311 28.6249513,44.163878 C31.5876218,42.1905512 34.4468811,39.820374 37.145809,37.0948819 C39.8455166,34.3686024 42.1922027,31.4812008 44.1449318,28.4904528 C48.0183236,35.8002953 48.5655945,42.3483268 45.4573099,45.4870079 Z" id="Shape"></path>
                    </g>
                </g>
            </g>
        </g>
    </g>
</svg>