<?xml version="1.0" encoding="UTF-8"?>
<svg width="50px" height="50px" viewBox="0 0 50 50" version="1.1" xmlns="http://www.w3.org/2000/svg" xmlns:xlink="http://www.w3.org/1999/xlink">
    <!-- Generator: Sketch 51.3 (57544) - http://www.bohemiancoding.com/sketch -->
    <title>icon2</title>
    <desc>Created with Sketch.</desc>
    <defs></defs>
    <g id="Page-1" stroke="none" stroke-width="1" fill="none" fill-rule="evenodd">
        <g id="icon2" fill="#0296D7" fill-rule="nonzero">
            <path d="M49.7837066,1.50718691 C49.7081757,0.826263477 49.1706848,0.288391113 48.4893799,0.212860156 C36.8972778,-1.0746002 27.015686,3.5625458 18.9552307,11.8598937 C16.6484833,14.2345429 14.6476746,16.7480469 12.9398346,19.1738129 C10.0494385,19.0563202 6.84471133,20.3639984 4.57267764,22.6360321 L0.429153418,26.7795562 C-0.0396728516,27.2483826 -0.135040234,27.973938 0.196456934,28.5480499 C0.527954102,29.1221619 1.20353701,29.4017792 1.84440615,29.2304992 C2.80570986,28.9722442 4.36782832,28.6720275 5.86853027,28.6022187 C6.41708379,28.5766602 6.87294004,28.584671 7.25173945,28.6136627 C6.33735654,30.3722382 5.63659668,31.8454742 5.40428164,32.2143555 C5.04035947,32.7934266 5.12466426,33.5468292 5.60836797,34.0305328 L8.00590518,36.4280701 C4.51660156,41.1869049 4.45899961,43.624115 4.47120664,43.9693451 C4.49676514,44.7006226 5.0670624,45.3857422 6.01158145,45.3857422 C6.82945254,45.3857422 9.17510986,45.0386047 13.445282,41.8674469 L15.9671783,44.3893433 C16.4543152,44.8764801 17.2153473,44.9581146 17.7951813,44.5858002 C18.189621,44.3321229 19.5762635,43.6607361 21.2390899,42.791748 C21.2665558,44.0311432 21.0983276,45.8511353 20.7332611,48.3181 C20.5257416,49.717331 22.226715,50.5596161 23.2181549,49.5685577 L27.3616791,45.4250336 C29.498291,43.2884217 30.7373047,40.114975 30.645752,37.1379853 C33.2012177,35.3523254 35.8596802,33.2458496 38.3419037,30.8116913 C46.5602875,22.7523804 51.0547638,12.9455566 49.7837066,1.50718691 Z M46.9814301,3.01475527 C47.215271,6.17332461 46.9657898,9.23500059 46.2390899,12.197876 C44.4343566,11.6294861 42.6700592,10.5129242 41.0766602,8.91990664 C39.4775391,7.3204041 38.3586884,5.54885859 37.7925873,3.73764043 C40.7543183,3.02162168 43.8179016,2.77900693 46.9814301,3.01475527 Z M5.67741396,25.6748199 L6.6440582,24.7077941 C7.81326289,23.5389709 9.33380127,22.6970673 10.8459473,22.3186493 C10.0559234,23.5725402 9.35173037,24.7699737 8.73069766,25.8750916 C7.77130127,25.6633759 6.70471191,25.6240845 5.67741396,25.6748199 Z M8.44955449,32.7285767 C8.76655576,32.1029663 9.14993281,31.3186646 9.85374453,29.9888611 L11.782074,31.9175721 C11.0645294,32.6873779 10.4167938,33.4186554 9.83314512,34.1117859 L8.44955449,32.7285767 Z M15.6131744,32.1681977 C16.6805268,31.1012268 17.70401,30.9062958 18.9754486,30.87883 C18.9476014,32.1178437 18.7488556,33.1760406 17.6849365,34.2399598 C13.1370545,38.7878418 10.0196838,40.8187866 8.15544131,41.7251587 C9.07516484,39.825058 11.1114502,36.6699219 15.6131744,32.1681977 Z M17.2607422,41.5397645 L15.7501221,40.0287628 C16.4398193,39.4428253 17.168808,38.7931824 17.937851,38.0729676 L19.9905396,40.1256562 C18.6408996,40.8462524 18.0778504,41.1174774 17.2607422,41.5397645 Z M25.2895355,43.3532715 L24.1168976,44.5262909 C24.2118836,43.1053162 24.1790771,42.0700073 24.0447998,41.2712098 C25.1220703,40.6646729 26.292038,39.9768829 27.5180816,39.2074585 C27.1686554,40.7562256 26.3832092,42.2599793 25.2895355,43.3532715 Z M22.6573944,38.6493683 L20.0309754,36.0225678 C21.9745636,33.8840484 21.9020844,31.823349 21.9020844,29.4158936 C21.9020844,28.6067963 21.2463379,27.9510498 20.4372406,27.9510498 C18.1880951,27.9510498 16.0236358,27.8305054 13.8305664,29.8225402 L11.3224029,27.3143769 C18.1713104,15.3045654 26.0879517,7.70111084 34.9826812,4.57000732 C35.6868744,6.84852598 37.0574951,9.04388428 39.0052795,10.9916688 C40.9439087,12.9306793 43.1289673,14.2978668 45.3975678,15.0047303 C42.2481537,23.8506317 34.6466064,31.7623139 22.6573944,38.6493683 Z" id="Shape"></path>
            <path d="M36.9335175,13.0630493 C34.0774536,10.207367 29.4303895,10.207367 26.574707,13.0630493 C23.7190246,15.9191132 23.7190246,20.5661773 26.574707,23.4218598 C29.4303895,26.2775421 34.0774536,26.2779236 36.9335175,23.4218598 C39.7891998,20.5661773 39.7891998,15.9191132 36.9335175,13.0630493 Z M34.8617554,21.3500977 C33.1481934,23.0636597 30.3596496,23.0636597 28.6464691,21.3500977 C26.9329071,19.6365356 26.9329071,16.8483734 28.6464691,15.1348114 C30.3596496,13.4216309 33.1478119,13.4212494 34.8617554,15.1348114 C36.5753174,16.8483734 36.5753174,19.6365356 34.8617554,21.3500977 Z" id="Shape"></path>
        </g>
    </g>
</svg>