<?xml version="1.0" encoding="UTF-8"?>
<svg width="487px" height="319px" viewBox="0 0 487 319" version="1.1" xmlns="http://www.w3.org/2000/svg" xmlns:xlink="http://www.w3.org/1999/xlink">
    <!-- Generator: Sketch 51.3 (57544) - http://www.bohemiancoding.com/sketch -->
    <title>join the revolution</title>
    <desc>Created with Sketch.</desc>
    <defs></defs>
    <g id="Page-1" stroke="none" stroke-width="1" fill="none" fill-rule="evenodd">
        <g id="feedback" transform="translate(-824.000000, -177.000000)">
            <g id="stickers">
                <g id="join-the-revolution" transform="translate(825.000000, 178.000000)">
                    <path d="M132,295.040199 C127.077582,296.505592 121.70999,298.244761 116,300 L116.530761,296.465344 C121.145005,295.458897 126.349889,294.83085 132,295.040199 Z" id="XMLID_125_" fill="#455AA5" fill-rule="nonzero"></path>
                    <path d="M116,298 L115.525363,301.502662 C113.083259,302.340416 110.572235,303.17817 108,304 L108.497626,300.377638 C110.725354,299.5 113.243994,298.662246 116,298 Z" id="XMLID_174_" fill="#3B4E88" fill-rule="nonzero"></path>
                    <path d="M432.296227,215.724926 C419.571529,237.717026 427.896116,250.129527 394.436527,283.666314 C388.176134,289.944898 378.687813,295.270638 367.373272,299.69458 L367.662054,293.654233 C367.780988,292.012228 367.874415,290.336264 367.950888,288.626236 C368.13774,284.432015 368.197208,280.407956 368.154746,276.579554 C359.7962,280.680204 351.548137,282.713472 344.310863,283.666314 C343.622815,279.71033 342.849845,274.588762 342.212762,268.556931 C340.709231,268.795116 339.061308,268.956761 337.285949,268.973793 C335.638027,268.999289 333.896678,268.905718 332.061903,268.63347 C330.949134,268.471824 329.904283,268.259135 328.918952,268.012435 C328.842479,268.63347 328.757555,269.263021 328.664129,269.909604 C327.840142,275.584132 326.735876,280.178235 325.903438,283.240936 C323.3296,282.560342 320.653884,281.760629 317.910146,280.833334 C312.660592,279.055231 307.861268,277.013448 303.51207,274.886558 C303.631004,279.259404 303.732933,283.649334 303.817909,288.06476 C303.877376,290.982847 303.936792,293.892418 303.979305,296.801989 L304.59088,314.234023 C277.884376,317.483865 252.56247,318.155996 239.61696,314.701929 C221.472861,309.861125 209.631618,303.446391 197.628978,298.486521 C184.496564,293.041662 171.168794,289.332378 149.151235,291.306138 C144.360362,291.731516 138.541695,293.322426 131.916047,295.423768 C126.309689,295.202563 121.14511,295.866178 116.566598,296.929623 C113.50857,297.635765 110.71392,298.529049 108.242063,299.464859 L107.689904,303.327325 C84.3981859,310.448149 56.5534054,316.131193 29.6600494,305.215978 C-4.58101312,291.323118 -13.1009556,236.236667 25.1325014,174.157 C59.9596819,117.607221 13.2402934,91.9654743 38.698088,31.400152 C52.3146911,-0.988135426 116.566598,-9.01075837 162.317615,10.5566298 C198.673783,26.1084227 203.897881,42.825799 240.041688,46.2883822 C272.481935,49.3936104 279.532305,24.6791588 328.808527,16.5119219 C416.301199,2.00654231 478.871179,53.9281545 484.681395,123.519986 C489.115459,176.590149 446.031713,192.005844 432.296227,215.724926 Z" id="XMLID_670_" stroke-opacity="0.1" stroke="#000000" fill="#FFFFFF" fill-rule="nonzero"></path>
                    <g id="XMLID_16_" transform="translate(108.000000, 68.000000)">
                        <path d="M11.3369236,155.801137 C11.524061,190.762441 11.6346611,196.464508 11.0561656,206.013299 C10.7158496,211.647319 10.0948276,219.349339 8.83575208,228.642825 C5.77306454,229.349214 2.97415559,230.242809 0.498531128,231.178947 C1.90221751,220.225897 2.8975663,210.898388 3.61220892,203.672903 C5.62845356,183.128519 5.58592704,176.490263 5.52636918,173.460516 C5.26264247,159.571349 3.56116669,159.452189 3.39952445,147.290606 C3.25491356,135.954624 3.10178695,124.38027 8.5039518,110.908084 C14.6207593,95.657226 24.3957294,86.602008 27.2201854,84.0999097 C30.2573259,81.4106046 33.1838663,79.3169952 35.7020172,77.7085442 C36.4506708,77.9808355 37.1738291,78.2531787 37.8714404,78.5255219 C38.3988937,78.7297664 38.9178314,78.9255439 39.4197896,79.1297884 C18.9680174,99.2401785 12.96181,116.84847 11.3369234,129.41849 C11.2092922,130.439764 11.2518186,138.907753 11.3369236,155.801137 Z" id="XMLID_121_" fill="#383F6F" fill-rule="nonzero"></path>
                        <path d="M89.3598408,203.09492 C79.3381754,195.265221 67.9382669,184.363232 57.848528,169.563405 C52.3782896,161.537981 48.2352002,153.759342 45.0874597,146.721116 C51.433983,153.291273 58.0016546,159.91244 64.799042,166.584719 C72.7789676,174.4059 80.6908196,181.920714 88.5261342,189.129109 C88.8154079,193.750321 89.0961141,198.405609 89.3598408,203.09492 Z" id="XMLID_59_" fill="#383F6F" fill-rule="nonzero"></path>
                        <path d="M144.052035,184.030634 C135.008687,187.196526 124.41699,190.175212 112.438585,192.251784 C106.083598,193.358143 100.06036,194.07305 94.4284789,194.524082 C92.4632764,192.74541 90.498074,190.9497 88.5243559,189.128434 C80.6890412,181.919987 72.7771892,174.405225 64.7972637,166.584018 C57.9998762,159.911739 51.4322047,153.290572 45.0856813,146.720415 C48.2334218,153.758641 52.3765112,161.537279 57.8467496,169.56273 C67.9364886,184.362505 79.3363971,195.264546 89.3580624,203.094193 C89.4942096,205.519726 89.6217891,207.962244 89.7494205,210.413281 C90.0897365,216.974868 90.387474,223.476926 90.642685,229.910886 C90.4385162,230.004489 90.2258317,230.106612 90.0216629,230.200267 C76.8692364,224.753506 63.5211568,221.042927 41.4700452,223.017376 C36.6718711,223.442903 30.8443373,225.034368 24.2085921,227.136444 C18.5936909,226.915162 13.4212419,227.579009 8.83575225,228.642825 C10.0948277,219.349339 10.7158497,211.647319 11.0561657,206.013299 C11.6346613,196.464508 11.5240612,190.762441 11.3369238,155.801137 C11.2518188,138.907753 11.2092923,130.439764 11.3369238,129.41849 C12.9618103,116.84847 18.9680177,99.2401783 39.4197899,79.1297882 C42.0315095,80.1425435 44.2689544,81.0616955 46.0810302,81.8276122 C54.2055667,85.2828859 60.3649527,87.9296487 67.4175511,92.610441 C70.5907868,94.7125693 73.126021,96.6955376 74.9380969,98.1933476 C75.5335719,99.2061029 76.009983,100.184835 76.375846,101.086949 C76.3843097,101.095468 76.3843097,101.095468 76.3843097,101.095468 C76.6990786,101.452896 76.996868,101.810323 77.3116369,102.184789 C82.5521594,108.431542 85.2405203,114.159113 85.9211002,115.588876 C89.1113673,122.278193 95.5769545,133.639732 109.639677,154.422435 C110.839194,154.379893 112.659786,154.379893 114.846188,154.626732 C118.215129,155.018183 119.423163,155.656473 121.652092,155.903312 C125.233717,156.3118 126.994751,155.239465 130.261555,154.626732 C133.213642,154.082045 137.526838,153.903306 143.243823,155.699015 C143.260855,156.260739 143.269319,156.813893 143.28635,157.375617 C143.371455,160.813853 143.465024,164.260608 143.558592,167.715907 C143.694687,172.669043 143.847866,177.605193 144.000993,182.524253 C144.017972,183.026397 144.035003,183.528489 144.052035,184.030634 Z" id="XMLID_99_" fill="#404778" fill-rule="nonzero"></path>
                        <path d="M46.5762509,93.2494841 C50.4556136,91.9303362 60.247615,89.2325122 68.5848359,93.9983891 C71.7240608,95.7856059 73.9700083,98.2366432 76.3775982,101.087676" id="XMLID_55_" stroke="#383F6F" stroke-width="0.847902098" stroke-linecap="round"></path>
                        <path d="M75.6459501,98.7813296 C75.4247499,98.5940709 75.1865703,98.3983453 74.939875,98.1941009 C73.1277991,96.696239 70.5925649,94.7132706 67.4193291,92.6111943 C60.3667307,87.9304019 54.2073447,85.2836391 46.0828083,81.8283135 C44.2707324,81.0623968 42.0332876,80.1432449 39.4215679,79.1304896 C38.9196097,78.9262452 38.4006721,78.7305195 37.8732188,78.5262751 C38.8855989,77.2071012 39.9490213,75.8709415 41.0464545,74.5263149 C42.7649616,72.4156678 44.4749531,70.4157137 46.1764289,68.509363 C51.6381516,72.2710033 57.0998743,76.0326437 62.561597,79.7943361 C65.1989156,81.6155503 67.8446981,83.4368166 70.4819648,85.2580827 L70.9668916,85.5900059 C72.5237566,89.9899361 74.0806214,94.3813475 75.6459501,98.7813296 Z" id="XMLID_80_" fill="#383F6F" fill-rule="nonzero"></path>
                        <path d="M46.176429,68.5093629 C44.4749532,70.4157136 42.7649617,72.4156677 41.0464546,74.5263149 C39.9490214,75.8709415 38.8855991,77.2071011 37.8732188,78.526275 C37.1756076,78.2539318 36.4524492,77.9815886 35.7037957,77.7092453 C35.269963,77.5475432 34.8360784,77.3858409 34.3851624,77.2241388 C37.3797763,73.6752617 40.3828541,70.1263326 43.3859838,66.5859744 C44.0921108,67.0710809 44.7897221,67.5561874 45.4957972,68.041294 C45.725513,68.1944774 45.9467132,68.3476607 46.176429,68.5093629 Z" id="XMLID_79_" fill="#383F6F" fill-rule="nonzero"></path>
                        <path d="M73.0597256,53.777635 C72.9406099,57.386092 72.736441,58.3137628 72.5918301,61.5902967 C71.0264495,63.0881586 69.7758898,64.1604938 68.695436,65.3093948 C66.2367911,67.9391719 63.5484822,72.2710033 62.5615971,79.794336 C57.0998744,76.0326437 51.6381517,72.2710033 46.176429,68.5093629 C45.9467132,68.3476607 45.725513,68.1944774 45.4957972,68.041294 C46.0317662,67.3093488 46.6017979,66.4242723 47.1122199,65.3774935 C47.1547464,65.2923571 47.197273,65.1987536 47.2313356,65.1136691 C48.2692109,65.9306468 49.5453178,66.6455544 51.093667,67.0285387 C54.9219875,67.981714 58.0612123,66.3732111 60.9281949,64.9009058 C62.4169862,64.1349372 66.0496536,62.0413277 68.4317093,57.9307785 C69.0272362,56.9009854 70.5670698,54.2286661 69.5972161,52.9265818 C69.5632053,52.8755206 69.5206268,52.8329784 69.4781004,52.798903 C69.9630272,51.6414832 69.8949536,50.8670477 69.656774,50.3223613 C69.0187206,48.8840794 67.2066447,49.2074837 65.8284535,47.2926141 C64.7565154,45.8032711 64.4077358,43.6245771 65.1308422,41.7097075 C65.249958,41.394822 66.4750227,38.3224806 69.3845317,38.0331517 C70.4904806,37.9310295 71.4347871,38.2629526 72.1069033,38.6288993 C72.5662831,39.7778003 72.5833145,41.2075633 72.6343566,43.1394706 C72.8470411,51.8967888 73.187357,49.4287659 73.0597256,53.777635 Z" id="XMLID_78_" fill="#C48D79" fill-rule="nonzero"></path>
                        <path d="M65.1308422,41.7097076 C64.4077358,43.6245772 64.7565155,45.8032712 65.8284535,47.2926142 C67.2066447,49.2074838 69.0187206,48.8840794 69.656774,50.3223614 C69.8949537,50.8670478 69.9630272,51.6414834 69.4781004,52.7989031 C68.7720253,52.0670098 67.5299293,52.6542386 65.9305379,51.7606432 C64.0163776,50.6883079 63.3698085,48.4755905 62.901913,46.8670876 C62.5275863,45.5905079 61.7789328,43.0288296 62.901913,40.2203646 C63.2932712,39.2501516 64.4417466,36.3650689 67.1045603,35.9055189 C68.6188467,35.6502133 70.2267538,36.2544278 71.2476496,37.2927397 C71.6390078,37.6927097 71.9197138,38.135274 72.1069032,38.6288994 C71.434787,38.2629527 70.4904805,37.9310296 69.3845316,38.0331518 C66.4750227,38.3224807 65.249958,41.3948221 65.1308422,41.7097076 Z" id="XMLID_77_" fill="#E8B49E" fill-rule="nonzero"></path>
                        <path d="M81.7712733,23.9907748 C80.197429,29.9736515 76.837004,34.0161539 74.7612015,36.1268011 C75.7225394,38.9523037 76.3691085,41.2756622 76.7774461,42.8245852 C77.6962576,46.3394388 78.0025107,48.3223552 79.2190597,51.4457577 C79.4657549,52.0755287 79.6954708,52.6457198 79.8996396,53.1393452 C80.6568087,54.9606113 81.2267887,55.9648478 82.1966423,56.4414355 C85.3443829,57.9733208 89.9553677,53.8627196 90.3892523,53.4627495 C90.4062837,53.6755128 90.4317789,53.9137807 90.4573259,54.1606193 C90.567926,55.4201614 90.7040212,57.0626877 90.8146213,58.994595 C91.1038951,64.2540972 90.9762635,67.4966076 90.8146213,71.0199801 C90.5253475,77.4113976 90.0489364,78.6794585 89.0025454,79.6326338 C87.3691432,81.1219768 85.1061513,81.1219768 84.1193183,81.1219768 C80.45264,81.1219768 77.9344372,78.8751841 76.9901306,78.0326497 C74.2252324,75.5730937 73.3404837,72.5944077 72.9491256,71.2242246 C72.9320942,71.1816823 72.9235785,71.1306211 72.9065991,71.0880269 C72.6088097,69.9731494 72.4046408,68.5859287 72.5237566,63.6753873 C72.540788,62.8753953 72.5662832,62.1945632 72.5918302,61.5902967 C72.7364411,58.3137628 72.9406099,57.3860921 73.0597257,53.777635 C73.1873571,49.4287659 72.8470412,51.8967888 72.6343567,43.1394707 C72.5833145,41.2075634 72.5662832,39.7778003 72.1069034,38.6288994 C71.9197141,38.135274 71.6390079,37.6927097 71.2476498,37.2927397 C70.226754,36.2544279 68.6188468,35.6502133 67.1045604,35.9055189 C64.4417467,36.3650689 63.2932713,39.2501516 62.9019132,40.2203646 C61.778933,43.0288296 62.5275865,45.5905079 62.9019132,46.8670876 C63.3698087,48.4755905 64.0163778,50.6883079 65.9305381,51.7606432 C67.5299295,52.6542386 68.7720255,52.0670099 69.4781005,52.7989031 C69.520627,52.8329785 69.5632055,52.8755208 69.5972163,52.9265819 C70.5670699,54.2286662 69.0272364,56.9009855 68.4317095,57.9307785 C66.0496538,62.0413279 62.4169864,64.1349373 60.9281951,64.9009059 C58.0612126,66.3732112 54.9219876,67.9817141 51.0936671,67.0285387 C49.545318,66.6455544 48.2692111,65.9306469 47.2313358,65.1136692 C45.3086598,63.6243262 44.2196904,61.8115788 43.8623951,61.1732889 C44.3643533,59.5733048 44.8832909,57.215871 44.6620907,54.4244437 C44.3728169,50.7819113 43.0116572,48.7308961 41.5228659,45.4288057 C40.4594435,43.062853 37.8561876,37.2842208 37.5329031,31.1736654 C37.422303,29.0119572 37.2011029,23.3269284 40.5700436,17.7695783 C44.7812065,10.8079698 51.9869315,8.42497945 53.5948387,7.93140599 C61.3450484,5.57397217 64.3992202,9.20798571 70.7116808,5.80377312 C74.5740122,3.72720139 74.6591171,1.71020951 78.478922,0.697454225 C79.3466912,0.46765328 85.4379517,-1.04719435 89.751199,3.03785038 C90.0574522,3.32717935 93.7581932,6.94415523 92.9414661,11.9739084 C92.5586237,14.3568469 90.9762636,18.1695484 87.717923,19.0120827 C87.5818279,19.0546769 87.4456807,19.0801815 87.3010698,19.105738 C85.1571937,19.4716846 83.3281384,18.3993493 82.6220114,17.9312805 C82.5880003,19.6674103 82.3668002,21.7354631 81.7712733,23.9907748 Z" id="XMLID_81_" fill="#483025" fill-rule="nonzero"></path>
                        <path d="M90.0574521,24.2545992 C89.3428613,24.0758593 88.5856921,23.8290726 87.8030278,23.4971494 C87.7945121,23.4971494 87.7859964,23.4886306 87.7774807,23.4886306 C86.7480692,23.063104 85.5825624,23.6418139 85.3783937,24.7311869 C85.3018563,25.1311569 85.2167514,25.5311789 85.1061513,25.9481867 C84.2299183,29.3438804 82.5454739,31.9991621 80.9120197,33.9310694 C79.6104177,35.4714735 79.3977333,37.6927097 80.3675351,39.4714337 C81.7287468,41.9564944 82.9282645,45.3607069 82.0945579,48.9266218 C81.9754422,49.4202471 81.6606732,50.6032235 79.8996396,53.1393452 C79.6954708,52.6457199 79.4657549,52.0755288 79.2190597,51.4457578 C78.0025107,48.3223554 77.6962576,46.3394389 76.7774461,42.8245852 C76.3691085,41.2756623 75.7225394,38.9523038 74.7612015,36.1268011 C76.837004,34.016154 80.197429,29.9736516 81.7712733,23.9907749 C82.3668002,21.7354633 82.5880004,19.6674104 82.6220112,17.9312807 C83.3281382,18.3993495 85.1571936,19.4716848 87.3010696,19.1057382 C87.4456805,19.0801816 87.5818277,19.054677 87.7179229,19.0120828 C88.2538919,19.803608 88.874914,20.8674244 89.3939035,22.1865464 C89.6831253,22.9014018 89.8958097,23.5907528 90.0574521,24.2545992 Z" id="XMLID_72_" fill="#C48D79" fill-rule="nonzero"></path>
                        <path d="M92.6947707,44.6373325 C92.7543285,46.7223711 92.2948969,48.3053695 91.554759,50.8755147 C91.1889479,52.1436275 90.8061055,53.2499862 90.4573258,54.1606193 C90.4317788,53.9137806 90.4062836,53.6755128 90.3892523,53.4627495 C89.9553676,53.8627196 85.3443828,57.9733208 82.1966422,56.4414355 C81.2267886,55.9648478 80.6568087,54.9606114 79.8996395,53.1393452 C81.6606732,50.6032234 81.975442,49.4202471 82.0945578,48.9266217 C82.9282644,45.3607069 81.7287467,41.9564944 80.367535,39.4714336 C79.3977333,37.6927097 79.6104177,35.4714734 80.9120196,33.9310693 C82.5454737,31.999162 84.2299182,29.3438804 85.1061512,25.9481866 C85.2167513,25.5311789 85.3018563,25.1311568 85.3783936,24.7311868 C85.5825623,23.6418138 86.7480692,23.0631039 87.7774806,23.4886305 C87.7859964,23.4886305 87.794512,23.4971494 87.8030277,23.4971494 C88.585692,23.8290725 89.3428612,24.0758593 90.057452,24.2545991 C90.4147992,25.6758433 90.5594102,27.0290407 90.7040211,28.5013459 C90.9422526,30.850261 90.7210525,30.790681 90.9592321,33.7438105 C91.1719166,36.4331675 91.5207482,38.5608004 91.6653591,39.386297 C92.3119282,43.0969284 92.6437284,42.9267074 92.6947707,44.6373325 Z" id="XMLID_82_" fill="#E8B49E" fill-rule="nonzero"></path>
                        <path d="M72.906599,71.0880269 C72.115419,73.8539497 71.4263234,76.9432768 70.9668917,80.3389705 C70.728712,82.0581145 70.5755855,83.7006408 70.4819649,85.2580826 C67.8446982,83.4368165 65.1989158,81.6155502 62.5615971,79.794336 C63.5484822,72.2710033 66.236791,67.9391718 68.695436,65.3093948 C69.7758898,64.1604938 71.0264495,63.0881585 72.5918301,61.5902967 C72.5662831,62.1945632 72.5407879,62.8753953 72.5237566,63.6753873 C72.4046408,68.5859286 72.6088096,69.9731494 72.906599,71.0880269 Z" id="XMLID_76_" fill="#E8B49E" fill-rule="nonzero"></path>
                        <path d="M148.69703,179.690231 L148.69703,179.681713 C148.671535,179.460482 148.645988,179.2392 148.611977,179.017918 C148.552419,178.498788 148.492861,177.971139 148.424788,177.451957 C147.616628,170.788249 146.816933,164.132981 146.000206,157.46922 C145.898121,157.46922 145.787521,157.460701 145.685437,157.460701 L145.676921,157.460701 C144.877225,157.435197 144.086045,157.40964 143.28635,157.375617 C143.371455,160.813853 143.465023,164.260608 143.558592,167.715907 C143.694687,172.669043 143.847866,177.605193 144.000992,182.524253 C145.651426,182.260428 147.293344,181.988085 148.943777,181.724261 C148.858672,181.043429 148.782135,180.371116 148.69703,179.690231 Z M146.059763,179.792354 C145.319626,179.792354 144.724099,179.196658 144.724099,178.456246 C144.724099,177.724301 145.319626,177.128553 146.059763,177.128553 C146.791386,177.128553 147.386913,177.724301 147.386913,178.456246 C147.386913,179.196658 146.791386,179.792354 146.059763,179.792354 Z" id="XMLID_65_" fill="#FFFFFF" fill-rule="nonzero"></path>
                        <path d="M147.388678,178.456921 C147.388678,179.197333 146.793151,179.793081 146.061529,179.793081 C145.321391,179.793081 144.725864,179.197333 144.725864,178.456921 C144.725864,177.725028 145.321391,177.12928 146.061529,177.12928 C146.793151,177.12928 147.388678,177.725028 147.388678,178.456921 Z" id="XMLID_43_" fill="#3B4E88" fill-rule="nonzero"></path>
                        <path d="M221.511709,199.715537 C221.43512,200.336789 221.350067,200.96656 221.256498,201.613369 C220.431255,207.289879 219.325307,211.885587 218.4916,214.949357 C215.913839,214.268525 213.234046,213.468533 210.486127,212.540914 C205.228573,210.76219 200.421935,208.719694 196.06611,206.592061 C193.369285,205.26442 190.851134,203.911223 188.503089,202.54104 C190.680976,190.387976 192.263336,180.107239 193.394832,172.183937 C195.062245,160.516005 195.802383,153.613977 196.15973,150.056529 C196.661637,145.12895 197.001953,140.967287 197.223153,137.929021 C194.781539,145.197048 189.430365,157.435197 177.63915,167.613759 C173.878903,170.856296 170.118604,173.332889 166.690157,175.213684 C166.409399,174.464805 166.128693,173.715874 165.847935,172.966943 C166.001062,171.93715 166.086115,170.737188 166.188199,169.298906 C166.639115,169.247845 167.370737,169.094661 167.804622,168.5159 C168.221475,167.962746 168.161917,167.281888 168.119391,166.91589 C167.634464,162.04789 166.477473,159.528754 166.477473,159.528754 C165.76283,157.962846 164.997197,156.303282 163.338248,154.524558 C162.291857,153.40968 161.211403,152.584184 160.258581,151.996955 C160.250065,151.988436 160.250065,151.988436 160.250065,151.988436 C160.054412,151.809696 159.858707,151.622489 159.654538,151.443749 C159.10159,150.950176 158.574137,150.473588 157.961578,150.10759 C159.007969,149.035307 160.343634,147.648086 161.849457,146.014026 C166.426431,141.043905 170.739678,136.363113 173.827861,131.401458 C176.771381,126.695161 178.107045,121.971775 180.778375,112.542143 C182.428808,106.695412 184.853391,101.095468 186.452782,95.2316994 C186.750571,94.1338596 187.473678,91.4104791 189.779196,88.9934653 C190.953219,87.7594798 192.280368,86.8828701 194.81555,85.7339691 C199.605209,83.5467563 202.999644,82.9680464 208.852725,81.4361611 C210.026748,81.1297425 211.558066,80.7212535 213.378657,80.1936048 C212.927741,80.9680402 212.485393,81.7765512 212.042992,82.6105666 C210.809412,84.9509627 209.797032,87.2062744 208.95481,89.3168696 C210.894517,106.559215 213.00433,120.490951 214.595206,130.167421 C216.594419,142.260905 218.134253,149.809742 220.125002,163.78402 C221.077825,170.473363 221.826478,176.473278 222.413489,181.55404 L222.413489,181.579596 C222.498542,185.715702 222.524089,191.902875 221.511709,199.715537 Z" id="XMLID_608_" fill="#0296D7" fill-rule="nonzero"></path>
                        <path d="M282.162586,150.201946 C281.992428,150.023232 281.81378,149.844519 281.643648,149.665779" id="XMLID_98_" stroke="#AB3333" stroke-width="0.847902098"></path>
                        <path d="M292.439488,170.908084 C291.503697,176.014403 290.950697,178.822868 288.968463,179.971769 C290.168033,168.925116 289.546959,159.929478 288.679241,153.529541 C288.287883,150.644511 288.015641,149.546619 287.130892,146.448825 C288.458041,145.674337 289.78519,144.891383 291.112339,144.116895 C292.618162,150.789175 292.941447,153.767861 293.077542,155.163601 C293.307258,157.503997 293.800648,163.486873 292.439488,170.908084 Z" id="XMLID_111_" fill="#0F729D" fill-rule="nonzero"></path>
                        <path d="M279.593367,105.138672 C278.529945,105.751457 277.474986,106.372709 276.411564,106.985494 C275.075951,102.72171 273.714739,99.5217417 271.528337,95.8026436 C268.440154,90.5601271 265.062749,86.5772046 262.365925,83.7942961 C265.105276,84.6368304 266.97691,85.4197847 268.933596,86.9687077 C271.145494,88.7133563 272.464179,90.6282259 273.612655,92.2963088 C275.20353,94.5941107 276.275468,96.7643378 277.866344,100.696199 C278.512913,102.296183 279.091409,103.794045 279.593367,105.138672 Z" id="XMLID_595_" fill="#0F729D" fill-rule="nonzero"></path>
                        <path d="M262.306367,83.7772585 L248.669014,80.194306 C253.033303,81.2155802 256.870139,82.2283355 260.111449,83.1389686 C260.911144,83.3602507 261.634251,83.573014 262.306367,83.7772585 Z" id="XMLID_593_" fill="#43B38D" fill-rule="nonzero"></path>
                        <path d="M260.603126,220.336538 C260.526536,222.047163 260.432968,223.723713 260.313852,225.366291 L260.02463,231.408748 C241.861345,238.515021 218.993506,243.306454 197.146563,245.953269 L196.534057,228.515146 C196.491479,225.604559 196.431973,222.693972 196.372415,219.774866 C196.28731,215.357898 196.185226,210.966435 196.06611,206.592061 C200.421936,208.719694 205.228573,210.76219 210.486127,212.540914 C213.234046,213.468533 215.913839,214.268525 218.4916,214.949357 C219.325307,211.885587 220.431255,207.289879 221.256498,201.613369 C221.350067,200.96656 221.43512,200.336789 221.511709,199.715537 C222.498542,199.962324 223.544985,200.175087 224.65945,200.336789 C226.497021,200.609132 228.241023,200.702736 229.891457,200.677231 C231.669522,200.660194 233.319955,200.498491 234.825778,200.260224 C235.463831,206.294161 236.23798,211.417518 236.927076,215.374884 C244.175379,214.421708 252.436011,212.387731 260.807294,208.285648 C260.849821,212.115388 260.790263,216.140852 260.603126,220.336538 Z" id="XMLID_618_" fill="#404778" fill-rule="nonzero"></path>
                        <path d="M232.147698,94.6536907 C230.914118,95.9728646 229.604,97.1388032 228.242788,98.0323987 C227.494135,98.526024 226.49027,99.0876962 225.231195,99.0281163 C221.904833,98.8749329 219.49723,94.5260639 218.144534,91.2494781 L218.144534,91.2410112 C218.195576,85.8197548 218.340239,79.4453751 218.655008,72.3901632 C218.680503,71.7603922 218.70605,71.1221024 218.740061,70.4838125 C218.782587,69.5561417 218.83363,68.6965697 218.867692,67.9221342 C221.045579,68.1859586 222.99375,67.4795699 223.955088,67.130661 C224.176288,67.0540433 224.388973,66.9689588 224.593142,66.8753554 C226.830586,65.92218 228.438493,64.432837 229.544442,63.0711208 C230.199527,65.871067 230.786538,68.8753095 231.254434,72.0412023 C232.488014,80.4155882 232.590099,88.0580288 232.147698,94.6536907 Z" id="XMLID_609_" fill="#E8B49E" fill-rule="nonzero"></path>
                        <path d="M222.415255,181.554767 C221.828243,176.473953 221.07959,170.474039 220.126768,163.784773 C218.136018,149.810443 216.596185,142.261606 214.596971,130.168174 C213.006096,120.491704 210.896282,106.559968 208.956575,89.3176228 C209.798797,87.2069756 210.811177,84.9517159 212.044758,82.6113198 C212.487158,81.7772524 212.929506,80.9687934 213.380422,80.1943059 C215.107393,77.2156199 216.919469,74.6199182 218.655008,72.3901631 C218.340239,79.445375 218.195576,85.8197548 218.144534,91.2410111 L218.144534,91.249478 C218.076512,99.955787 218.229639,106.185502 218.314692,108.781204 C218.510345,114.644973 218.910219,120.712934 219.701399,132.610692 C220.934979,151.155122 221.998401,163.818797 222.398223,180.763242 C222.406739,181.0186 222.406739,181.282424 222.415255,181.554767 Z" id="XMLID_119_" fill="#0F729D" fill-rule="nonzero"></path>
                        <path d="M232.037098,61.0711667 C230.999223,64.262616 229.2722,68.6540274 226.294617,73.6837806 C226.090449,73.777384 225.877764,73.8624685 225.656564,73.9390861 C224.695226,74.287995 222.747055,74.9943837 220.569168,74.7305594 C219.888536,74.6454748 219.182461,74.4667349 218.476334,74.1518494 C216.289931,73.1731175 215.175467,71.3433844 214.00996,69.419996 C212.912527,67.6157675 212.478642,66.1604479 211.619389,63.3009218 C210.62404,59.9988314 210.207187,57.3605355 210.028513,56.06697 C210.011482,55.9392913 209.994502,55.8116645 209.977471,55.6839857 C209.977471,55.6839857 209.977471,55.6754669 209.968955,55.6754669 C209.654186,53.4031695 209.458533,51.82869 209.603144,49.7436513 C209.705228,48.1351485 209.824344,46.2628211 210.521955,44.3054093 C211.364178,43.5649972 212.478642,42.8841651 213.856833,42.6118219 C216.213394,42.143753 218.170081,43.1394707 220.926463,44.5266915 C224.074204,46.1181567 224.703742,47.241553 228.472504,49.3181249 C231.050265,50.7308502 231.671287,50.3138425 232.462467,51.2244756 C233.823627,52.8159408 233.849174,55.5137647 232.037098,61.0711667 Z" id="XMLID_599_" fill="#E8B49E" fill-rule="nonzero"></path>
                        <path d="M241.658942,60.7477623 C241.174015,61.7349611 240.212677,63.6498307 238.307032,63.9902728 C237.371241,64.1689607 236.545999,63.8881506 236.078103,63.6753873 C235.890966,64.151975 235.320934,64.9264105 235.014681,65.4285547 C233.874669,67.2753255 232.598562,68.5264006 231.245918,69.8795461 C230.139969,71.2412623 228.532062,72.7306053 226.294617,73.6837807 C229.2722,68.6540275 230.999223,64.2626161 232.037098,61.0711668 C233.849174,55.5137648 233.823627,52.8159409 232.462467,51.2244757 C231.671287,50.3138426 231.050265,50.7308503 228.472504,49.3181249 C224.703742,47.2415532 224.074204,46.1181568 220.926463,44.5266915 C218.170081,43.1394707 216.213394,42.1437531 213.856834,42.611822 C212.478642,42.8841652 211.364178,43.5649973 210.521956,44.3054094 C210.802662,43.4883796 211.19402,42.6458454 211.729989,41.8118299 C213.635633,38.7906016 216.3835,37.3097254 217.889323,36.6544498 C219.990672,40.0331059 222.262128,41.6245711 224.00613,42.4501197 C226.320164,43.5479596 227.945051,43.4287997 230.871591,45.3266835 C233.194089,46.8415312 234.061858,48.1521862 234.325585,48.569194 C235.482576,50.4244837 235.678281,52.2882921 235.703776,53.3010475 C235.907945,53.1478641 237.737052,51.7861479 239.693739,52.4499943 C241.914153,53.207444 242.356553,55.9052681 242.458637,56.5520767 C242.781922,58.5094884 242.024753,60.024336 241.658942,60.7477623 Z" id="XMLID_616_" fill="#C48D79" fill-rule="nonzero"></path>
                        <path d="M240.808204,81.6325879 L240.808204,81.6411068 C239.055686,85.062357 235.950472,90.5942025 232.147698,94.6536907 C232.590098,88.0580288 232.488014,80.4155881 231.254434,72.0412023 C230.786538,68.8753095 230.199527,65.871067 229.544442,63.0711208 C230.897086,61.7179754 232.173193,60.4669003 233.313205,58.6201295 C233.619458,58.1179852 234.18949,57.3435497 234.376627,56.866962 C234.904081,58.015863 235.423018,59.2158771 235.942008,60.4583814 C236.418419,61.6158012 236.89483,62.8158152 237.35421,64.0498526 C237.90721,65.5306768 238.417632,66.9859964 238.885528,68.4072406 C238.953601,68.611485 239.004643,68.8072106 239.04717,69.0199739 C239.149254,69.530637 239.251339,70.0582857 239.353423,70.6114391 C239.931971,73.6667429 240.484919,77.385841 240.808204,81.6325879 Z" id="XMLID_108_" fill="#C48D79" fill-rule="nonzero"></path>
                        <path d="M269.399726,203.315475 C268.174662,204.141024 266.898555,204.949483 265.571406,205.732489 C263.989046,206.660108 262.39817,207.511161 260.807294,208.285648 C252.436011,212.387731 244.175379,214.421708 236.927076,215.374884 C236.23798,211.417518 235.463831,206.294161 234.825778,200.260224 C234.604578,198.124072 234.400409,195.877279 234.230251,193.528364 C233.668735,185.919947 233.575166,179.477468 233.745324,172.566921 L233.745324,172.541416 C234.374862,168.626541 234.961873,165.222302 235.506358,162.260654 C237.301402,166.013775 239.104963,169.775493 240.900007,173.528615 C247.382626,169.732951 253.85678,165.93721 260.339399,162.141494 C261.088052,165.503164 261.819675,168.813799 262.449212,171.690363 C264.77171,182.226405 267.085744,192.770914 269.399726,203.315475 Z" id="XMLID_120_" fill="#0296D7" fill-rule="nonzero"></path>
                        <path d="M249.621836,99.0621398 C248.277707,103.530169 246.363547,110.270547 244.440871,118.636362 C244.109071,120.100201 243.828313,121.385299 243.530575,122.755482 C243.402944,123.368268 243.266849,124.006557 243.130702,124.678871 C243.003122,125.283137 242.875491,125.912908 242.739395,126.59374 C240.510466,127.887358 238.281537,129.180923 236.052556,130.483059 C236.545999,124.789512 237.192568,119.649118 238.204948,113.819424 C239.523581,106.211007 240.74013,101.343008 241.03792,92.9686221 C241.182531,88.8835774 241.07193,85.0878616 240.808204,81.6411068 L240.808204,81.6325879 C240.484919,77.385841 239.931971,73.6667428 239.353423,70.6114392 C240.62953,71.6667888 241.965195,72.8497132 243.309375,74.1688352 C245.410673,76.23694 247.180222,78.2709176 248.660498,80.1857871 L248.669014,80.194306 C248.983782,80.5772903 249.264541,80.9602746 249.545299,81.3347401 C248.694561,85.3516861 247.843823,89.3686839 246.993085,93.3941487 C247.869318,95.2835137 248.745603,97.1728267 249.621836,99.0621398 Z" id="XMLID_123_" fill="#0F729D" fill-rule="nonzero"></path>
                        <path d="M241.036154,92.9679209 C240.738365,101.342255 239.521816,106.210306 238.203182,113.818723 C237.190802,119.648416 236.544233,124.788759 236.050791,130.482306 C231.95028,132.865297 227.841201,135.256754 223.740638,137.648211 C227.245674,144.984285 230.759226,152.328878 234.272778,159.664952 L234.272778,159.673471 C234.034546,164.337225 233.847409,168.515899 233.745324,172.541416 L233.745324,172.566921 C233.575166,179.477468 233.668735,185.919947 234.230251,193.528364 C234.400409,195.877279 234.604578,198.124072 234.825778,200.260224 C233.319955,200.498491 231.669522,200.660194 229.891457,200.677231 C228.241023,200.702736 226.497021,200.609132 224.65945,200.336789 C223.544985,200.175087 222.498542,199.962324 221.511709,199.715537 C222.524089,191.902875 222.498542,185.715702 222.413489,181.579596 L222.413489,181.55404 C222.404974,181.281697 222.404974,181.017872 222.396458,180.762567 C221.996636,163.818095 220.933214,151.15442 219.699633,132.609939 C218.908453,120.712233 218.50858,114.64422 218.312926,108.780451 C218.227873,106.184749 218.074747,99.9550339 218.142768,91.2487768 C219.495465,94.5253107 221.903067,98.8742317 225.22943,99.027415 C226.488505,99.0869949 227.49237,98.5252708 228.241023,98.0316974 C229.602235,97.13805 230.912352,95.9721114 232.145933,94.6529894 C235.948706,90.5934493 239.05392,85.0616038 240.806438,81.6404055 C241.070165,85.0871604 241.180765,88.8828761 241.036154,92.9679209 Z" id="XMLID_118_" fill="#FFFFFF" fill-rule="nonzero"></path>
                        <path d="M235.508123,162.261355 C234.963639,165.223055 234.376627,168.627268 233.74709,172.542092 C233.849174,168.516627 234.036311,164.337927 234.274543,159.674172 C234.68288,160.533744 235.099734,161.401783 235.508123,162.261355 Z" id="XMLID_598_" fill="#358E6E" fill-rule="nonzero"></path>
                        <path d="M262.493504,160.882653 C261.778914,161.299661 261.055755,161.725187 260.341164,162.142247 C253.858546,165.937911 247.384391,169.733626 240.901772,173.52929 C239.106728,169.776169 237.303168,166.014528 235.508123,162.261355 C235.099734,161.401783 234.682881,160.533744 234.274543,159.674172 L234.274543,159.665653 C230.760991,152.329579 227.24744,144.984986 223.742404,137.648912 C227.842967,135.257455 231.952045,132.865998 236.052556,130.483059 C238.281537,129.180923 240.510466,127.887358 242.739395,126.59374 C242.909553,126.483099 243.088175,126.380977 243.266849,126.278855 C243.590133,128.304365 244.440871,130.840487 245.929662,133.104266 C246.7804,134.397883 247.724707,135.368096 249.621836,137.291485 C251.357374,139.061638 252.94825,140.49992 254.249852,141.597811 C253.29703,142.270125 252.344207,142.933971 251.391385,143.606284 C253.875525,148.414756 256.470265,152.61896 259.056542,156.286997 C260.205017,157.921005 261.353545,159.45289 262.493504,160.882653 Z" id="XMLID_107_" fill="#DBDBDB" fill-rule="nonzero"></path>
                        <path d="M288.968463,179.971769 C288.917421,180.005844 288.874895,180.031349 288.823852,180.056905 C287.590272,180.703714 284.15331,181.614295 274.361308,173.24848 C270.975388,170.34636 266.823783,166.337933 262.493504,160.882653 C261.353545,159.45289 260.205017,157.921005 259.056542,156.286997 C256.470265,152.61896 253.875525,148.414755 251.391385,143.606284 C252.344207,142.933971 253.29703,142.270125 254.249852,141.597811 C256.061928,140.321232 257.882519,139.044652 259.694595,137.776591 C260.783513,137.010622 261.863967,136.244654 262.952936,135.478737 C263.939769,134.780867 264.935118,134.091516 265.922003,133.393647 C271.162525,138.814851 276.4031,144.236055 281.643623,149.665779 C283.47273,148.593443 285.301785,147.521108 287.130892,146.448825 C288.015641,149.546619 288.287883,150.644511 288.679241,153.529541 C289.546959,159.929478 290.168033,168.925116 288.968463,179.971769 Z" id="XMLID_106_" fill="#0296D7" fill-rule="nonzero"></path>
                        <path d="M299.738834,139.061638 C296.863336,140.746758 293.987838,142.431827 291.112339,144.116895 C289.78519,144.891383 288.458041,145.674337 287.130892,146.448825 C285.301785,147.521108 283.47273,148.593443 281.643623,149.665779 C276.4031,144.236055 271.162526,138.814851 265.922003,133.393647 C264.935118,134.091516 263.939769,134.780867 262.952936,135.478737 C262.901894,132.219189 262.935905,129.691586 262.978431,127.793702 C263.020958,126.321397 263.089031,124.636329 262.527567,122.47462 C262.093682,120.763995 261.430082,119.41085 260.723955,117.95553 C260.460228,117.419362 260.213533,116.951294 259.992333,116.551324 C265.462571,113.359874 270.93281,110.168425 276.411564,106.985494 C277.474986,106.372709 278.529945,105.751457 279.593367,105.138672 C280.307958,104.721664 281.0226,104.304656 281.737191,103.887649 C287.734883,115.615134 293.741142,127.342671 299.738834,139.061638 Z" id="XMLID_591_" fill="#DBDBDB" fill-rule="nonzero"></path>
                        <path d="M243.266849,126.278855 C243.088175,126.380977 242.909553,126.483099 242.739395,126.59374 C242.875491,125.912908 243.003122,125.283137 243.130702,124.678871 C243.130702,125.155458 243.181744,125.700145 243.266849,126.278855 Z" id="XMLID_124_" fill="#43B38D" fill-rule="nonzero"></path>
                        <path d="M259.694595,137.776591 C257.882519,139.044652 256.061928,140.321232 254.249852,141.597811 C252.94825,140.49992 251.357374,139.061638 249.621836,137.291485 C247.724707,135.368096 246.7804,134.397883 245.929662,133.104266 C244.440871,130.840487 243.590133,128.304365 243.266849,126.278855 C243.181744,125.700145 243.130702,125.155458 243.130702,124.678871 C243.266849,124.006557 243.402944,123.368268 243.530575,122.755482 C243.607113,122.65336 243.692218,122.585261 243.785786,122.5342 C244.355766,122.236352 245.044862,123.036344 245.699947,122.610818 C246.567716,122.057612 245.887136,120.355506 246.763369,119.768277 C247.503507,119.274652 248.430834,120.151262 249.077403,119.632132 C249.740952,119.095964 249.102898,117.89595 249.766499,117.368301 C250.396036,116.883195 251.272269,117.657682 251.918839,117.155538 C252.582439,116.644927 252.04647,115.555554 252.667492,115.113042 C253.211977,114.721538 253.97761,115.351309 254.632694,115.342791 C255.015537,116.525767 255.398379,117.742767 255.76419,119.002361 C256.751024,122.363979 257.652804,125.980955 258.409973,129.844769 C258.945942,132.593655 259.371311,135.240417 259.694595,137.776591 Z" id="XMLID_83_" fill="#E8B49E" fill-rule="nonzero"></path>
                        <path d="M276.411564,106.985494 C270.93281,110.168425 265.462571,113.359874 259.992333,116.551324 C259.439384,115.564073 258.996984,114.934302 258.673699,114.500256 C258.069657,113.691745 256.597897,111.734334 255.908801,112.023715 C255.21119,112.330081 256.010886,114.687515 255.032568,115.240668 C254.904937,115.317286 254.777305,115.342791 254.632694,115.342791 C253.97761,115.35131 253.211977,114.721538 252.667492,115.113042 C252.04647,115.555554 252.582439,116.644927 251.918838,117.155538 C251.272269,117.657682 250.396036,116.883195 249.766499,117.368301 C249.102898,117.89595 249.740951,119.095964 249.077403,119.632132 C248.430834,120.151262 247.503507,119.274652 246.763369,119.768277 C245.887136,120.355506 246.567716,122.057612 245.699946,122.610818 C245.044862,123.036344 244.355766,122.236352 243.785786,122.5342 C243.692217,122.585261 243.607113,122.65336 243.530575,122.755482 C243.828313,121.385299 244.109071,120.100201 244.440871,118.636362 C246.363547,110.270547 248.277707,103.530169 249.621836,99.0621398 C248.745603,97.1728267 247.869318,95.2835137 246.993085,93.3941487 C247.843823,89.3686839 248.69456,85.3516861 249.545298,81.3347401 C249.26454,80.9602747 248.983782,80.5772904 248.669013,80.194306 L262.306367,83.7772585 C262.323346,83.7857774 262.340377,83.7857774 262.357409,83.7942962 L262.365925,83.7942962 C265.062749,86.5772046 268.440154,90.5601272 271.528336,95.8026437 C273.714739,99.5217417 275.075951,102.72171 276.411564,106.985494 Z" id="XMLID_113_" fill="#0296D7" fill-rule="nonzero"></path>
                        <path d="M262.978431,127.793702 C262.935905,129.691586 262.901894,132.219189 262.952936,135.478737 C261.863966,136.244654 260.783513,137.010623 259.694595,137.776591 C259.371311,135.240417 258.945942,132.593655 258.409973,129.84477 C257.652804,125.980955 256.751023,122.363979 255.76419,119.002361 C255.398379,117.742767 255.015537,116.525767 254.632694,115.342791 C254.777305,115.342791 254.904937,115.317286 255.032568,115.240669 C256.010886,114.687515 255.21119,112.330081 255.908801,112.023715 C256.597897,111.734334 258.069657,113.691746 258.673699,114.500256 C258.996984,114.934302 259.439384,115.564073 259.992333,116.551324 C260.213533,116.951294 260.460228,117.419362 260.723955,117.95553 C261.430082,119.41085 262.093682,120.763995 262.527567,122.47462 C263.089031,124.636328 263.020958,126.321397 262.978431,127.793702 Z" id="XMLID_126_" fill="#C48D79" fill-rule="nonzero"></path>
                        <path d="M166.215512,168.891092 C166.206996,169.027238 166.19848,169.163435 166.189965,169.299581 C166.08788,170.737863 166.002827,171.937825 165.849701,172.967618 C165.585974,174.652687 165.135058,175.878205 164.139709,176.865456 L164.131193,176.873975 C164.233278,176.227166 164.224762,175.44416 163.95252,174.627182 C163.748351,174.031435 163.433582,173.086778 162.753002,172.925076 C161.808696,172.703794 161.213169,174.244198 160.149746,174.099533 C159.069293,173.954817 158.933197,172.26123 158.022902,172.235725 C156.950963,172.210168 156.244836,174.533579 155.258003,174.337801 C154.892192,174.269754 154.756045,173.903756 154.330676,173.937831 C153.871296,173.980374 153.777728,174.414419 153.36939,174.448442 C152.875948,174.482518 152.731337,173.844228 152.229379,173.725068 C151.710441,173.605908 151.15744,174.108052 150.017481,175.452679 C149.583596,175.971861 149.039111,176.644174 148.426553,177.452685 C147.618394,170.788924 146.818698,164.133682 146.001971,157.469922 C145.899887,157.469922 145.789286,157.461455 145.687202,157.461455 C146.640024,156.201861 147.371646,155.206143 147.865089,154.525311 C148.792416,153.25725 149.328385,152.4998 150.36626,152.074274 C151.370125,151.674252 152.35701,151.784893 152.969516,151.92109 C153.020559,151.946595 153.080116,151.972152 153.131159,151.997656 C153.190716,152.474244 153.326812,152.831724 153.343843,152.891252 C153.811739,154.11677 154.917687,154.721037 155.700404,155.001899 C156.278899,155.214662 156.75531,155.606113 157.044532,156.142281 C157.291279,156.593364 157.580501,157.129532 157.912301,157.71676 C159.494661,160.474164 160.294357,161.818843 160.966473,161.759263 C162.540318,161.614546 162.565865,159.325263 162.70196,158.516752 C162.753002,158.17631 162.770033,157.759303 162.727507,157.274196 C162.991234,157.495478 163.152876,157.665699 163.288971,157.827401 C164.72672,159.469928 165.254174,161.18902 165.6285,162.397553 C166.436712,165.044315 166.317596,167.21449 166.215512,168.891092 Z" id="XMLID_95_" fill="#E8B49E" fill-rule="nonzero"></path>
                        <path d="M164.131193,176.873975 C164.029109,177.682434 163.765382,178.295219 163.663298,178.516501 C163.38254,179.129235 162.846571,180.303692 161.68958,180.805836 C161.026031,181.086646 160.872853,180.83986 159.647788,181.069661 C158.133502,181.350471 157.852744,181.818592 156.908437,181.920714 C156.219341,181.988761 155.215477,181.869653 153.905307,180.907959 C153.343843,181.333485 152.612221,181.427089 152.016694,181.146226 C151.395672,180.856897 151.157441,180.269669 151.106399,180.133471 C150.740587,180.159028 150.22165,180.150509 149.626123,180.005844 C149.277291,179.920708 148.962522,179.8016 148.698796,179.690959 L148.698796,179.68244 C148.673301,179.461158 148.647754,179.239876 148.613743,179.018594 C148.554185,178.499464 148.494627,177.971815 148.426553,177.452685 C149.039112,176.644174 149.583596,175.971861 150.017481,175.452679 C151.157441,174.108052 151.710441,173.605908 152.229379,173.725068 C152.731337,173.844228 152.875948,174.482518 153.36939,174.448442 C153.777728,174.414419 153.871297,173.980373 154.330676,173.937831 C154.756045,173.903756 154.892193,174.269754 155.258004,174.337801 C156.244837,174.533579 156.950964,172.210168 158.022902,172.235725 C158.933198,172.26123 159.069293,173.954817 160.149747,174.099533 C161.213169,174.244198 161.808696,172.703794 162.753002,172.925076 C163.433582,173.086778 163.748351,174.031435 163.95252,174.627182 C164.224762,175.44416 164.233278,176.227166 164.131193,176.873975 Z" id="XMLID_64_" fill="#C48D79" fill-rule="nonzero"></path>
                        <path d="M162.70196,158.516752 C162.565865,159.325263 162.540318,161.614546 160.966473,161.759263 C160.294357,161.818843 159.494662,160.474164 157.912302,157.71676 C157.580501,157.129531 157.291279,156.593364 157.044532,156.142281 C156.755311,155.606113 156.278899,155.214662 155.700404,155.001899 C154.917688,154.721037 153.811739,154.11677 153.343843,152.891252 C153.326812,152.831723 153.190717,152.474244 153.131159,151.997656 C153.054569,151.401908 153.097148,150.618954 153.624601,150.057282 C154.39875,149.231733 155.683372,149.410473 156.253352,149.487039 C156.908437,149.580694 157.461437,149.801976 157.963344,150.108343 C158.575902,150.47429 159.103355,150.950877 159.656304,151.444503 C159.860473,151.623191 160.056178,151.810449 160.251831,151.989137 C160.251831,151.989137 160.251831,151.989137 160.260346,151.997656 C161.060042,152.746587 161.774633,153.563617 162.208518,154.806121 C162.523286,155.725273 162.684929,156.567807 162.727507,157.274196 C162.770034,157.759302 162.753002,158.17631 162.70196,158.516752 Z" id="XMLID_94_" fill="#C48D79" fill-rule="nonzero"></path>
                        <path d="M167.806387,168.516627 C167.372503,169.095337 166.640881,169.24852 166.189965,169.299581 C166.19848,169.163435 166.206996,169.027238 166.215512,168.891092 C166.317596,167.21449 166.436712,165.044315 165.628501,162.397552 C165.254174,161.18902 164.72672,159.469928 163.288971,157.827401 C163.152876,157.665699 162.991234,157.495478 162.727507,157.274196 C162.684929,156.567807 162.523286,155.725273 162.208518,154.806121 C161.774633,153.563617 161.060042,152.746587 160.260347,151.997656 C161.213169,152.584885 162.293623,153.410433 163.340014,154.525311 C164.998963,156.303983 165.764596,157.963547 166.479238,159.529508 C166.479238,159.529508 167.63623,162.048592 168.121156,166.916643 C168.163683,167.282589 168.223241,167.963421 167.806387,168.516627 Z" id="XMLID_92_" fill="#DBB1A2" fill-rule="nonzero"></path>
                        <path d="M166.189991,169.299581 C166.096422,169.3081 166.011343,169.316619 165.943295,169.316619" id="XMLID_28_" stroke="#AB3333" stroke-width="0.847902098"></path>
                        <path d="M249.621836,59.0626418 C246.074273,64.4157994 240.604035,66.4923711 237.643484,67.2668066 C237.124494,66.0243022 236.605556,64.8242882 236.078103,63.6753872 C236.545999,63.8881505 237.371241,64.1689607 238.307032,63.9902727 C240.212677,63.6498307 241.174015,61.7349611 241.658941,60.7477623 C242.024753,60.0243359 242.781922,58.5094883 242.458637,56.5520764 C242.356553,55.9052677 241.914152,53.2074438 239.693739,52.4499941 C237.737052,51.7861477 235.907945,53.1478639 235.703776,53.3010472 C235.678281,52.2882919 235.482576,50.4244834 234.325585,48.5691937 C234.061858,48.152186 233.194089,46.8415309 230.871591,45.3266833 C227.945051,43.4287995 226.320164,43.5479593 224.00613,42.4501195 C222.262128,41.6245709 219.990672,40.0331056 217.889323,36.6544496 C216.3835,37.3097252 213.635633,38.7906013 211.729989,41.8118296 C211.19402,42.6458451 210.802662,43.4883794 210.521956,44.3054091 C209.824344,46.262821 209.705228,48.1351483 209.603144,49.7436512 C209.458533,51.8286899 209.654186,53.4031693 209.968955,55.6754667 C209.092722,54.4074058 208.139848,52.5861396 207.722995,50.2713 C206.923299,45.8202567 208.582248,42.3735018 209.135249,41.3352419 C209.024649,40.5182122 208.369564,35.1736254 212.257442,30.6289787 C216.051752,26.1779874 221.266779,25.9056441 222.109002,25.8715687 C222.959739,24.9779733 226.115944,21.8631417 231.254434,21.2673941 C236.588525,20.6461419 240.510466,23.2588814 242.314026,24.4588434 C242.348037,24.4843999 242.382048,24.5013857 242.416111,24.5269422 C247.945907,28.2460403 249.979183,33.7183058 251.03409,36.5863508 C251.195732,37.0118773 251.340343,37.4374039 251.467974,37.8458928 L251.476438,37.8458928 C252.624965,41.4628687 252.778092,44.3990125 252.812103,45.5905076 C252.880176,48.4244774 253.024787,53.9222995 249.621836,59.0626418 Z" id="XMLID_87_" fill="#010102" fill-rule="nonzero"></path>
                        <path d="M260.536818,31.0545056 C260.171006,32.5013063 259.490426,35.1736257 256.921181,36.7991143 C254.981474,38.0246329 252.905724,38.0501894 251.476438,37.8458931 L251.467974,37.8458931 C251.340343,37.4374042 251.195732,37.0118776 251.03409,36.586351 C249.979183,33.7183061 247.945907,28.2460406 242.416111,24.5269425 C242.628795,22.8928831 243.309375,20.7652502 245.223535,19.1397615 C248.609456,16.2631977 252.880176,17.4887163 253.798988,17.7865641 C257.686866,19.0461581 259.3373,22.3907907 259.754153,23.2503627 C261.472608,26.731141 260.80906,29.9906891 260.536818,31.0545056 Z" id="XMLID_74_" fill="#010102" fill-rule="nonzero"></path>
                    </g>
                </g>
            </g>
        </g>
    </g>
</svg>