<?xml version="1.0" encoding="UTF-8"?>
<svg width="66px" height="75px" viewBox="0 0 66 75" version="1.1" xmlns="http://www.w3.org/2000/svg" xmlns:xlink="http://www.w3.org/1999/xlink">
    <!-- Generator: Sketch 51.3 (57544) - http://www.bohemiancoding.com/sketch -->
    <title>money-back-guarantee</title>
    <desc>Created with Sketch.</desc>
    <defs></defs>
    <g id="Page-1" stroke="none" stroke-width="1" fill="none" fill-rule="evenodd">
        <g id="scrum" transform="translate(-370.000000, -559.000000)" fill-rule="nonzero">
            <g id="stickers">
                <g id="Bitmap">
                    <g id="Group-16" transform="translate(128.000000, -3.000000)">
                        <g id="Group-21" transform="translate(0.000000, 317.000000)">
                            <g id="Group-19" transform="translate(0.000000, 245.000000)">
                                <g id="money-back-guarantee" transform="translate(242.000000, 0.000000)">
                                    <path d="M10.6281,62.8707 C9.66141422,62.362762 9.04946474,61.3672797 9.0327,60.2754 L8.9976,57.993 C8.9538,55.1532 7.3332,52.5879 4.6626,51.1314 L2.4426,49.9212 C1.48399637,49.3982713 0.887520574,48.3935594 0.8874,47.3016 L0.8874,10.9551 C0.887520574,9.86314061 1.48399637,8.85842868 2.4426,8.3355 L5.9553,6.42 C6.39563193,6.17982609 6.76831425,5.83252579 7.0389,5.4102 L9.1389,2.1345 C9.68740547,1.27828238 10.6342584,0.760419184 11.6511,0.7605 L54.3498,0.7605 C55.3666416,0.760419184 56.3134945,1.27828238 56.862,2.1345 L58.962,5.4102 C59.2325857,5.83252579 59.6052681,6.17982609 60.0456,6.42 L63.5574,8.3352 C64.5160036,8.85812868 65.1124794,9.86284061 65.1126,10.9548 L65.1126,47.3016 C65.1124794,48.3935594 64.5160036,49.3982713 63.5574,49.9212 L61.3374,51.1314 C58.6674,52.5879 57.0474,55.1532 57.0024,57.993 L56.9673,60.2754 C56.9505353,61.3672797 56.3385858,62.362762 55.3719,62.8707 L34.3878,73.8972 C33.5189389,74.353817 32.4810611,74.353817 31.6122,73.8972 L10.6281,62.8707 Z" id="Shape" fill="#DDDDDD"></path>
                                    <g id="Group" transform="translate(3.600000, 3.900000)" fill="#EFEFEF">
                                        <circle id="Oval" cx="21.969" cy="1.899" r="1.6995"></circle>
                                        <circle id="Oval" cx="36.831" cy="1.899" r="1.6995"></circle>
                                        <circle id="Oval" cx="29.4" cy="65.0616" r="1.6995"></circle>
                                        <circle id="Oval" cx="1.9953" cy="20.0355" r="1.6995"></circle>
                                        <circle id="Oval" cx="56.8047" cy="20.0355" r="1.6995"></circle>
                                        <circle id="Oval" cx="1.9953" cy="35.7492" r="1.6995"></circle>
                                        <circle id="Oval" cx="56.8047" cy="35.7492" r="1.6995"></circle>
                                        <circle id="Oval" cx="5.3943" cy="6.1806" r="1.6995"></circle>
                                        <circle id="Oval" cx="53.4057" cy="6.1806" r="1.6995"></circle>
                                        <circle id="Oval" cx="8.2797" cy="48.4566" r="1.6995"></circle>
                                        <circle id="Oval" cx="50.5203" cy="48.4566" r="1.6995"></circle>
                                        <circle id="Oval" cx="16.5681" cy="58.8852" r="1.6995"></circle>
                                        <circle id="Oval" cx="42.2319" cy="58.8852" r="1.6995"></circle>
                                    </g>
                                    <path d="M18.042,54.9057 C17.5248,51.0831 15.3081,47.7411 12.1134,45.5457 C11.2860683,44.9879355 10.787126,44.0579609 10.7799,43.0602 L10.7799,17.4639 C10.7870322,16.4664245 11.2857512,15.5366723 12.1128,14.979 C13.30081,14.1650579 14.3615477,13.1794373 15.2604,12.0543 C15.8274042,11.3330762 16.6925921,10.9100931 17.61,10.9056 L48.39,10.9056 C49.3077242,10.909819 50.1732998,11.3328296 50.7405,12.0543 C51.6393523,13.1794373 52.70009,14.1650579 53.8881,14.979 C54.7151488,15.5366723 55.2138678,16.4664245 55.221,17.4639 L55.221,43.059 C55.213774,44.0567609 54.7148317,44.9867355 53.8875,45.5445 C50.6928,47.7411 48.4761,51.0831 47.9589,54.9045 C47.8365869,55.877824 47.2497809,56.73136 46.3848,57.1941 L34.3887,63.4977 C33.5198389,63.954317 32.4819611,63.954317 31.6131,63.4977 L19.6161,57.1953 C18.7511191,56.73256 18.1643131,55.879024 18.042,54.9057 Z" id="Shape" fill="#2997A0"></path>
                                    <path d="M35.5545,31.6761 L30.4452,31.6761 C29.658394,31.6700444 28.9345859,31.2446927 28.5464272,30.5602709 C28.1582685,29.8758491 28.1647298,29.036337 28.5633772,28.3579709 C28.9620246,27.6796047 29.692294,27.2654443 30.4791,27.2715 L35.3643,27.2715 C36.4976906,27.298134 37.540296,27.8975389 38.1336,28.8636 C38.5943566,29.5909081 39.4111459,30.0136533 40.2710036,29.9698548 C41.1308614,29.9260563 41.900468,29.4225051 42.284938,28.6521438 C42.669408,27.8817825 42.6091299,26.9640545 42.1272,26.2506 C40.6628846,23.9368124 38.1243085,22.5243834 35.3862,22.5 L35.3862,20.4336 C35.3715396,19.1260919 34.3074402,18.0738568 32.99985,18.0738568 C31.6922598,18.0738568 30.6281604,19.1260919 30.6135,20.4336 L30.6135,22.5 L30.444,22.5 C26.5918139,22.5 23.469,25.6228139 23.469,29.475 C23.469,33.3271861 26.5918139,36.45 30.444,36.45 L35.5533,36.45 C36.340106,36.4560556 37.0639142,36.8814073 37.4520728,37.5658291 C37.8402315,38.2502509 37.8337702,39.089763 37.4351228,39.7681292 C37.0364755,40.4464953 36.306206,40.8606557 35.5194,40.8546 L30.1893,40.8546 C29.2169362,40.8356754 28.3024326,40.388797 27.69,39.6333 C27.144509,38.9782714 26.291001,38.664016 25.4509841,38.8089107 C24.6109672,38.9538055 23.91206,39.5358374 23.6175341,40.3357607 C23.3230082,41.1356841 23.477609,42.0319714 24.0231,42.687 C25.5387768,44.5265648 27.7896823,45.6026074 30.1731,45.627 L30.6147,45.627 L30.6147,47.6928 C30.6293604,49.0003081 31.6934598,50.0525432 33.00105,50.0525432 C34.3086402,50.0525432 35.3727396,49.0003081 35.3874,47.6928 L35.3874,45.627 C37.8877251,45.6700376 40.2197958,44.3713744 41.4998661,42.223143 C42.7799363,40.0749115 42.8121376,37.4058212 41.5842671,35.2273327 C40.3563967,33.0488442 38.0563357,31.6942965 35.5557,31.677 L35.5545,31.6761 Z" id="Shape" fill="#FFFFFF"></path>
                                    <circle id="Oval" fill="#000000" cx="65.112" cy="31.044" r="1"></circle>
                                    <path d="M0.138,47.301 C0.137754268,48.6680218 0.884639189,49.9258727 2.085,50.58 L4.302,51.789 C6.732,53.118 8.205,55.443 8.247,58.005 L8.283,60.288 C8.30418479,61.6534656 9.06931093,62.8983776 10.278,63.534 L31.263,74.562 C32.3514083,75.1297575 33.6485917,75.1297575 34.737,74.562 L55.7187,63.534 C56.9290823,62.8997054 57.6957491,61.6543467 57.717,60.288 L57.753,58.005 C57.7947,55.443 59.268,53.118 61.6947,51.789 L63.9147,50.58 C65.1150608,49.9258727 65.8619457,48.6680218 65.8617,47.301 L65.8617,34.044 C65.8622359,33.7760508 65.7197819,33.5281696 65.487999,33.3937309 C65.2562162,33.2592922 64.9703178,33.2587205 64.737999,33.3922309 C64.5056803,33.5257414 64.3622359,33.7730508 64.3617,34.041 L64.3617,47.301 C64.3614921,48.1185986 63.9151574,48.8709256 63.1977,49.263 L60.9777,50.472 C58.0947,52.0389 56.2956,54.8682 56.2527,57.981 L56.2167,60.264 C56.2050281,61.0810809 55.7467208,61.8261182 55.0227,62.205 L34.0377,73.233 C33.3864855,73.5689976 32.6129145,73.5689976 31.9617,73.233 L10.977,62.205 C10.2528864,61.8262177 9.79454126,61.0811189 9.783,60.264 L9.747,57.981 C9.7041,54.8571 7.8945,52.0329 5.022,50.472 L2.802,49.263 C2.08454259,48.8709256 1.63820792,48.1185986 1.638,47.301 L1.638,10.956 C1.63742597,10.138187 2.08397961,9.38549092 2.802,8.994 L6.315,7.08 C6.86566883,6.77791332 7.33186545,6.34265895 7.671,5.814 L9.768,2.538 C10.1786951,1.89727145 10.8879474,1.51040656 11.649,1.512 L54.351,1.512 C55.1114029,1.50979866 55.820028,1.89693889 56.229,2.538 L58.329,5.814 C58.6681345,6.34265895 59.1343312,6.77791332 59.685,7.08 L63.198,8.994 C63.9160204,9.38549092 64.362574,10.138187 64.362,10.956 L64.362,28.044 C64.362,28.4582136 64.6977864,28.794 65.112,28.794 C65.5262136,28.794 65.862,28.4582136 65.862,28.044 L65.862,10.956 C65.8622457,9.58897821 65.1153608,8.33112733 63.915,7.677 L60.405,5.763 C60.0753847,5.58247906 59.7959626,5.32264742 59.592,5.007 L57.4947,1.731 C56.8103493,0.657423782 55.6241424,0.00879646095 54.351,0.012 L11.649,0.012 C10.3757943,0.00886325722 9.18952737,0.657461473 8.505,1.731 L6.408,5.007 C6.20488678,5.32335845 5.92526279,5.5833778 5.595,5.763 L2.085,7.677 C0.884639189,8.33112733 0.137754268,9.58897821 0.138,10.956 L0.138,47.301 Z" id="Shape" fill="#000000"></path>
                                    <path d="M54.312,46.161 C55.3425967,45.4637858 55.9631531,44.3032589 55.9707,43.059 L55.9707,17.463 C55.9631531,16.2187411 55.3425967,15.0582142 54.312,14.361 C53.1848766,13.589165 52.1788628,12.6539261 51.327,11.586 C50.6189325,10.6842358 49.5365316,10.1568556 48.39,10.155 L17.61,10.155 C16.463458,10.156811 15.3810388,10.6842002 14.673,11.586 C13.8210619,12.6538563 12.8150593,13.5890849 11.688,14.361 C10.6573292,15.0581825 10.0366665,16.2186982 10.029,17.463 L10.029,29.505 C10.029,29.9192136 10.3647864,30.255 10.779,30.255 C11.1932136,30.255 11.529,29.9192136 11.529,29.505 L11.529,17.463 C11.5386817,16.7133391 11.9153393,16.0160742 12.537,15.597 C13.7859003,14.7411573 14.901022,13.7048928 15.846,12.522 C16.2704082,11.9783657 16.9203297,11.6589315 17.61,11.655 L48.39,11.655 C49.078951,11.6584231 49.7281667,11.978054 50.151,12.522 C51.096947,13.7050647 52.2130835,14.7413327 53.463,15.597 C54.0845859,16.016106 54.4611373,16.7133818 54.4707,17.463 L54.4707,43.059 C54.46196,43.8095688 54.0838723,44.5076114 53.46,44.925 C50.1117,47.235 47.7666,50.7414 47.214,54.804 C47.1216719,55.5360524 46.6829597,56.1790504 46.035,56.532 L34.038,62.835 C33.3864232,63.1695016 32.6135768,63.1695016 31.962,62.835 L19.965,56.532 C19.3163222,56.1798446 18.8773267,55.5364314 18.786,54.804 C18.246,50.8311 15.9681,47.2872 12.537,44.925 C11.9147879,44.506426 11.5379611,43.8088479 11.529,43.059 L11.529,35.505 C11.529,35.0907864 11.1932136,34.755 10.779,34.755 C10.3647864,34.755 10.029,35.0907864 10.029,35.505 L10.029,43.059 C10.0366665,44.3033018 10.6573292,45.4638175 11.688,46.161 C14.781,48.291 16.827,51.513 17.298,55.005 C17.4536689,56.2184342 18.1869715,57.2814995 19.266,57.858 L31.263,64.161 C32.3504372,64.731648 33.6485788,64.7327691 34.737,64.164 L46.731,57.858 C47.8107363,57.2817234 48.5450629,56.218794 48.702,55.005 C49.173,51.513 51.2187,48.291 54.312,46.161 Z" id="Shape" fill="#000000"></path>
                                    <circle id="Oval" fill="#000000" cx="10.779" cy="32.505" r="1"></circle>
                                    <path d="M28.02,5.799 C28.0191716,4.44656939 26.9224311,3.35072436 25.5700003,3.35100051 C24.2175695,3.35127666 23.1212767,4.44756947 23.1210005,5.80000031 C23.1207244,7.15243115 24.2165694,8.24917156 25.569,8.25 C26.9223756,8.24933788 28.0193379,7.15237557 28.02,5.799 Z M24.621,5.799 C24.6218291,5.27460659 25.0476058,4.85017372 25.5719992,4.85100237 C26.0963926,4.85183101 26.5208258,5.27760738 26.5199976,5.80200079 C26.5191694,6.32639419 26.0933934,6.75082777 25.569,6.75 C25.0442944,6.74933773 24.619334,6.32370596 24.6195,5.799 L24.621,5.799 Z" id="Shape" fill="#000000"></path>
                                    <path d="M42.8805,5.799 C42.8805,4.80824243 42.283666,3.91504687 41.3683138,3.5359284 C40.4529615,3.15680992 39.3993644,3.36643374 38.6988359,4.06704803 C37.9983074,4.76766233 37.7888126,5.82128515 38.1680432,6.73659096 C38.5472738,7.65189677 39.4405424,8.24862134 40.4313,8.2485 C41.7833875,8.24684669 42.8790123,7.15108769 42.8805,5.799 Z M39.4815,5.799 C39.4815,5.27464469 39.9065447,4.84955526 40.4309,4.84950005 C40.9552553,4.84944485 41.3803895,5.27444476 41.3805,5.79880006 C41.3806104,6.32315536 40.9556553,6.74833433 40.4313,6.7485 C39.9064769,6.74883164 39.4806623,6.32382276 39.48,5.799 L39.4815,5.799 Z" id="Shape" fill="#000000"></path>
                                    <path d="M33,66.5121 C31.6471785,66.5121 30.5505,67.6087785 30.5505,68.9616 C30.5505,70.3144215 31.6471785,71.4111 33,71.4111 C34.3528215,71.4111 35.4495,70.3144215 35.4495,68.9616 C35.448012,67.6093953 34.3522047,66.513588 33,66.5121 Z M33,69.9111 C32.4756056,69.9111 32.0505,69.4859944 32.0505,68.9616 C32.0505,68.4372056 32.4756056,68.0121 33,68.0121 C33.5243944,68.0121 33.9495,68.4372056 33.9495,68.9616 C33.9488389,69.4857203 33.5241203,69.9104389 33,69.9111 Z" id="Shape" fill="#000000"></path>
                                    <path d="M5.5953,21.4863 C4.60454243,21.4863 3.71134687,22.083134 3.3322284,22.9984862 C2.95310992,23.9138385 3.16273374,24.9674356 3.86334803,25.6679641 C4.56396233,26.3684926 5.61758515,26.5779874 6.53289096,26.1987568 C7.44819677,25.8195262 8.04492134,24.9262576 8.0448,23.9355 C8.04331167,22.583344 6.94745612,21.4876227 5.5953,21.4863 Z M5.5953,24.885 C5.07090563,24.885 4.6458,24.4598944 4.6458,23.9355 C4.6458,23.4111056 5.07090563,22.986 5.5953,22.986 C6.11969437,22.986 6.5448,23.4111056 6.5448,23.9355 C6.54430384,24.4596887 6.11948872,24.8845038 5.5953,24.885 Z" id="Shape" fill="#000000"></path>
                                    <path d="M60.4047,21.4863 C59.4139424,21.4863 58.5207469,22.083134 58.1416284,22.9984862 C57.7625099,23.9138385 57.9721337,24.9674356 58.672748,25.6679641 C59.3733623,26.3684926 60.4269852,26.5779874 61.342291,26.1987568 C62.2575968,25.8195262 62.8543213,24.9262576 62.8542,23.9355 C62.8525467,22.5834125 61.7567877,21.4877877 60.4047,21.4863 Z M60.4047,24.885 C59.8803056,24.885 59.4552,24.4598944 59.4552,23.9355 C59.4552,23.4111056 59.8803056,22.986 60.4047,22.986 C60.9290944,22.986 61.3542,23.4111056 61.3542,23.9355 C61.3535389,24.4596203 60.9288203,24.8843389 60.4047,24.885 Z" id="Shape" fill="#000000"></path>
                                    <path d="M5.5953,37.2 C4.24247851,37.2 3.1458,38.2966785 3.1458,39.6495 C3.1458,41.0023215 4.24247851,42.099 5.5953,42.099 C6.94812149,42.099 8.0448,41.0023215 8.0448,39.6495 C8.04331197,38.2972953 6.94750465,37.201488 5.5953,37.2 Z M5.5953,40.599 C5.07090563,40.599 4.6458,40.1738944 4.6458,39.6495 C4.6458,39.1251056 5.07090563,38.7 5.5953,38.7 C6.11969437,38.7 6.5448,39.1251056 6.5448,39.6495 C6.54413853,40.1735716 6.11937174,40.5982041 5.5953,40.5987 L5.5953,40.599 Z" id="Shape" fill="#000000"></path>
                                    <path d="M60.4047,37.2 C59.0518785,37.2 57.9552,38.2966785 57.9552,39.6495 C57.9552,41.0023215 59.0518785,42.099 60.4047,42.099 C61.7575215,42.099 62.8542,41.0023215 62.8542,39.6495 C62.852712,38.2972953 61.7569047,37.201488 60.4047,37.2 Z M60.4047,40.599 C59.8803056,40.599 59.4552,40.1738944 59.4552,39.6495 C59.4552,39.1251056 59.8803056,38.7 60.4047,38.7 C60.9290944,38.7 61.3542,39.1251056 61.3542,39.6495 C61.3533737,40.1735031 60.9287033,40.5980392 60.4047,40.5987 L60.4047,40.599 Z" id="Shape" fill="#000000"></path>
                                    <path d="M11.4435,10.08 C11.4436213,9.08924244 10.8468968,8.19597379 9.93159096,7.8167432 C9.01628515,7.43751261 7.96266233,7.64700738 7.26204803,8.34753587 C6.56143374,9.04806436 6.35180992,10.1016615 6.7309284,11.0170138 C7.11004687,11.932366 8.00324243,12.5292 8.994,12.5292 C10.3460877,12.5277123 11.4418467,11.4320875 11.4435,10.08 Z M8.0448,10.08 C8.04467866,9.69590852 8.27597243,9.34957534 8.63080348,9.20253384 C8.98563453,9.05549234 9.39410414,9.13670846 9.66569784,9.40830216 C9.93729154,9.67989586 10.0185077,10.0883655 9.87146616,10.4431965 C9.72442466,10.7980276 9.37809148,11.0293213 8.994,11.0292 C8.46997697,11.0287038 8.04529616,10.604023 8.0448,10.08 Z" id="Shape" fill="#000000"></path>
                                    <path d="M59.4552,10.08 C59.4553213,9.08921514 58.8585643,8.19592751 57.9432217,7.81671451 C57.027879,7.4375015 55.9742327,7.64705126 55.273642,8.34764196 C54.5730513,9.04823266 54.3635015,10.101879 54.7427145,11.0172217 C55.1219275,11.9325643 56.0152151,12.5293213 57.006,12.5292 C58.3579705,12.527547 59.453547,11.4319705 59.4552,10.08 Z M56.0562,10.08 C56.0560343,9.55560567 56.4810056,9.13036577 57.0054,9.13020009 C57.5297943,9.13003442 57.9550342,9.5550057 57.9551999,10.0794 C57.9553656,10.6037944 57.5303943,11.0290343 57.006,11.0292 C56.4818111,11.0288695 56.0568618,10.6041886 56.0562,10.08 Z" id="Shape" fill="#000000"></path>
                                    <path d="M17.7186,62.7852 C17.7186,64.1380215 18.8152785,65.2347 20.1681,65.2347 C21.5209215,65.2347 22.6176,64.1380215 22.6176,62.7852 C22.6176,61.4323785 21.5209215,60.3357 20.1681,60.3357 C18.8158953,60.337188 17.720088,61.4329953 17.7186,62.7852 Z M21.1176,62.7852 C21.1176,63.3095944 20.6924944,63.7347 20.1681,63.7347 C19.6437056,63.7347 19.2186,63.3095944 19.2186,62.7852 C19.2186,62.2608056 19.6437056,61.8357 20.1681,61.8357 C20.6922887,61.8361962 21.1171038,62.2610113 21.1176,62.7852 Z" id="Shape" fill="#000000"></path>
                                    <path d="M43.3824,62.7852 C43.3824,63.7759576 43.979234,64.6691531 44.8945862,65.0482716 C45.8099385,65.4273901 46.8635356,65.2177663 47.5640641,64.517152 C48.2645926,63.8165377 48.4740874,62.7629148 48.0948568,61.847609 C47.7156262,60.9323032 46.8223576,60.3355787 45.8316,60.3357 C44.479444,60.3371883 43.3837227,61.4330439 43.3824,62.7852 Z M46.7811,62.7852 C46.7811,63.3095944 46.3559944,63.7347 45.8316,63.7347 C45.3072056,63.7347 44.8821,63.3095944 44.8821,62.7852 C44.8821,62.2608056 45.3072056,61.8357 45.8316,61.8357 C46.3558572,61.836031 46.780769,62.2609428 46.7811,62.7852 Z" id="Shape" fill="#000000"></path>
                                    <path d="M23.484,28.5993 C23.8866596,28.6950723 24.2907865,28.4465544 24.387,28.044 L24.387,28.041 C24.4816777,27.6379398 24.2318343,27.2344044 23.8288333,27.139475 C23.4258324,27.0445456 23.022141,27.2941369 22.9269599,27.6970785 C22.8317788,28.1000201 23.0811179,28.5038673 23.484,28.5993 Z" id="Shape" fill="#000000"></path>
                                    <path d="M35.52,40.104 L30.189,40.104 C29.4396499,40.0839571 28.7367699,39.736355 28.266,39.153 C27.5495039,38.2923472 26.4282813,37.8793173 25.3246861,38.0694948 C24.2210908,38.2596723 23.3027852,39.0241645 22.9156861,40.0749948 C22.5285869,41.1258251 22.7315039,42.3033472 23.448,43.164 C25.0402143,45.0881915 27.3701859,46.2515434 29.865,46.368 L29.865,47.691 C29.865,49.4224127 31.2685873,50.826 33,50.826 C34.7314127,50.826 36.135,49.4224127 36.135,47.691 L36.135,46.344 C40.2746588,46.033667 43.4275926,42.5049485 43.2717974,38.3565984 C43.1160022,34.2082482 39.7072745,30.9259591 35.556,30.927 L30.444,30.927 C29.9190301,30.9289542 29.4337838,30.647731 29.1744926,30.1912606 C28.9152015,29.7347901 28.9221464,29.1739851 29.1926621,28.7240757 C29.4631778,28.2741663 29.9552395,28.0050461 30.48,28.02 L35.364,28.02 C36.2415316,28.0497251 37.0453104,28.51869 37.503,29.268 C38.1095922,30.2188673 39.1800894,30.7707388 40.3065004,30.7132835 C41.4329113,30.6558281 42.4416997,29.9978976 42.9483928,28.9902445 C43.4550859,27.9825914 43.3816221,26.780456 42.756,25.842 C41.2938803,23.5399792 38.8499805,22.0428553 36.135,21.786 L36.135,20.433 C36.135,18.7015873 34.7314127,17.298 33,17.298 C31.2685873,17.298 29.865,18.7015873 29.865,20.433 L29.865,21.771 C27.6939183,21.9362589 25.6930925,23.0091023 24.354,24.726 C24.1003046,25.0528043 24.1579192,25.5230999 24.483,25.779 C24.8122495,26.0236443 25.2755422,25.9668876 25.536,25.65 C26.7485886,24.0864689 28.6341296,23.1949601 30.612,23.25 C30.8109124,23.25 31.0016778,23.1709824 31.1423301,23.0303301 C31.2829824,22.8896778 31.362,22.6989124 31.362,22.5 L31.362,20.433 C31.3620001,19.529186 32.094686,18.7965001 32.9985,18.7965001 C33.902314,18.7965001 34.6349999,19.529186 34.635,20.433 L34.635,22.5 C34.638872,22.9113171 34.970404,23.2443143 35.3817,23.25 C37.8651663,23.2750757 40.1667545,24.5568729 41.4957,26.655 C41.8244785,27.1426782 41.8661574,27.7693137 41.6048622,28.2962389 C41.343567,28.8231642 40.8195216,29.1692645 40.2323197,29.2027203 C39.6451178,29.2361761 39.085153,28.9518371 38.7657,28.458 C38.0350743,27.2785885 36.7570733,26.5492055 35.37,26.52 L30.48,26.52 C29.4248161,26.5135692 28.4463551,27.0705609 27.913194,27.9811615 C27.3800328,28.8917622 27.3731712,30.0176301 27.895194,30.9346615 C28.4172167,31.851693 29.3888161,32.4205692 30.444,32.427 L35.556,32.427 C37.7979559,32.4304609 39.8648442,33.639285 40.9669911,35.5916299 C42.069138,37.5439749 42.0362467,39.9381764 40.8808835,41.8595078 C39.7255204,43.7808392 37.6262049,44.9324284 35.385,44.8743 C34.9722804,44.8778848 34.6385848,45.2115804 34.635,45.6243 L34.635,47.691 C34.6349999,48.594814 33.902314,49.3274999 32.9985,49.3274999 C32.094686,49.3274999 31.3620001,48.594814 31.362,47.691 L31.362,45.6243 C31.3610204,45.2116618 31.0276309,44.8769334 30.615,44.8743 L30.171,44.8743 C28.0116877,44.849538 25.9732444,43.8735661 24.6,42.207 C24.2259429,41.7579172 24.1198827,41.1433904 24.3217714,40.594906 C24.52366,40.0464217 25.0028257,39.6473075 25.5787714,39.547906 C26.1547171,39.4485045 26.7399429,39.6639171 27.114,40.113 C27.8668332,41.0385592 28.9900925,41.5842678 30.183,41.604 L35.52,41.604 C36.5751839,41.6104844 37.5536735,41.0535423 38.0868811,40.1429684 C38.6200887,39.2323945 38.6270074,38.1065266 38.1050311,37.1894683 C37.5830547,36.2724101 36.6114839,35.7034844 35.5563,35.697 L30.441,35.697 C27.4791638,35.6907561 24.9302871,33.6021315 24.342,30.6993 C24.260897,30.2925423 23.8654077,30.028547 23.45865,30.10965 C23.0518923,30.190753 22.787897,30.5862423 22.869,30.993 C23.6009892,34.5970635 26.7663614,37.1895346 30.444,37.197 L35.556,37.197 C36.3569195,37.2020917 37.0044269,37.851071 37.0077,38.652 C36.9934151,39.4618717 36.3299798,40.1093868 35.52,40.104 Z" id="Shape" fill="#000000"></path>
                                    <path d="M11.88,49.908 C10.888997,49.9073933 9.99526531,50.5039724 9.61574457,51.4194238 C9.23622384,52.3348753 9.44569732,53.3888125 10.1464424,54.0895576 C10.8471875,54.7903027 11.9011247,54.9997762 12.8165762,54.6202554 C13.7320276,54.2407347 14.3286067,53.347003 14.328,52.356 C14.3240458,51.0056482 13.2303518,49.9119542 11.88,49.908 Z M11.88,53.307 C11.3556066,53.3078278 10.9298306,52.8833942 10.9290024,52.3590008 C10.9281742,51.8346074 11.3526074,51.408831 11.8770008,51.4080024 C12.4013942,51.4071737 12.8271709,51.8316066 12.828,52.356 C12.8231462,52.8780332 12.4020152,53.3004969 11.88,53.307 Z" id="Shape" fill="#000000"></path>
                                    <path d="M54.12,54.807 C55.1107572,54.8077279 56.0043909,54.2115504 56.3841818,53.296477 C56.7639727,52.3814037 56.5551232,51.3276529 55.855024,50.6266098 C55.1549248,49.9255667 54.1014563,49.7152976 53.1858721,50.0938553 C52.2702879,50.472413 51.672907,51.3652427 51.6723,52.356 C51.6736187,53.7078156 52.7681874,54.80386 54.12,54.807 Z M54.12,51.408 C54.5043363,51.4072719 54.8512053,51.6383103 54.998649,51.9932402 C55.1460928,52.3481701 55.0650272,52.7569796 54.7933029,53.0287899 C54.5215787,53.3006002 54.1127948,53.3817952 53.7578183,53.2344638 C53.4028417,53.0871323 53.1716935,52.7403365 53.1723,52.356 C53.1755723,51.8339123 53.5979134,51.4114376 54.12,51.408 Z" id="Shape" fill="#000000"></path>
                                </g>
                            </g>
                        </g>
                    </g>
                </g>
            </g>
        </g>
    </g>
</svg>