<?xml version="1.0" encoding="UTF-8"?>
<svg width="27px" height="25px" viewBox="0 0 27 25" version="1.1" xmlns="http://www.w3.org/2000/svg" xmlns:xlink="http://www.w3.org/1999/xlink">
    <!-- Generator: Sketch 51.3 (57544) - http://www.bohemiancoding.com/sketch -->
    <title>Icon</title>
    <desc>Created with Sketch.</desc>
    <defs></defs>
    <g id="Page-1" stroke="none" stroke-width="1" fill="none" fill-rule="evenodd" stroke-linecap="round" stroke-linejoin="round">
        <g id="Artboard" transform="translate(-731.000000, -1455.000000)" stroke="#0296D7" stroke-width="2.34146341">
            <g id="Group-28" transform="translate(0.000000, 1278.000000)">
                <g id="Group-27" transform="translate(130.000000, 70.000000)">
                    <g id="Group-26" transform="translate(0.000000, 108.000000)">
                        <g id="Group-20" transform="translate(603.000000, 0.000000)">
                            <g id="Icon">
                                <path d="M0,8.625 L0,1.15" id="Stroke-302"></path>
                                <path d="M7.6097561,0.575 L0,0.575" id="Stroke-304"></path>
                                <path d="M8.81806829,8.72206 L0.274653659,0.329935" id="Stroke-306"></path>
                                <path d="M22.8292683,8.05 L22.8292683,0.575" id="Stroke-308"></path>
                                <path d="M15.2195122,0.575 L22.8292683,0.575" id="Stroke-310"></path>
                                <path d="M13.8887415,8.72206 L22.4321561,0.329935" id="Stroke-312"></path>
                                <path d="M0.585365854,14.375 L0.585365854,21.85" id="Stroke-314"></path>
                                <path d="M8.19512195,22.425 L0.585365854,22.425" id="Stroke-316"></path>
                                <path d="M9.52589268,13.70294 L0.982478049,22.095065" id="Stroke-318"></path>
                                <path d="M23.4146341,14.95 L23.4146341,22.425" id="Stroke-320"></path>
                                <path d="M15.804878,22.425 L23.4146341,22.425" id="Stroke-322"></path>
                                <path d="M14.5965659,13.70294 L23.1399805,22.095065" id="Stroke-324"></path>
                            </g>
                        </g>
                    </g>
                </g>
            </g>
        </g>
    </g>
</svg>