<?xml version="1.0" encoding="UTF-8"?>
<svg width="27px" height="28px" viewBox="0 0 27 28" version="1.1" xmlns="http://www.w3.org/2000/svg" xmlns:xlink="http://www.w3.org/1999/xlink">
    <!-- Generator: Sketch 51.3 (57544) - http://www.bohemiancoding.com/sketch -->
    <title>Icon</title>
    <desc>Created with Sketch.</desc>
    <defs></defs>
    <g id="Page-1" stroke="none" stroke-width="1" fill="none" fill-rule="evenodd">
        <g id="Artboard" transform="translate(-1025.000000, -1454.000000)" stroke="#0296D7" stroke-width="2.28571429">
            <g id="Group-28" transform="translate(0.000000, 1278.000000)">
                <g id="Group-27" transform="translate(130.000000, 70.000000)">
                    <g id="Group-26" transform="translate(0.000000, 108.000000)">
                        <g id="Group-22" transform="translate(897.000000, 0.000000)">
                            <g id="Icon">
                                <path d="M14.94816,11.8409143 C14.94816,13.7346286 13.40371,15.2694857 11.49816,15.2694857 C9.59261,15.2694857 8.04816,13.7346286 8.04816,11.8409143 C8.04816,9.9472 9.59261,8.41234286 11.49816,8.41234286 C13.40371,8.41234286 14.94816,9.9472 14.94816,11.8409143 L14.94816,11.8409143 Z" id="Stroke-146"></path>
                                <path d="M20.9031475,14.5856 C21.2182475,13.6313143 21.3947725,12.6147429 21.3947725,11.5558857 C21.3947725,10.4941714 21.2170975,9.47531429 20.9002725,8.51874286 L22.6747225,7.26274286 C22.9334725,7.07988571 22.9938475,6.72274286 22.8092725,6.4656 L20.1406975,2.74217143 C19.9561225,2.4856 19.5973225,2.4256 19.3385725,2.60845714 L17.5094975,3.86102857 C16.5969725,3.16274286 15.5251725,2.61474286 14.3751725,2.27017143 L14.3751725,0.571314286 C14.3751725,-0.000114285714 14.2371725,-0.000114285714 13.9197725,-0.000114285714 L9.3197725,-0.000114285714 L8.6251725,0.571314286 L8.6251725,2.27017143 C7.4751725,2.62617143 6.4505225,3.19817143 5.5155725,3.93074286 L3.6013975,2.57988571 C3.3414975,2.39874286 2.9976475,2.4616 2.8159475,2.72045714 L0.1864725,6.46617143 C0.0047725,6.72502857 0.0720475,7.08102857 0.3319475,7.26217143 L2.2972975,8.62674286 C2.0028975,9.55131429 1.8436225,10.5347429 1.8436225,11.5558857 C1.8436225,12.6324571 2.0276225,13.6650286 2.3530725,14.6330286 L0.5642475,15.8993143 C0.3054975,16.0827429 0.2451225,16.4393143 0.4296975,16.6964571 L3.0988475,20.4198857 C3.2828475,20.6764571 3.6416475,20.7364571 3.9003975,20.5536 L5.6443725,19.2764571 C6.5488475,19.9621714 7.4751725,20.5016 8.6251725,20.8416 L8.6251725,23.0347429 C8.6251725,23.3501714 9.0017975,23.9998857 9.3197725,23.9998857 L13.9197725,23.9998857 C14.2371725,23.9998857 14.3751725,23.3501714 14.3751725,23.0347429 L14.3751725,20.8416 C15.5251725,20.4964571 16.6015725,19.9467429 17.5163975,19.2461714 L19.1942475,20.3918857 C19.4547225,20.5730286 19.8278975,20.5101714 20.0101725,20.2513143 L22.6540225,16.5050286 C22.8362975,16.2467429 22.7764975,15.8901714 22.5160225,15.7096 L20.9031475,14.5856 L20.9031475,14.5856 Z" id="Stroke-148" stroke-linejoin="round"></path>
                            </g>
                        </g>
                    </g>
                </g>
            </g>
        </g>
    </g>
</svg>