<?xml version="1.0" encoding="UTF-8"?>
<svg width="28px" height="27px" viewBox="0 0 28 27" version="1.1" xmlns="http://www.w3.org/2000/svg" xmlns:xlink="http://www.w3.org/1999/xlink">
    <!-- Generator: Sketch 51.3 (57544) - http://www.bohemiancoding.com/sketch -->
    <title>Icon</title>
    <desc>Created with Sketch.</desc>
    <defs></defs>
    <g id="Page-1" stroke="none" stroke-width="1" fill="none" fill-rule="evenodd" stroke-linecap="round">
        <g id="Artboard" transform="translate(-731.000000, -1626.000000)" stroke="#0296D7" stroke-width="2.23255814">
            <g id="Group-28" transform="translate(0.000000, 1278.000000)">
                <g id="Group-27" transform="translate(130.000000, 70.000000)">
                    <g id="Group-26" transform="translate(0.000000, 108.000000)">
                        <g id="Group-19" transform="translate(603.000000, 172.000000)">
                            <g id="Icon">
                                <path d="M5.02325581,22.452381 C5.02325581,22.7546667 4.7732093,23 4.46511628,23 L0.558139535,23 C0.250046512,23 0,22.7546667 0,22.452381 L0,8.76190476 C0,8.45961905 0.250046512,8.21428571 0.558139535,8.21428571 L4.46511628,8.21428571 C4.7732093,8.21428571 5.02325581,8.45961905 5.02325581,8.76190476 L5.02325581,22.452381 L5.02325581,22.452381 Z" id="Stroke-274"></path>
                                <path d="M24,22.452381 C24,22.7546667 23.7499535,23 23.4418605,23 L19.5348837,23 C19.2267907,23 18.9767442,22.7546667 18.9767442,22.452381 L18.9767442,14.2380952 C18.9767442,13.9358095 19.2267907,13.6904762 19.5348837,13.6904762 L23.4418605,13.6904762 C23.7499535,13.6904762 24,13.9358095 24,14.2380952 L24,22.452381 L24,22.452381 Z" id="Stroke-276"></path>
                                <path d="M14.5116279,22.452381 C14.5116279,22.7546667 14.2615814,23 13.9534884,23 L10.0465116,23 C9.7384186,23 9.48837209,22.7546667 9.48837209,22.452381 L9.48837209,0.547619048 C9.48837209,0.245333333 9.7384186,0 10.0465116,0 L13.9534884,0 C14.2615814,0 14.5116279,0.245333333 14.5116279,0.547619048 L14.5116279,22.452381 L14.5116279,22.452381 Z" id="Stroke-278"></path>
                            </g>
                        </g>
                    </g>
                </g>
            </g>
        </g>
    </g>
</svg>