<?xml version="1.0" encoding="UTF-8"?>
<svg width="25px" height="28px" viewBox="0 0 25 28" version="1.1" xmlns="http://www.w3.org/2000/svg" xmlns:xlink="http://www.w3.org/1999/xlink">
    <!-- Generator: Sketch 51.3 (57544) - http://www.bohemiancoding.com/sketch -->
    <title>Icon</title>
    <desc>Created with Sketch.</desc>
    <defs></defs>
    <g id="Page-1" stroke="none" stroke-width="1" fill="none" fill-rule="evenodd" stroke-linecap="round" stroke-linejoin="round">
        <g id="Artboard" transform="translate(-1025.000000, -1626.000000)" stroke="#0296D7" stroke-width="2.28571429">
            <g id="Group-28" transform="translate(0.000000, 1278.000000)">
                <g id="Group-27" transform="translate(130.000000, 70.000000)">
                    <g id="Group-26" transform="translate(0.000000, 108.000000)">
                        <g id="Group-25" transform="translate(897.000000, 172.000000)">
                            <g id="Icon">
                                <path d="M9.91666667,11.4285714 L0,11.4285714 L0,0.571428571 C0,0.256 0.261333333,0 0.583333333,0 L9.91666667,0 C10.2386667,0 10.5,0.256 10.5,0.571428571 L10.5,10.8571429 C10.5,11.1725714 10.2386667,11.4285714 9.91666667,11.4285714 L9.91666667,11.4285714 Z" id="Stroke-64"></path>
                                <path d="M20.4166667,13.7142857 L11.0833333,13.7142857 C10.7613333,13.7142857 10.5,13.4582857 10.5,13.1428571 L10.5,2.28571429 L20.4166667,2.28571429 C20.7386667,2.28571429 21,2.54171429 21,2.85714286 L21,13.1428571 C21,13.4582857 20.7386667,13.7142857 20.4166667,13.7142857 L20.4166667,13.7142857 Z" id="Stroke-66"></path>
                                <path d="M0,11.4285714 L0,24" id="Stroke-68"></path>
                            </g>
                        </g>
                    </g>
                </g>
            </g>
        </g>
    </g>
</svg>