<?xml version="1.0" encoding="UTF-8"?>
<svg width="110px" height="74px" viewBox="0 0 110 74" version="1.1" xmlns="http://www.w3.org/2000/svg" xmlns:xlink="http://www.w3.org/1999/xlink">
    <!-- Generator: Sketch 51.3 (57544) - http://www.bohemiancoding.com/sketch -->
    <title>lean-sherpas_LOGO_final</title>
    <desc>Created with Sketch.</desc>
    <defs></defs>
    <g id="Page-1" stroke="none" stroke-width="1" fill="none" fill-rule="evenodd">
        <g id="Artboard" transform="translate(-128.000000, -30.000000)" fill="#1B8FC2">
            <g id="Group-6" transform="translate(128.000000, 30.000000)">
                <g id="lean-sherpas_LOGO_final">
                    <path d="M1.27548134,63.1562714 C1.62385069,63.1562714 1.91797642,63.2804779 2.15937132,63.5288909 C2.40508841,63.7727198 2.5278389,64.0700295 2.5278389,64.4216932 L2.5278389,71.7101475 L6.00937132,71.7101475 C6.28058939,71.7101475 6.51117878,71.806413 6.70070727,71.9974159 C6.88980354,72.1943127 6.98510806,72.4298466 6.98510806,72.7037994 L6.98510806,72.7192979 C6.98510806,72.9943422 6.88980354,73.2292212 6.70070727,73.4256814 C6.51117878,73.6175575 6.28058939,73.7131681 6.00937132,73.7131681 L1.16785855,73.7131681 C0.844990177,73.7131681 0.568585462,73.5996578 0.337996071,73.3715457 C0.11194499,73.138413 0,72.8590029 0,72.5328791 L0,64.4216932 C0,64.0700295 0.122750491,63.7727198 0.368467583,63.5288909 C0.608998035,63.2804779 0.903772102,63.1562714 1.25235756,63.1562714 L1.27548134,63.1562714" id="Fill-1"></path>
                    <path d="M14.3957367,71.8112153 C14.6570138,71.8112153 14.8800393,71.9044248 15.064165,72.0904071 C15.2532613,72.2766077 15.3485658,72.5051563 15.3485658,72.7738702 L15.3485658,72.8044307 C15.3485658,73.0740177 15.2532613,73.3016932 15.064165,73.4878938 C14.8800393,73.6743127 14.6570138,73.7673038 14.3957367,73.7673038 L9.87709234,73.7673038 C9.4621611,73.7673038 9.10557957,73.6197404 8.80886051,73.3246136 C8.51689587,73.0253392 8.3708055,72.6651622 8.3708055,72.2460472 L8.3708055,64.7321003 C8.3708055,64.3129853 8.51689587,63.9536814 8.80886051,63.6530973 C9.10557957,63.3579705 9.4621611,63.2104071 9.87709234,63.2104071 L14.1575835,63.2104071 C14.4648919,63.2104071 14.7129862,63.3302478 14.902947,63.5677463 C15.0920432,63.8115752 15.1534185,64.0831268 15.0872888,64.3828378 L15.079725,64.4136165 C15.0334774,64.6364897 14.9228291,64.8174513 14.7492927,64.9571563 C14.5746758,65.0970796 14.3749902,65.1664956 14.1500196,65.1664956 L10.8992927,65.1664956 L10.8992927,67.5063363 L13.9654617,67.5063363 C14.2267387,67.5063363 14.4495481,67.5993274 14.6341061,67.785528 C14.8232024,67.9719469 14.9182908,68.1970029 14.9182908,68.4609145 L14.9182908,68.4842714 C14.9182908,68.7481829 14.8232024,68.976295 14.6341061,69.1672979 C14.4495481,69.3537168 14.2267387,69.446708 13.9654617,69.446708 L10.8992927,69.446708 L10.8992927,71.8112153 L14.3957367,71.8112153" id="Fill-2"></path>
                    <path d="M22.6219646,69.2343127 L22.6144008,69.2185959 C22.2040079,67.9197758 21.8657957,66.6779292 21.5999804,65.4926195 L21.5537328,65.4926195 C21.3585855,66.4349735 21.0281532,67.6816224 20.5626523,69.2343127 L22.6219646,69.2343127 Z M26.1415324,72.0596283 C26.29,72.4630265 26.2413752,72.8432861 25.9956582,73.2006254 C25.7441061,73.557528 25.40611,73.7360885 24.9810216,73.7360885 L24.9505501,73.7360885 C24.6838703,73.7360885 24.4400982,73.656413 24.2205305,73.4955339 C24.0052849,73.3357463 23.856169,73.1259705 23.7746955,72.8668614 L23.2752652,71.3143894 L19.9246955,71.3143894 L19.4559528,72.8513628 C19.3790177,73.1152743 19.2301179,73.3281062 19.0101179,73.4878938 C18.7896857,73.6537935 18.5437525,73.7360885 18.2723183,73.7360885 L18.1420039,73.7360885 C17.7160511,73.7360885 17.3808644,73.5608024 17.1351473,73.2082655 C16.8892141,72.862059 16.8354028,72.4844189 16.9734971,72.0751268 L19.5251081,64.5845369 C19.6679568,64.1654218 19.9192927,63.8268555 20.2782515,63.5677463 C20.6363458,63.3038348 21.0389587,63.1715516 21.4845776,63.1715516 L21.5077014,63.1715516 C21.9479175,63.1715516 22.3453438,63.2990324 22.6988998,63.5520295 C23.0569941,63.806118 23.3104912,64.139882 23.4596071,64.5535398 L26.1415324,72.0596283 Z" id="Fill-3"></path>
                    <path d="M49.0107269,67.4722832 C49.9529666,67.8243835 50.6445187,68.2561593 51.0855992,68.7682655 C51.5258153,69.2808083 51.7464637,69.9147198 51.7464637,70.6702183 C51.7464637,71.585941 51.4283497,72.3418761 50.7934185,72.9367139 C50.0404912,73.6461534 48.9383301,74 47.4890963,74 C46.9455796,74 46.2518664,73.8760118 45.406444,73.6273805 C45.1399804,73.5496696 44.9377014,73.389882 44.799391,73.1464897 C44.6610806,72.9035339 44.6249902,72.6472625 44.6919843,72.3776755 L44.6995481,72.3543186 C44.7710806,72.0648673 44.9346758,71.8478879 45.1914145,71.7025074 C45.4472888,71.5582183 45.7161297,71.5294041 45.9983694,71.6171563 C46.6791159,71.8299882 47.2224165,71.9352035 47.6274067,71.9352035 C48.1292141,71.9352035 48.5212377,71.8376283 48.8032613,71.6405133 C49.0898232,71.4495103 49.2335363,71.1823245 49.2335363,70.8407021 C49.2335363,70.5409912 49.105167,70.2851563 48.8492927,70.0725428 C48.5927701,69.8605841 48.1469352,69.6431681 47.51222,69.4200767 C45.5648527,68.7171858 44.5919253,67.6558643 44.5919253,66.2378584 C44.5919253,65.2752035 44.9608251,64.4994041 45.6986248,63.9091504 C46.4362083,63.314531 47.4045972,63.0165664 48.6033595,63.0165664 C49.0338507,63.0165664 49.6123772,63.1097758 50.3402358,63.2961947 C50.6168566,63.3634277 50.8243222,63.5186313 50.9626326,63.7618053 C51.1054813,64.0102183 51.1415717,64.2717286 51.0700393,64.5456814 L51.0624754,64.5688201 C50.9857564,64.8331681 50.8288605,65.0348673 50.5937328,65.1745723 C50.3523379,65.3092566 50.1018664,65.340472 49.8405894,65.2675634 C49.358664,65.1333156 48.9359528,65.0658643 48.5726719,65.0658643 C48.0963654,65.0658643 47.724224,65.1664956 47.4584086,65.3686313 C47.2224165,65.5502478 47.1048527,65.7720295 47.1048527,66.035941 C47.1048527,66.3419823 47.2554813,66.5982537 47.5582515,66.8045369 C47.8041847,66.9750206 48.2882711,67.1981121 49.0107269,67.4722832" id="Fill-4"></path>
                    <path d="M71.4924361,71.8112153 C71.7537132,71.8112153 71.9767387,71.9044248 72.1610806,72.0904071 C72.3501768,72.2766077 72.4456974,72.5051563 72.4456974,72.7738702 L72.4456974,72.8044307 C72.4456974,73.0740177 72.3501768,73.3016932 72.1610806,73.4878938 C71.9767387,73.6743127 71.7537132,73.7673038 71.4924361,73.7673038 L66.9740079,73.7673038 C66.5590766,73.7673038 66.2024951,73.6197404 65.905776,73.3246136 C65.6135953,73.0253392 65.467721,72.6651622 65.467721,72.2460472 L65.467721,64.7321003 C65.467721,64.3129853 65.6135953,63.9536814 65.905776,63.6530973 C66.2024951,63.3579705 66.5590766,63.2104071 66.9740079,63.2104071 L71.254499,63.2104071 C71.5618075,63.2104071 71.8099018,63.3302478 71.9998625,63.5677463 C72.1889587,63.8115752 72.2501179,64.0831268 72.1844204,64.3828378 L72.1762083,64.4136165 C72.1303929,64.6364897 72.0197446,64.8174513 71.8462083,64.9571563 C71.6715914,65.0970796 71.4719057,65.1664956 71.2465029,65.1664956 L67.9959921,65.1664956 L67.9959921,67.5063363 L71.0623772,67.5063363 C71.3236542,67.5063363 71.5464637,67.5993274 71.7305894,67.785528 C71.9196857,67.9719469 72.0149902,68.1970029 72.0149902,68.4609145 L72.0149902,68.4842714 C72.0149902,68.7481829 71.9196857,68.976295 71.7305894,69.1672979 C71.5464637,69.3537168 71.3236542,69.446708 71.0623772,69.446708 L67.9959921,69.446708 L67.9959921,71.8112153 L71.4924361,71.8112153" id="Fill-5"></path>
                    <path d="M76.9656385,68.1088142 L78.1799607,68.1088142 C78.6002947,68.1088142 78.9562279,67.9509912 79.2481925,67.6351268 C79.5453438,67.3199174 79.6935953,66.9396578 79.6935953,66.4941298 C79.6935953,66.0490383 79.5453438,65.6687788 79.2481925,65.3529145 C78.9562279,65.0322478 78.6002947,64.8720236 78.1799607,64.8720236 L76.9656385,64.8720236 L76.9656385,68.1088142 Z M82.3450491,71.9199233 C82.513831,72.2102478 82.5579175,72.5175988 82.4755796,72.8432861 C82.3941061,73.164826 82.2095481,73.4104012 81.9221218,73.580885 L81.8994303,73.5966018 C81.6128684,73.7620649 81.3105305,73.8039764 80.9922004,73.7208083 C80.6697642,73.6385133 80.423831,73.4520944 80.254833,73.1617699 L78.410334,70.002472 L76.9578585,70.0103304 L76.9578585,72.5252389 C76.9578585,72.8668614 76.8402947,73.1571858 76.6047348,73.3946844 C76.3639882,73.6385133 76.0741847,73.7594454 75.7359725,73.7594454 L75.7132809,73.7594454 C75.3705305,73.7594454 75.0805108,73.6385133 74.8445187,73.3946844 C74.6039882,73.1571858 74.4836149,72.8668614 74.4836149,72.5252389 L74.4836149,64.3828378 C74.4836149,64.0366313 74.6039882,63.7382301 74.8445187,63.4900354 C75.090668,63.2470796 75.3856582,63.1252743 75.7284086,63.1252743 L78.6409234,63.1252743 C78.7792338,63.1252743 78.932888,63.1383717 79.1021022,63.1639115 L79.1710413,63.1715516 C79.9911788,63.3012153 80.6749509,63.6840944 81.223222,64.3206254 C81.7760314,64.9678525 82.0530845,65.7178938 82.0530845,66.5718407 C82.0530845,67.2603245 81.8378389,67.943351 81.4075639,68.6207021 C81.2534774,68.8693333 81.0568173,69.0943894 80.8158546,69.2960885 L82.3450491,71.9199233 Z" id="Fill-6"></path>
                    <path d="M86.990334,68.1393746 L88.2046562,68.1393746 C88.6243418,68.1393746 88.9809234,67.9822065 89.2726719,67.6661239 C89.569391,67.3511327 89.7182908,66.9708732 89.7182908,66.5249086 C89.7182908,66.0750147 89.569391,65.6921357 89.2726719,65.3762714 C88.9809234,65.0612802 88.6243418,64.9025841 88.2046562,64.9025841 L86.990334,64.9025841 L86.990334,68.1393746 Z M86.9827701,70.0413274 L86.9827701,72.5488142 C86.9827701,72.8952389 86.864558,73.1881829 86.628998,73.4256814 C86.3880354,73.6695103 86.0988802,73.7906608 85.7608841,73.7906608 L85.7379764,73.7906608 C85.3945776,73.7906608 85.104558,73.6695103 84.8694303,73.4256814 C84.6284676,73.1881829 84.5080943,72.8952389 84.5080943,72.5488142 L84.5080943,64.4059764 C84.5080943,64.0597699 84.6284676,63.7646431 84.8694303,63.5212507 C85.1155796,63.278295 85.4097053,63.1562714 85.7533202,63.1562714 L88.6656189,63.1562714 C88.8041454,63.1562714 88.9577996,63.1669676 89.1270138,63.1874867 L89.1957367,63.202767 C90.0150098,63.3324307 90.6992141,63.7153097 91.2477014,64.3518407 C91.800943,64.9933923 92.07778,65.7412507 92.07778,66.5947611 C92.07778,67.2889204 91.8625344,67.9743481 91.4320432,68.6519174 C90.8634578,69.5578171 90.0335953,70.0157876 88.9426719,70.0260472 L86.9827701,70.0413274 Z" id="Fill-7"></path>
                    <path d="M98.0445776,69.2343127 L98.0370138,69.2185959 C97.6266208,67.9197758 97.2886248,66.6779292 97.0225933,65.4926195 L96.9765619,65.4926195 C96.7811984,66.4349735 96.4507662,67.6816224 95.9850491,69.2343127 L98.0445776,69.2343127 Z M101.564361,72.0596283 C101.712397,72.4630265 101.663988,72.8432861 101.418271,73.2006254 C101.167151,73.557528 100.828723,73.7360885 100.404067,73.7360885 L100.373163,73.7360885 C100.106483,73.7360885 99.8629273,73.656413 99.6429273,73.4955339 C99.4276817,73.3357463 99.2787819,73.1259705 99.1973084,72.8668614 L98.6978782,71.3143894 L95.3473084,71.3143894 L94.8779175,72.8513628 C94.8011984,73.1152743 94.6520825,73.3281062 94.4322986,73.4878938 C94.2118664,73.6537935 93.9659332,73.7360885 93.694499,73.7360885 L93.5639686,73.7360885 C93.1382318,73.7360885 92.8034774,73.5608024 92.5573281,73.2082655 C92.3111788,72.862059 92.2575835,72.4844189 92.39611,72.0751268 L94.9472888,64.5845369 C95.0903536,64.1654218 95.3419057,63.8268555 95.7006483,63.5677463 C96.0589587,63.3038348 96.4615717,63.1715516 96.9074067,63.1715516 L96.9300982,63.1715516 C97.3709627,63.1715516 97.7679568,63.2990324 98.1212967,63.5520295 C98.4796071,63.806118 98.7333202,64.139882 98.8824361,64.5535398 L101.564361,72.0596283 Z" id="Fill-8"></path>
                    <path d="M107.049234,67.4722832 C107.992122,67.8243835 108.683458,68.2561593 109.123674,68.7682655 C109.565187,69.2808083 109.784754,69.9147198 109.784754,70.6702183 C109.784754,71.585941 109.467289,72.3418761 108.832141,72.9367139 C108.078566,73.6461534 106.977485,74 105.527603,74 C104.985167,74 104.290373,73.8760118 103.444951,73.6273805 C103.179136,73.5496696 102.975992,73.389882 102.837898,73.1464897 C102.699587,72.9035339 102.664145,72.6472625 102.730275,72.3776755 L102.737839,72.3543186 C102.81002,72.0648673 102.973831,71.8478879 103.229705,71.7025074 C103.486228,71.5582183 103.755285,71.5294041 104.03666,71.6171563 C104.718487,71.8299882 105.261572,71.9352035 105.665914,71.9352035 C106.168369,71.9352035 106.560393,71.8376283 106.841552,71.6405133 C107.128978,71.4495103 107.272043,71.1823245 107.272043,70.8407021 C107.272043,70.5409912 107.144538,70.2851563 106.887583,70.0725428 C106.631709,69.8605841 106.18609,69.6431681 105.550727,69.4200767 C103.604008,68.7171858 102.630216,67.6558643 102.630216,66.2378584 C102.630216,65.2752035 102.999116,64.4994041 103.737132,63.9091504 C104.474931,63.314531 105.443104,63.0165664 106.641866,63.0165664 C107.071925,63.0165664 107.651532,63.1097758 108.37831,63.2961947 C108.655147,63.3634277 108.862397,63.5186313 109.000923,63.7618053 C109.144853,64.0102183 109.180727,64.2717286 109.108546,64.5456814 L109.100982,64.5688201 C109.024047,64.8331681 108.868016,65.0348673 108.632024,65.1745723 C108.391493,65.3092566 108.140373,65.340472 107.879096,65.2675634 C107.397819,65.1333156 106.975324,65.0658643 106.610963,65.0658643 C106.13444,65.0658643 105.763379,65.1664956 105.496699,65.3686313 C105.261572,65.5502478 105.14336,65.7720295 105.14336,66.035941 C105.14336,66.3419823 105.294637,66.5982537 105.596758,66.8045369 C105.842475,66.9750206 106.326562,67.1981121 107.049234,67.4722832" id="Fill-9"></path>
                    <path d="M35.9771316,73.7673038 L35.938664,73.7673038 C35.2108055,73.7673038 34.6551866,73.4520944 34.2711591,72.8203658 L30.5285658,66.672472 L30.5285658,72.5175988 C30.5285658,72.8646785 30.4079764,73.1591504 30.167446,73.4023245 C29.9260511,73.6461534 29.6340864,73.7673038 29.291336,73.7673038 L29.2682122,73.7673038 C28.9248134,73.7673038 28.6328487,73.6461534 28.3921022,73.4023245 C28.1507073,73.1591504 28.0309823,72.8646785 28.0309823,72.5175988 L28.0309823,64.4605487 C28.0309823,64.1143422 28.1507073,63.8192153 28.3921022,63.5753864 C28.6328487,63.3324307 28.9248134,63.2104071 29.2682122,63.2104071 L29.990668,63.2104071 C30.4256974,63.2104071 30.7669352,63.3920236 31.0126523,63.7539469 L35.4761886,70.8088319" id="Fill-10"></path>
                    <g id="Group-14" transform="translate(15.343811, 0.000000)">
                        <path d="M19.3159136,70.3052389 L19.3159136,64.4605487 C19.3159136,64.113469 19.4367191,63.8183422 19.6772495,63.5753864 C19.9184283,63.3315575 20.210609,63.2104071 20.5533595,63.2104071 L20.5762672,63.2104071 C20.9198821,63.2104071 21.2120629,63.3315575 21.4523772,63.5753864 C21.693556,63.8183422 21.8134971,64.113469 21.8134971,64.4605487 L21.8134971,72.5175988 C21.8134971,72.8638053 21.693556,73.1587139 21.4523772,73.4023245 C21.2120629,73.6452802 20.9198821,73.7673038 20.5762672,73.7673038" id="Fill-11"></path>
                        <path d="M0.181100196,57.6735044 C0.181100196,57.6735044 20.3789587,25.3422714 22.4374067,26.409705 C24.7143418,27.5904307 21.5204519,40.8770324 22.7194303,41.7766018 C23.2117289,42.1461652 46.3847741,-1.14514454 51.8785069,0.179651917 C58.0082515,1.65768732 49.0837721,24.2870619 51.4557957,25.8796991 C54.6410413,28.0184956 60.4710413,7.46570501 65.9647741,11.3075929 C72.8677603,17.0038466 65.5420629,32.2384602 70.8953242,34.0930442 C76.2481532,35.9478466 79.6291945,29.3238643 81.4600786,29.721587 C83.2911788,30.1188732 72.8677603,43.2338997 65.6833988,38.1999351 C58.4992534,33.1659705 65.1256189,21.1871386 61.3164637,18.858649 C58.4992534,17.1363481 53.9914145,32.9007493 49.0610806,31.4436696 C44.7736739,30.1765015 50.3287819,19.3884366 48.2158743,18.7261475 C46.1029666,18.0636401 21.0292338,55.1568496 17.7890963,53.3018289 C14.549391,51.4476814 20.6069548,38.994944 18.7754224,38.3324366 C16.94389,37.6699292 2.4351277,60.5885369 0.181100196,57.6735044" id="Fill-13"></path>
                    </g>
                    <path d="M34.1192338,38.3324366 C32.2877014,37.6699292 17.0776621,61.1298938 15.5249116,57.6735044 C15.2195481,56.9939705 35.7227701,25.3422714 37.7812181,26.409705" id="Fill-15"></path>
                    <path d="M56.5486444,67.2902301 L60.083556,67.2902301 L60.083556,64.5782065 C60.083556,64.2265428 60.2039293,63.929233 60.4444597,63.6854041 C60.690609,63.4372094 60.9877603,63.3127847 61.3359136,63.3127847 L61.3592534,63.3127847 C61.7024361,63.3127847 61.9969941,63.4372094 62.2431434,63.6854041 C62.4886444,63.929233 62.6120432,64.2265428 62.6120432,64.5782065 L62.6120432,72.6044779 C62.6120432,72.9567965 62.4886444,73.2543245 62.2431434,73.4968437 C61.9969941,73.7454749 61.7024361,73.8694631 61.3592534,73.8694631 L61.3359136,73.8694631 C60.9877603,73.8694631 60.690609,73.7454749 60.4444597,73.4968437 C60.2039293,73.2543245 60.083556,72.9567965 60.083556,72.6044779 L60.083556,69.3783835 L56.5486444,69.3783835 L56.5486444,72.6044779 C56.5486444,72.9567965 56.4254617,73.2543245 56.1797446,73.4968437 C55.9387819,73.7454749 55.6444401,73.8694631 55.2958546,73.8694631 L55.2727308,73.8694631 C54.9243615,73.8694631 54.6298035,73.7454749 54.3892731,73.4968437 C54.1431238,73.2543245 54.0199411,72.9567965 54.0199411,72.6044779 L54.0199411,64.5782065 C54.0199411,64.2265428 54.1431238,63.929233 54.3892731,63.6854041 C54.6298035,63.4372094 54.9243615,63.3127847 55.2727308,63.3127847 L55.2958546,63.3127847 C55.6444401,63.3127847 55.9387819,63.4372094 56.1797446,63.6854041 C56.4254617,63.929233 56.5486444,64.2265428 56.5486444,64.5782065 L56.5486444,67.2902301" id="Fill-16"></path>
                </g>
            </g>
        </g>
    </g>
</svg>