<?xml version="1.0" encoding="UTF-8"?>
<svg width="406px" height="266px" viewBox="0 0 406 266" version="1.1" xmlns="http://www.w3.org/2000/svg" xmlns:xlink="http://www.w3.org/1999/xlink">
    <!-- Generator: Sketch 51.3 (57544) - http://www.bohemiancoding.com/sketch -->
    <title>join the revolution</title>
    <desc>Created with Sketch.</desc>
    <defs></defs>
    <g id="Page-1" stroke="none" stroke-width="1" fill="none" fill-rule="evenodd">
        <g id="Artboard-5" transform="translate(-760.000000, -246.000000)">
            <g id="join-the-revolution" transform="translate(761.000000, 247.000000)">
                <path d="M110,246.032159 C106.000536,247.204474 101.639367,248.595809 97,250 L97.4312432,247.172276 C101.180317,246.367117 105.409285,245.86468 110,246.032159 Z" id="XMLID_125_" fill="#455AA5" fill-rule="nonzero"></path>
                <path d="M97,248 L96.5846928,250.918885 C94.4478515,251.617013 92.2507053,252.315142 90,253 L90.4354225,249.981365 C92.3846846,249.25 94.588495,248.551872 97,248 Z" id="XMLID_174_" fill="#3B4E88" fill-rule="nonzero"></path>
                <path d="M360.098301,179.657351 C349.498759,197.972539 356.433054,208.309764 328.561561,236.239454 C323.346717,241.468306 315.443044,245.903623 306.018148,249.587915 L306.258701,244.557469 C306.357772,243.189995 306.435595,241.794239 306.499296,240.370115 C306.654942,236.877136 306.704478,233.525869 306.669108,230.337547 C299.706525,233.752599 292.835974,235.445919 286.807399,236.239454 C286.234263,232.94488 285.590386,228.6796 285.059703,223.656245 C283.807277,223.854607 282.434574,223.989227 280.955718,224.003411 C279.583016,224.024644 278.13249,223.946718 276.604142,223.719988 C275.677217,223.585368 274.806867,223.408239 273.986096,223.202785 C273.922395,223.719988 273.851654,224.244283 273.773831,224.782762 C273.087459,229.508552 272.167616,233.334556 271.474204,235.885196 C269.330223,235.318392 267.101379,234.652385 264.815874,233.880127 C260.44305,232.399309 256.445262,230.698897 252.822425,228.927607 C252.921496,232.569346 253.006402,236.225313 253.077186,239.902513 C253.126722,242.332718 253.176214,244.755831 253.211627,247.178943 L253.721063,261.696474 C231.474821,264.402967 210.381933,264.962722 199.598458,262.086149 C184.48461,258.054691 174.620976,252.712452 164.622901,248.581835 C153.683736,244.047315 142.581841,240.958195 124.241441,242.601958 C120.250693,242.956216 115.403804,244.281137 109.884707,246.031151 C105.214669,245.84693 100.912628,246.399593 97.0987743,247.285238 C94.5514689,247.873319 92.2235541,248.617252 90.1645222,249.396602 L89.7045795,252.613293 C70.3028187,258.543569 47.1084037,263.276451 24.7065154,254.186178 C-3.8159367,242.616098 -10.9129609,196.739685 20.9351146,145.039268 C49.9457969,97.944184 11.0290279,76.5895432 32.2351084,26.1502843 C43.5775983,-0.822926664 97.0987743,-7.50422779 135.2089,8.79164123 C165.493213,21.7432921 169.844833,35.6656496 199.952252,38.5493151 C226.974643,41.1353727 232.847528,20.5529903 273.894113,13.7512535 C346.774607,1.67106363 398.894756,44.9117754 403.734606,102.868379 C407.428135,147.065613 371.539819,159.903921 360.098301,179.657351 Z" id="XMLID_670_" stroke-opacity="0.1" stroke="#000000" fill="#FAFAFA" fill-rule="nonzero"></path>
                <g id="XMLID_16_" transform="translate(90.000000, 57.000000)">
                    <path d="M9.44743634,129.834281 C9.60338418,158.968701 9.69555092,163.720423 9.21347129,171.677749 C8.9298747,176.372766 8.41235631,182.791116 7.36312673,190.535688 C4.81088711,191.124345 2.47846299,191.869008 0.415442607,192.649122 C1.58518126,183.521581 2.41463858,175.748657 3.0101741,169.727419 C4.69037796,152.6071 4.6549392,147.07522 4.60530765,144.55043 C4.38553539,132.976124 2.96763891,132.876824 2.83293704,122.742172 C2.71242796,113.29552 2.58482246,103.650225 7.0866265,92.4234032 C12.1839661,79.714355 20.3297745,72.16834 22.6834878,70.0832581 C25.2144382,67.8421705 27.653222,66.097496 29.751681,64.7571202 C30.375559,64.9840296 30.9781909,65.2109823 31.5595336,65.437935 C31.9990781,65.6081386 32.4315262,65.7712866 32.8498246,65.9414903 C15.8066812,82.7001487 10.8015083,97.3737251 9.4474362,107.848742 C9.3410768,108.699803 9.3765155,115.756461 9.44743634,129.834281 Z" id="XMLID_121_" fill="#383F6F" fill-rule="nonzero"></path>
                    <path d="M74.466534,169.245767 C66.1151462,162.721017 56.6152224,153.636027 48.2071067,141.302838 C43.6485747,134.614984 40.1960002,128.132785 37.572883,122.267597 C42.8616525,127.742728 48.3347122,133.260367 53.9992017,138.8206 C60.6491397,145.33825 67.2423497,151.600595 73.7717785,157.607591 C74.0128399,161.458601 74.2467617,165.338008 74.466534,169.245767 Z" id="XMLID_59_" fill="#383F6F" fill-rule="nonzero"></path>
                    <path d="M120.043362,153.358861 C112.507239,155.997105 103.680825,158.479344 93.6988212,160.20982 C88.4029986,161.131786 83.3836329,161.727542 78.690399,162.103401 C77.0527303,160.621175 75.4150616,159.12475 73.7702965,157.607028 C67.2408676,151.599989 60.6476576,145.337687 53.9977197,138.820015 C48.3332302,133.259782 42.8601705,127.742143 37.5714011,122.267012 C40.1945182,128.132201 43.6470927,134.614399 48.2056247,141.302275 C56.6137405,153.635421 66.1136642,162.720455 74.465052,169.245161 C74.578508,171.266438 74.6848243,173.30187 74.7911838,175.344401 C75.0747804,180.81239 75.322895,186.230772 75.5355708,191.592405 C75.3654302,191.670408 75.1881931,191.75551 75.0180524,191.833556 C64.057697,187.294588 52.9342974,184.202439 34.558371,185.847814 C30.5598926,186.202419 25.7036144,187.52864 20.1738268,189.28037 C15.4947424,189.095969 11.1843683,189.649174 7.36312687,190.535688 C8.41235645,182.791116 8.92987477,176.372766 9.21347144,171.677749 C9.69555107,163.720423 9.60338432,158.968701 9.44743648,129.834281 C9.37651571,115.756461 9.34107695,108.699803 9.44743648,107.848741 C10.8015086,97.373725 15.8066814,82.7001486 32.8498249,65.9414902 C35.0262579,66.7854529 36.8907953,67.5514129 38.4008585,68.1896768 C45.1713056,71.0690716 50.3041272,73.2747072 56.1812926,77.1753675 C58.8256557,78.927141 60.9383509,80.5796147 62.4484141,81.8277897 C62.9446433,82.6717524 63.3416525,83.4873624 63.6465383,84.2391242 C63.6535914,84.2462233 63.6535914,84.2462233 63.6535914,84.2462233 C63.9158988,84.5440798 64.1640567,84.8419362 64.4263641,85.1539908 C68.7934662,90.3596183 71.0337669,95.1325942 71.6009168,96.3240634 C74.2594727,101.898494 79.6474621,111.366443 91.3663973,128.685363 C92.3659953,128.649911 93.8831549,128.649911 95.7051571,128.85561 C98.5126077,129.181819 99.5193021,129.713727 101.376743,129.919426 C104.361431,130.259834 105.828959,129.366221 108.551296,128.85561 C111.011369,128.401705 114.605698,128.252755 119.369853,129.749179 C119.384046,130.217283 119.391099,130.678244 119.405292,131.146347 C119.476212,134.011544 119.554186,136.88384 119.63216,139.763256 C119.745573,143.890869 119.873222,148.004327 120.000827,152.103544 C120.014977,152.521998 120.029169,152.940408 120.043362,153.358861 Z" id="XMLID_99_" fill="#404778" fill-rule="nonzero"></path>
                    <path d="M38.8135424,77.7079034 C42.0463447,76.6086135 50.2063458,74.3604269 57.15403,78.3319909 C59.7700507,79.8213383 61.6416736,81.8638693 63.6479985,84.2397303" id="XMLID_55_" stroke="#383F6F" stroke-width="0.847902098" stroke-linecap="round"></path>
                    <path d="M63.0382917,82.3177747 C62.8539582,82.1617258 62.6554753,81.9986211 62.4498958,81.8284174 C60.9398326,80.5801992 58.8271374,78.9277255 56.1827743,77.1759952 C50.3056089,73.275335 45.1727873,71.0696992 38.4023402,68.1902613 C36.892277,67.5519974 35.0277396,66.7860374 32.8513066,65.9420747 C32.4330081,65.771871 32.0005601,65.6087663 31.5610156,65.4385626 C32.4046657,64.339251 33.290851,63.2257846 34.2053788,62.1052625 C35.637468,60.3463898 37.0624609,58.6797614 38.4803574,57.0911358 C43.031793,60.2258361 47.5832286,63.3605364 52.1346642,66.4952801 C54.3324297,68.0129586 56.5372484,69.5306805 58.7349706,71.0484023 L59.1390763,71.3250049 C60.4364638,74.9916134 61.7338512,78.6511229 63.0382917,82.3177747 Z" id="XMLID_80_" fill="#383F6F" fill-rule="nonzero"></path>
                    <path d="M38.4803575,57.0911357 C37.062461,58.6797613 35.6374681,60.3463898 34.2053788,62.1052624 C33.2908512,63.2257846 32.4046659,64.3392509 31.5610157,65.4385625 C30.979673,65.2116099 30.377041,64.9846572 29.7531631,64.7577044 C29.3916359,64.6229526 29.0300653,64.4882008 28.654302,64.353449 C31.1498136,61.3960514 33.6523784,58.4386105 36.1549865,55.488312 C36.7434257,55.8925674 37.3247684,56.2968229 37.9131643,56.7010784 C38.1045942,56.8287312 38.2889276,56.956384 38.4803575,57.0911357 Z" id="XMLID_79_" fill="#383F6F" fill-rule="nonzero"></path>
                    <path d="M60.8831047,44.8146958 C60.7838416,47.8217434 60.6137009,48.5948024 60.4931918,51.3252473 C59.1887079,52.5734655 58.1465748,53.4670782 57.2461967,54.4244957 C55.1973259,56.6159766 52.9570685,60.2258361 52.1346643,66.49528 C47.5832287,63.3605364 43.0317931,60.225836 38.4803575,57.0911357 C38.2889276,56.956384 38.1045942,56.8287312 37.9131643,56.7010784 C38.3598052,56.091124 38.8348316,55.3535602 39.2601833,54.4812446 C39.295622,54.4102975 39.3310608,54.3322947 39.3594464,54.2613909 C40.2243425,54.9422057 41.2877648,55.537962 42.5780558,55.8571156 C45.7683229,56.6514284 48.3843436,55.3110093 50.7734958,54.0840882 C52.0141552,53.445781 55.041378,51.7011064 57.0264244,48.2756487 C57.5226969,47.4174879 58.8058915,45.1905551 57.9976801,44.1054848 C57.9693377,44.0629339 57.9338557,44.027482 57.898417,43.9990859 C58.3025226,43.0345693 58.2457947,42.3892064 58.0473117,41.9353011 C57.5156005,40.7367328 56.0055373,41.0062364 54.8570446,39.4105118 C53.9637629,38.1693926 53.6731132,36.3538142 54.2757019,34.7580896 C54.374965,34.495685 55.3958522,31.9354005 57.8204431,31.6942931 C58.7420671,31.6091912 59.5289893,31.8857939 60.0890861,32.1907494 C60.4719026,33.1481669 60.4860954,34.3396361 60.5286305,35.9495588 C60.7058676,43.247324 60.9894642,41.1906382 60.8831047,44.8146958 Z" id="XMLID_78_" fill="#C48D79" fill-rule="nonzero"></path>
                    <path d="M54.2757019,34.7580897 C53.6731132,36.3538143 53.9637629,38.1693927 54.8570446,39.4105118 C56.0055373,41.0062365 57.5156005,40.7367328 58.0473117,41.9353011 C58.2457947,42.3892065 58.3025227,43.0345695 57.898417,43.9990859 C57.310021,43.3891749 56.2749411,43.8785322 54.9421149,43.1338694 C53.3469814,42.2402566 52.8081738,40.3963254 52.4182609,39.0559063 C52.1063219,37.9920899 51.482444,35.857358 52.4182609,33.5169705 C52.7443927,32.7084596 53.7014555,30.3042241 55.9204669,29.9212657 C57.1823723,29.7085111 58.5222948,30.2120232 59.3730414,31.0772831 C59.6991731,31.4105915 59.9330949,31.779395 60.089086,32.1907495 C59.5289892,31.8857939 58.7420671,31.6091913 57.820443,31.6942931 C55.3958522,31.9354006 54.374965,34.4956851 54.2757019,34.7580897 Z" id="XMLID_77_" fill="#E8B49E" fill-rule="nonzero"></path>
                    <path d="M68.1427278,19.9923123 C66.8311908,24.9780429 64.0308366,28.3467949 62.3010012,30.1056675 C63.1021162,32.4602531 63.6409237,34.3963852 63.9812051,35.6871543 C64.7468813,38.616199 65.0020922,40.2686294 66.0158831,42.8714648 C66.2214625,43.3962739 66.4128924,43.8714331 66.583033,44.2827876 C67.2140073,45.8005094 67.6889906,46.6373732 68.4972019,47.0345296 C71.1203191,48.3111007 74.9628064,44.8855996 75.324377,44.5522913 C75.3385697,44.729594 75.3598157,44.9281506 75.3811049,45.1338494 C75.4732717,46.1834678 75.5866843,47.5522397 75.6788511,49.1621625 C75.9199125,53.545081 75.8135529,56.247173 75.6788511,59.1833168 C75.4377896,64.509498 75.0407804,65.5662154 74.1687878,66.3605282 C72.8076193,67.6016474 70.9217928,67.6016474 70.0994319,67.6016474 C67.0438667,67.6016474 64.9453643,65.7293201 64.1584421,65.0272081 C61.8543603,62.9775781 61.1170698,60.4953398 60.790938,59.3535205 C60.7767452,59.3180686 60.7696488,59.2755176 60.7554992,59.2400225 C60.5073414,58.3109578 60.3372007,57.1549405 60.4364639,53.0628228 C60.4506567,52.3961627 60.4719026,51.8288026 60.4931918,51.3252473 C60.6137009,48.5948024 60.7838416,47.8217434 60.8831047,44.8146958 C60.9894643,41.1906382 60.7058677,43.247324 60.5286306,35.9495589 C60.4860954,34.3396362 60.4719026,33.1481669 60.0890862,32.1907495 C59.9330951,31.779395 59.6991733,31.4105915 59.3730415,31.0772831 C58.522295,30.2120232 57.1823724,29.7085111 55.920467,29.9212657 C53.7014556,30.3042241 52.7443927,32.7084596 52.418261,33.5169705 C51.4824442,35.857358 52.1063221,37.9920899 52.418261,39.0559063 C52.8081739,40.3963254 53.3469815,42.2402566 54.9421151,43.1338694 C56.2749412,43.8785322 57.3100213,43.3891749 57.8984171,43.9990859 C57.9338559,44.0274821 57.9693379,44.062934 57.9976802,44.1054849 C58.8058916,45.1905552 57.522697,47.4174879 57.0264246,48.2756488 C55.0413782,51.7011066 52.0141553,53.4457811 50.7734959,54.0840882 C48.3843438,55.3110094 45.768323,56.6514284 42.5780559,55.8571156 C41.287765,55.537962 40.2243426,54.9422058 39.3594465,54.261391 C37.7572165,53.0202718 36.849742,51.509649 36.5519959,50.9777408 C36.9702944,49.6444207 37.4027424,47.6798925 37.2184089,45.3537031 C36.9773475,42.3182594 35.8430476,40.60908 34.6023882,37.8573381 C33.7162029,35.8857108 31.546823,31.070184 31.2774193,25.9780545 C31.1852525,24.176631 31.0009191,19.439107 33.8083697,14.807982 C37.3176721,9.0066415 43.3224429,7.02081621 44.6623655,6.60950499 C51.1208737,4.64497681 53.6660169,7.67332143 58.9264007,4.8364776 C62.1450101,3.10600116 62.2159309,1.4251746 65.3991016,0.581211854 C66.1222427,0.389711066 71.1982931,-0.872661955 74.7926658,2.53154199 C75.0478769,2.77264946 78.1318277,5.78679602 77.4512218,9.97825704 C77.1321864,11.9640391 75.813553,15.1412903 73.0982692,15.8434022 C72.9848565,15.8788974 72.8714006,15.9001512 72.7508915,15.9214483 C70.9643281,16.2264039 69.4401153,15.3327911 68.8516762,14.9427337 C68.8233336,16.3895086 68.6390002,18.1128859 68.1427278,19.9923123 Z" id="XMLID_81_" fill="#483025" fill-rule="nonzero"></path>
                    <path d="M75.0478767,20.212166 C74.4523844,20.0632161 73.8214101,19.8575605 73.1691898,19.5809579 C73.1620934,19.5809579 73.154997,19.5738588 73.1479006,19.5738588 C72.2900576,19.2192533 71.318802,19.7015116 71.1486614,20.6093224 C71.0848803,20.9426308 71.0139595,21.2759824 70.9217928,21.6234889 C70.1915986,24.4532337 68.7878949,26.6659684 67.4266831,28.2758911 C66.3420148,29.5595613 66.1647777,31.4105915 66.9729459,32.8928614 C68.107289,34.9637453 69.106887,37.8005891 68.4121316,40.7721848 C68.3128685,41.1835393 68.050561,42.1693529 66.583033,44.2827877 C66.4128924,43.8714332 66.2214625,43.396274 66.0158831,42.8714648 C65.0020922,40.2686295 64.7468813,38.6161991 63.9812051,35.6871544 C63.6409237,34.3963853 63.1021162,32.4602532 62.3010012,30.1056676 C64.0308366,28.346795 66.8311908,24.978043 68.1427278,19.9923124 C68.6390002,18.1128861 68.8233337,16.3895086 68.851676,14.9427339 C69.4401152,15.3327913 70.964328,16.226404 72.7508914,15.9214485 C72.8714004,15.9001514 72.9848564,15.8788975 73.0982691,15.8434024 C73.5449099,16.5030066 74.0624283,17.3895203 74.4949196,18.4887887 C74.7359377,19.0845015 74.9131748,19.6589606 75.0478767,20.212166 Z" id="XMLID_72_" fill="#C48D79" fill-rule="nonzero"></path>
                    <path d="M77.2456422,37.197777 C77.2952738,38.9353093 76.9124141,40.2544746 76.2956325,42.3962622 C75.9907899,43.4530229 75.6717546,44.3749885 75.3811049,45.1338494 C75.3598156,44.9281505 75.3385697,44.729594 75.3243769,44.5522913 C74.9628063,44.8855996 71.120319,48.3111007 68.4972018,47.0345296 C67.6889905,46.6373732 67.2140072,45.8005095 66.5830329,44.2827876 C68.050561,42.1693528 68.3128683,41.1835392 68.4121315,40.7721847 C69.106887,37.8005891 68.107289,34.9637453 66.9729458,32.8928614 C66.1647777,31.4105914 66.3420148,29.5595612 67.426683,28.2758911 C68.7878948,26.6659684 70.1915985,24.4532337 70.9217927,21.6234888 C71.0139594,21.2759824 71.0848802,20.9426307 71.1486613,20.6093223 C71.3188019,19.7015115 72.2900576,19.2192533 73.1479005,19.5738587 C73.154997,19.5738587 73.1620933,19.5809578 73.1691898,19.5809578 C73.82141,19.8575604 74.4523844,20.0632161 75.0478766,20.2121659 C75.345666,21.3965361 75.4661752,22.5242006 75.5866843,23.7511216 C75.7852105,25.7085508 75.600877,25.6589008 75.7993601,28.119842 C75.9765971,30.3609729 76.2672902,32.1340003 76.3877992,32.8219142 C76.9266069,35.914107 77.203107,35.7722561 77.2456422,37.197777 Z" id="XMLID_82_" fill="#E8B49E" fill-rule="nonzero"></path>
                    <path d="M60.7554992,59.2400225 C60.0961825,61.5449581 59.5219362,64.1193973 59.1390764,66.9491421 C58.9405934,68.381762 58.8129879,69.750534 58.7349707,71.0484022 C56.5372485,69.5306804 54.3324298,68.0129585 52.1346643,66.49528 C52.9570685,60.225836 55.1973259,56.6159765 57.2461967,54.4244957 C58.1465748,53.4670782 59.1887079,52.5734654 60.4931918,51.3252473 C60.4719026,51.8288026 60.4506566,52.3961627 60.4364638,53.0628228 C60.3372007,57.1549405 60.5073413,58.3109578 60.7554992,59.2400225 Z" id="XMLID_76_" fill="#E8B49E" fill-rule="nonzero"></path>
                    <path d="M123.914192,149.74186 L123.914192,149.734761 C123.892946,149.550402 123.871657,149.366 123.843314,149.181598 C123.793683,148.74899 123.744051,148.309283 123.687323,147.876631 C123.013857,142.323541 122.347444,136.777484 121.666838,131.22435 C121.581768,131.22435 121.489601,131.217251 121.404531,131.217251 L121.397434,131.217251 C120.731021,131.195997 120.071704,131.1747 119.405291,131.146347 C119.476212,134.011544 119.554186,136.88384 119.63216,139.763256 C119.745573,143.890869 119.873221,148.004327 120.000827,152.103544 C121.376188,151.88369 122.744453,151.656738 124.119814,151.436884 C124.048894,150.869524 123.985113,150.309263 123.914192,149.74186 Z M121.71647,149.826961 C121.099688,149.826961 120.603416,149.330548 120.603416,148.713538 C120.603416,148.103584 121.099688,147.607128 121.71647,147.607128 C122.326155,147.607128 122.822427,148.103584 122.822427,148.713538 C122.822427,149.330548 122.326155,149.826961 121.71647,149.826961 Z" id="XMLID_65_" fill="#FFFFFF" fill-rule="nonzero"></path>
                    <path d="M122.823898,148.714101 C122.823898,149.331111 122.327626,149.827567 121.717941,149.827567 C121.101159,149.827567 120.604887,149.331111 120.604887,148.714101 C120.604887,148.10419 121.101159,147.607734 121.717941,147.607734 C122.327626,147.607734 122.823898,148.10419 122.823898,148.714101 Z" id="XMLID_43_" fill="#3B4E88" fill-rule="nonzero"></path>
                    <path d="M184.593091,166.429614 C184.529267,166.947324 184.458389,167.472134 184.380415,168.011141 C183.692713,172.741566 182.771089,176.571322 182.076333,179.124464 C179.928199,178.557104 177.695038,177.890444 175.405106,177.117428 C171.023811,175.635159 167.01828,173.933078 163.388425,172.160051 C161.141071,171.053683 159.042612,169.926019 157.085908,168.7842 C158.900814,158.656646 160.219447,150.089366 161.16236,143.486614 C162.551871,133.763338 163.168653,128.011647 163.466442,125.047107 C163.884697,120.940791 164.168294,117.472739 164.352627,114.940851 C162.317949,120.99754 157.858637,131.195997 148.032625,139.678133 C144.899086,142.380246 141.765503,144.444075 138.908465,146.011403 C138.674499,145.387337 138.440578,144.763228 138.206613,144.139119 C138.334218,143.280958 138.405096,142.28099 138.490166,141.082422 C138.865929,141.039871 139.475614,140.912218 139.837185,140.429916 C140.184563,139.968955 140.134931,139.401573 140.099492,139.096575 C139.695387,135.039909 138.731227,132.940629 138.731227,132.940629 C138.135692,131.635705 137.497664,130.252735 136.115207,128.770465 C135.243214,127.8414 134.342836,127.153486 133.548818,126.664129 C133.541721,126.65703 133.541721,126.65703 133.541721,126.65703 C133.378677,126.50808 133.215589,126.352074 133.045449,126.203125 C132.584658,125.791813 132.145114,125.394657 131.634649,125.089658 C132.506641,124.196089 133.619695,123.040071 134.874547,121.678355 C138.688692,117.536587 142.283065,113.635927 144.856551,109.501215 C147.309484,105.579301 148.422538,101.643146 150.648646,93.7851195 C152.024007,88.9128437 154.044492,84.2462234 155.377318,79.3597495 C155.625476,78.444883 156.228065,76.1753993 158.14933,74.1612211 C159.127682,73.1328998 160.23364,72.4023917 162.346292,71.4449742 C166.337674,69.6222969 169.16637,69.1400386 174.043938,67.8634676 C175.02229,67.6081187 176.298388,67.2677113 177.815548,66.828004 C177.439784,67.4733669 177.071161,68.147126 176.702494,68.8421388 C175.67451,70.792469 174.83086,72.6718953 174.129008,74.4307246 C175.745431,88.7993456 177.503609,100.409125 178.829338,108.472851 C180.495349,118.550754 181.778544,124.841452 183.437502,136.486683 C184.23152,142.061136 184.855398,147.061065 185.344574,151.295033 L185.344574,151.31633 C185.415452,154.763085 185.436741,159.919063 184.593091,166.429614 Z" id="XMLID_608_" fill="#0296D7" fill-rule="nonzero"></path>
                    <path d="M235.135488,125.168289 C234.99369,125.01936 234.844817,124.870432 234.70304,124.721482" id="XMLID_98_" stroke="#AB3333" stroke-width="0.847902098"></path>
                    <path d="M243.699574,142.423403 C242.919748,146.678669 242.458914,149.019057 240.807053,149.976474 C241.806694,140.77093 241.289132,133.274565 240.566035,127.941284 C240.239903,125.537092 240.013034,124.622182 239.275744,122.040687 C240.381701,121.395281 241.487659,120.742819 242.593616,120.097413 C243.848468,125.657646 244.117872,128.139884 244.231285,129.303001 C244.422715,131.253331 244.833874,136.239061 243.699574,142.423403 Z" id="XMLID_111_" fill="#0F729D" fill-rule="nonzero"></path>
                    <path d="M232.994473,87.6155597 C232.108287,88.1262141 231.229155,88.6439243 230.34297,89.1545786 C229.229959,85.6014248 228.095616,82.9347847 226.273614,79.8355363 C223.700128,75.4667726 220.885624,72.1476705 218.638271,69.8285801 C220.921063,70.530692 222.480758,71.1831539 224.11133,72.4739231 C225.954578,73.9277969 227.053483,75.5235216 228.010546,76.9135906 C229.336275,78.8284256 230.229557,80.6369482 231.555287,83.9134993 C232.094094,85.2468194 232.576174,86.4950376 232.994473,87.6155597 Z" id="XMLID_595_" fill="#0F729D" fill-rule="nonzero"></path>
                    <path d="M218.588639,69.8143821 L207.224178,66.8285884 C210.861086,67.6796502 214.058449,68.5236129 216.75954,69.2824739 C217.425954,69.4668756 218.028542,69.6441783 218.588639,69.8143821 Z" id="XMLID_593_" fill="#43B38D" fill-rule="nonzero"></path>
                    <path d="M217.169271,183.613782 C217.105447,185.039303 217.027473,186.436428 216.92821,187.805243 L216.687192,192.840623 C201.551121,198.762517 182.494589,202.755379 164.288803,204.961058 L163.778381,190.429289 C163.742899,188.003799 163.693311,185.57831 163.643679,183.145722 C163.572758,179.464915 163.487688,175.805362 163.388425,172.160051 C167.01828,173.933078 171.023811,175.635159 175.405106,177.117428 C177.695038,177.890444 179.928199,178.557104 182.076333,179.124464 C182.771089,176.571322 183.692713,172.741566 184.380415,168.011141 C184.458389,167.472134 184.529267,166.947324 184.593091,166.429614 C185.415452,166.63527 186.287488,166.812572 187.216208,166.947324 C188.747517,167.174277 190.200852,167.25228 191.576214,167.231026 C193.057935,167.216828 194.433296,167.082076 195.688148,166.88352 C196.219859,171.911801 196.864983,176.181265 197.43923,179.47907 C203.479482,178.684757 210.363342,176.989776 217.339412,173.571374 C217.374851,176.762823 217.325219,180.117377 217.169271,183.613782 Z" id="XMLID_618_" fill="#404778" fill-rule="nonzero"></path>
                    <path d="M193.456415,78.8780756 C192.428432,79.9773872 191.336667,80.9490027 190.202324,81.6936655 C189.578446,82.10502 188.741892,82.5730802 187.692663,82.5234302 C184.920694,82.3957774 182.914358,78.7717199 181.787112,76.0412317 L181.787112,76.034176 C181.829647,71.5164624 181.950199,66.2044792 182.212506,60.325136 C182.233752,59.8003268 182.255042,59.2684186 182.283384,58.7365104 C182.318823,57.9634514 182.361358,57.2471414 182.389743,56.6017785 C184.204649,56.8216322 185.828125,56.2329749 186.62924,55.9422175 C186.813574,55.8783694 186.990811,55.8074657 187.160951,55.7294628 C189.025489,54.93515 190.365411,53.6940309 191.287035,52.5592674 C191.832939,54.8925558 192.322115,57.3960913 192.712028,60.0343353 C193.740012,67.0129902 193.825082,73.3816906 193.456415,78.8780756 Z" id="XMLID_609_" fill="#E8B49E" fill-rule="nonzero"></path>
                    <path d="M185.346046,151.295639 C184.85687,147.061627 184.232992,142.061699 183.438973,136.487311 C181.780015,124.842036 180.496821,118.551338 178.830809,108.473478 C177.50508,100.409753 175.746902,88.7999732 174.130479,74.4313523 C174.832331,72.6724797 175.675981,70.7930966 176.703965,68.8427665 C177.072632,68.1477103 177.441255,67.4739945 177.817019,66.8285883 C179.256161,64.3463499 180.766224,62.1832652 182.212506,60.3251359 C181.950199,66.2044792 181.829647,71.5164624 181.787112,76.0341759 L181.787112,76.0412317 C181.730427,83.2964892 181.858032,88.4879186 181.92891,90.6510033 C182.091954,95.5374772 182.425182,100.594112 183.084499,110.50891 C184.112483,125.962601 184.998668,136.515664 185.331853,150.636035 C185.338949,150.848833 185.338949,151.068687 185.346046,151.295639 Z" id="XMLID_119_" fill="#0F729D" fill-rule="nonzero"></path>
                    <path d="M193.364248,50.8926389 C192.499352,53.55218 191.060167,57.2116895 188.578848,61.4031505 C188.408707,61.4811533 188.23147,61.5520571 188.047137,61.6159051 C187.246022,61.9066625 185.622546,62.4953198 183.80764,62.2754661 C183.240447,62.2045623 182.652051,62.0556124 182.063612,61.7932079 C180.24161,60.977598 179.312889,59.4528204 178.341633,57.8499966 C177.427106,56.3464729 177.065535,55.1337065 176.349491,52.7507682 C175.520033,49.9990262 175.172656,47.8004462 175.023761,46.722475 C175.009568,46.6160761 174.995419,46.5097204 174.981226,46.4033214 C174.981226,46.4033214 174.981226,46.3962224 174.974129,46.3962224 C174.711822,44.5026413 174.548778,43.190575 174.669287,41.4530428 C174.754357,40.1126237 174.85362,38.5523509 175.434963,36.9211744 C176.136815,36.3041644 177.065535,35.7368042 178.214028,35.5098516 C180.177828,35.1197942 181.808401,35.9495589 184.105386,37.1055762 C186.728503,38.4317972 187.253118,39.3679609 190.393753,41.0984374 C192.541887,42.2757085 193.059406,41.9282021 193.718722,42.687063 C194.853022,44.013284 194.874312,46.2614706 193.364248,50.8926389 Z" id="XMLID_599_" fill="#E8B49E" fill-rule="nonzero"></path>
                    <path d="M201.382451,50.6231353 C200.978346,51.4458009 200.177231,53.0415256 198.589194,53.3252273 C197.809368,53.4741339 197.121666,53.2401255 196.731753,53.0628228 C196.575805,53.4599792 196.100778,54.1053421 195.845567,54.5237956 C194.895558,56.0627713 193.832135,57.1053339 192.704932,58.2329551 C191.783308,59.3677186 190.443385,60.6088378 188.578848,61.4031506 C191.060167,57.2116895 192.499352,53.5521801 193.364248,50.892639 C194.874312,46.2614707 194.853022,44.0132841 193.718723,42.687063 C193.059406,41.9282021 192.541888,42.2757086 190.393754,41.0984375 C187.253118,39.367961 186.728503,38.4317973 184.105386,37.1055763 C181.808401,35.949559 180.177829,35.1197943 178.214028,35.5098516 C177.065535,35.7368043 176.136815,36.3041644 175.434963,36.9211745 C175.668885,36.2403164 175.995017,35.5382045 176.441657,34.8431916 C178.029695,32.3255013 180.319584,31.0914379 181.574436,30.5453749 C183.32556,33.3609216 185.21844,34.6871426 186.671775,35.3750998 C188.600137,36.2899663 189.954209,36.1906664 192.392993,37.7722363 C194.328408,39.0346093 195.051549,40.1268218 195.271321,40.4743283 C196.23548,42.020403 196.398568,43.5735767 196.419814,44.4175396 C196.589954,44.2898868 198.11421,43.1551233 199.744783,43.7083286 C201.595127,44.3395367 201.963794,46.5877234 202.048864,47.1267306 C202.318268,48.757907 201.687294,50.02028 201.382451,50.6231353 Z" id="XMLID_616_" fill="#C48D79" fill-rule="nonzero"></path>
                    <path d="M200.673503,68.0271566 L200.673503,68.0342556 C199.213071,70.8852975 196.625393,75.4951687 193.456415,78.8780756 C193.825082,73.3816906 193.740012,67.0129901 192.712028,60.0343353 C192.322115,57.3960913 191.832939,54.8925558 191.287035,52.5592674 C192.414239,51.4316462 193.477661,50.3890835 194.427671,48.8501079 C194.682882,48.4316544 195.157908,47.7862915 195.313856,47.389135 C195.7534,48.3465525 196.185849,49.3465642 196.61834,50.3819845 C197.015349,51.346501 197.412358,52.3465127 197.795175,53.3748772 C198.256009,54.6088973 198.68136,55.8216637 199.071273,57.0060338 C199.128001,57.1762375 199.170536,57.3393422 199.205975,57.5166449 C199.291045,57.9421975 199.376116,58.3819048 199.461186,58.842866 C199.943309,61.3889524 200.404099,64.4882008 200.673503,68.0271566 Z" id="XMLID_108_" fill="#C48D79" fill-rule="nonzero"></path>
                    <path d="M224.499772,169.429563 C223.478885,170.11752 222.415462,170.791236 221.309505,171.443741 C219.990871,172.216757 218.665142,172.925967 217.339412,173.571374 C210.363342,176.989776 203.479482,178.684757 197.43923,179.47907 C196.864983,176.181265 196.219859,171.911801 195.688148,166.88352 C195.503815,165.103393 195.333674,163.231066 195.191876,161.273637 C194.723946,154.933289 194.645972,149.564557 194.78777,143.805767 L194.78777,143.784513 C195.312385,140.522117 195.801561,137.685252 196.255298,135.217211 C197.751169,138.344813 199.254135,141.479578 200.750006,144.607179 C206.152188,141.444126 211.547317,138.281008 216.949499,135.117911 C217.573377,137.919303 218.183062,140.678166 218.707677,143.075303 C220.643092,151.855338 222.571453,160.642429 224.499772,169.429563 Z" id="XMLID_120_" fill="#0296D7" fill-rule="nonzero"></path>
                    <path d="M208.018197,82.5517831 C206.898089,86.2751407 205.302956,91.8921226 203.700726,98.8636352 C203.424226,100.0835 203.190261,101.154416 202.942146,102.296235 C202.835787,102.80689 202.722374,103.338798 202.608918,103.899059 C202.502602,104.402614 202.396242,104.927424 202.28283,105.494784 C200.425389,106.572798 198.567948,107.650769 196.710463,108.735883 C197.121666,103.99126 197.660473,99.707598 198.504123,94.8495202 C199.602984,88.5091726 200.616775,84.4525067 200.864933,77.4738518 C200.985442,74.0696478 200.893275,70.9065514 200.673503,68.0342556 L200.673503,68.0271566 C200.404099,64.4882008 199.943309,61.3889524 199.461186,58.842866 C200.524608,59.722324 201.637662,60.7080943 202.757813,61.8073626 C204.508894,63.5307834 205.983519,65.2257646 207.217082,66.8214893 L207.224178,66.8285884 C207.486485,67.1477419 207.72045,67.4668955 207.954415,67.7789501 C207.245467,71.126405 206.536519,74.4739032 205.827571,77.8284572 C206.557765,79.4029281 207.288002,80.9773556 208.018197,82.5517831 Z" id="XMLID_123_" fill="#0F729D" fill-rule="nonzero"></path>
                    <path d="M200.863462,77.4732674 C200.615304,84.4518789 199.601513,88.5085882 198.502652,94.8489358 C197.659002,99.7070136 197.120194,103.990632 196.708992,108.735255 C193.2919,110.721081 189.867668,112.713962 186.450532,114.706843 C189.371395,120.820238 192.299355,126.940732 195.227315,133.054127 L195.227315,133.061226 C195.028788,136.947688 194.87284,140.429916 194.78777,143.784513 L194.78777,143.805767 C194.645972,149.564557 194.723946,154.933289 195.191876,161.273637 C195.333674,163.231066 195.503815,165.103393 195.688148,166.88352 C194.433296,167.082076 193.057935,167.216828 191.576214,167.231026 C190.200853,167.25228 188.747517,167.174277 187.216208,166.947324 C186.287488,166.812573 185.415452,166.63527 184.593091,166.429614 C185.436741,159.919063 185.415452,154.763085 185.344574,151.31633 L185.344574,151.295033 C185.337478,151.068081 185.337478,150.848227 185.330382,150.635472 C184.997197,136.515079 184.111011,125.962017 183.083028,110.508283 C182.423711,100.593527 182.090483,95.5368496 181.927439,90.6503758 C181.856561,88.487291 181.728956,83.2958616 181.78564,76.0406473 C182.912887,78.7710922 184.919223,82.3951931 187.691191,82.5228458 C188.740421,82.5724958 189.576975,82.1043923 190.200853,81.6930812 C191.335196,80.948375 192.42696,79.9767595 193.454944,78.8774912 C196.623922,75.4945411 199.2116,70.8846699 200.672032,68.0336712 C200.891804,70.905967 200.983971,74.0690634 200.863462,77.4732674 Z" id="XMLID_118_" fill="#FFFFFF" fill-rule="nonzero"></path>
                    <path d="M196.256769,135.217796 C195.803032,137.685879 195.313856,140.522723 194.789241,143.785076 C194.874312,140.430522 195.03026,136.948272 195.228786,133.06181 C195.569067,133.77812 195.916445,134.501486 196.256769,135.217796 Z" id="XMLID_598_" fill="#358E6E" fill-rule="nonzero"></path>
                    <path d="M218.744587,134.068877 C218.149095,134.416384 217.546463,134.770989 216.95097,135.118539 C211.548788,138.281592 206.153659,141.444689 200.751477,144.607742 C199.255607,141.480141 197.75264,138.34544 196.256769,135.217796 C195.916445,134.501486 195.569067,133.77812 195.228786,133.06181 L195.228786,133.054711 C192.300826,126.941316 189.372866,120.820822 186.452003,114.707427 C189.869139,112.714546 193.293371,110.721665 196.710463,108.735883 C198.567948,107.650769 200.425389,106.572798 202.282829,105.494784 C202.424628,105.402583 202.573479,105.317481 202.722374,105.232379 C202.991778,106.920305 203.700726,109.033739 204.941385,110.920221 C205.650334,111.998236 206.437256,112.806747 208.018197,114.40957 C209.464479,115.884698 210.790208,117.083266 211.874877,117.998176 C211.080858,118.558437 210.28684,119.111643 209.492821,119.671904 C211.562938,123.678963 213.725221,127.182467 215.880452,130.239164 C216.837514,131.600837 217.79462,132.877408 218.744587,134.068877 Z" id="XMLID_107_" fill="#DBDBDB" fill-rule="nonzero"></path>
                    <path d="M240.807053,149.976474 C240.764518,150.00487 240.729079,150.026124 240.686544,150.047421 C239.65856,150.586428 236.794425,151.345246 228.634424,144.373733 C225.812823,141.9553 222.353152,138.614944 218.744587,134.068877 C217.79462,132.877408 216.837514,131.600837 215.880452,130.239164 C213.725221,127.182467 211.562938,123.678963 209.492821,119.671904 C210.28684,119.111643 211.080858,118.558437 211.874877,117.998176 C213.38494,116.93436 214.9021,115.870543 216.412163,114.813826 C217.319594,114.175519 218.219972,113.537212 219.127447,112.898948 C219.949808,112.317389 220.779265,111.74293 221.601669,111.161372 C225.968771,115.679042 230.335917,120.196713 234.703019,124.721482 C236.227275,123.827869 237.751488,122.934257 239.275744,122.040687 C240.013034,124.622182 240.239903,125.537092 240.566035,127.941284 C241.289132,133.274565 241.806694,140.77093 240.807053,149.976474 Z" id="XMLID_106_" fill="#0296D7" fill-rule="nonzero"></path>
                    <path d="M249.782362,115.884698 C247.386113,117.288965 244.989865,118.693189 242.593616,120.097413 C241.487659,120.742819 240.381701,121.395281 239.275744,122.040687 C237.751488,122.934257 236.227275,123.827869 234.703019,124.721482 C230.335917,120.196713 225.968771,115.679043 221.601669,111.161372 C220.779265,111.74293 219.949808,112.31739 219.127447,112.898948 C219.084911,110.182658 219.113254,108.076322 219.148693,106.494752 C219.184131,105.267831 219.240859,103.863607 218.772973,102.062184 C218.411402,100.636663 217.858402,99.5090414 217.269962,98.296275 C217.05019,97.8494687 216.844611,97.4594113 216.660277,97.1261029 C221.218809,94.4665618 225.777341,91.8070207 230.34297,89.1545787 C231.229155,88.6439243 232.108287,88.1262142 232.994473,87.6155598 C233.589965,87.2680534 234.1855,86.9205469 234.780993,86.5730405 C239.779069,96.3459449 244.784285,106.118893 249.782362,115.884698 Z" id="XMLID_591_" fill="#DBDBDB" fill-rule="nonzero"></path>
                    <path d="M202.722374,105.232379 C202.573479,105.317481 202.424628,105.402583 202.282829,105.494784 C202.396242,104.927423 202.502602,104.402614 202.608918,103.899059 C202.608918,104.296215 202.651453,104.750121 202.722374,105.232379 Z" id="XMLID_124_" fill="#43B38D" fill-rule="nonzero"></path>
                    <path d="M216.412163,114.813826 C214.902099,115.870543 213.38494,116.93436 211.874877,117.998176 C210.790208,117.083266 209.464479,115.884698 208.018197,114.40957 C206.437256,112.806747 205.650334,111.998236 204.941385,110.920221 C203.700726,109.033739 202.991778,106.920305 202.722374,105.232379 C202.651453,104.750121 202.608918,104.296215 202.608918,103.899059 C202.722374,103.338798 202.835787,102.80689 202.942146,102.296235 C203.005927,102.211133 203.076848,102.154384 203.154822,102.111833 C203.629805,101.863627 204.204051,102.530287 204.749955,102.175681 C205.473096,101.714677 204.905947,100.296255 205.636141,99.8068978 C206.252922,99.3955433 207.025695,100.126051 207.564502,99.6934431 C208.11746,99.2466367 207.585748,98.246625 208.138749,97.8069177 C208.663364,97.4026623 209.393558,98.0480685 209.932365,97.629615 C210.485366,97.2041057 210.038725,96.2962949 210.556243,95.9275346 C211.009981,95.601282 211.648008,96.1260912 212.193912,96.1189922 C212.512947,97.1048057 212.831983,98.1189722 213.136825,99.1686339 C213.959186,101.969983 214.71067,104.984129 215.341644,108.203975 C215.788285,110.494712 216.142759,112.700348 216.412163,114.813826 Z" id="XMLID_83_" fill="#E8B49E" fill-rule="nonzero"></path>
                    <path d="M230.34297,89.1545787 C225.777341,91.8070207 221.218809,94.4665618 216.660277,97.1261029 C216.199487,96.303394 215.83082,95.7785848 215.561416,95.4168803 C215.058047,94.7431212 213.831581,93.1119446 213.257334,93.3530955 C212.675992,93.608401 213.342405,95.5729292 212.52714,96.0338904 C212.420781,96.0977385 212.314421,96.1189922 212.193912,96.1189922 C211.648008,96.1260913 211.009981,95.6012821 210.556243,95.9275347 C210.038725,96.296295 210.485366,97.2041058 209.932365,97.629615 C209.393558,98.0480686 208.663364,97.4026624 208.138749,97.8069178 C207.585748,98.2466251 208.11746,99.2466368 207.564502,99.6934432 C207.025695,100.126052 206.252922,99.3955434 205.636141,99.8068979 C204.905946,100.296255 205.473096,101.714677 204.749955,102.175682 C204.204051,102.530287 203.629805,101.863627 203.154822,102.111833 C203.076848,102.154384 203.005927,102.211133 202.942146,102.296235 C203.190261,101.154416 203.424226,100.083501 203.700726,98.8636352 C205.302956,91.8921226 206.898089,86.2751407 208.018196,82.5517831 C207.288002,80.9773556 206.557765,79.4029281 205.827571,77.8284572 C206.536519,74.4739032 207.245467,71.126405 207.954415,67.7789501 C207.72045,67.4668956 207.486485,67.147742 207.224178,66.8285884 L218.588639,69.8143821 C218.602788,69.8214811 218.616981,69.8214811 218.631174,69.8285801 L218.638271,69.8285801 C220.885624,72.1476705 223.700128,75.4667726 226.273614,79.8355364 C228.095616,82.9347848 229.229959,85.6014249 230.34297,89.1545787 Z" id="XMLID_113_" fill="#0296D7" fill-rule="nonzero"></path>
                    <path d="M219.148693,106.494752 C219.113254,108.076322 219.084911,110.182658 219.127447,112.898948 C218.219972,113.537212 217.319594,114.175519 216.412163,114.813826 C216.142759,112.700348 215.788285,110.494712 215.341644,108.203975 C214.71067,104.984129 213.959186,101.969983 213.136825,99.168634 C212.831983,98.1189724 212.512947,97.1048059 212.193912,96.1189923 C212.314421,96.1189923 212.420781,96.0977385 212.52714,96.0338905 C213.342405,95.5729293 212.675991,93.6084011 213.257334,93.3530955 C213.831581,93.1119447 215.058047,94.7431213 215.561416,95.4168803 C215.83082,95.7785849 216.199487,96.303394 216.660277,97.126103 C216.844611,97.4594114 217.05019,97.8494687 217.269962,98.2962751 C217.858402,99.5090415 218.411402,100.636663 218.772972,102.062184 C219.240859,103.863607 219.184131,105.267831 219.148693,106.494752 Z" id="XMLID_126_" fill="#C48D79" fill-rule="nonzero"></path>
                    <path d="M138.512926,140.742577 C138.50583,140.856031 138.498734,140.969529 138.491637,141.082984 C138.406567,142.281552 138.335689,143.281521 138.208084,144.139682 C137.988312,145.543906 137.612548,146.565171 136.783091,147.38788 L136.775995,147.394979 C136.861065,146.855972 136.853968,146.203467 136.6271,145.522652 C136.456959,145.026196 136.194652,144.238982 135.627502,144.10423 C134.84058,143.919828 134.344307,145.203498 133.458122,145.082945 C132.557744,144.962348 132.444331,143.551025 131.685751,143.529771 C130.79247,143.508474 130.20403,145.444649 129.38167,145.281501 C129.076827,145.224795 128.963371,144.919797 128.608897,144.948193 C128.22608,144.983645 128.148106,145.345349 127.807825,145.373702 C127.396623,145.402098 127.276114,144.87019 126.857815,144.77089 C126.425367,144.67159 125.964534,145.090044 125.014567,146.210566 C124.652997,146.643217 124.19926,147.203478 123.688794,147.877237 C123.015328,142.324104 122.348915,136.778069 121.668309,131.224935 C121.583239,131.224935 121.491072,131.217879 121.406002,131.217879 C122.20002,130.168217 122.809705,129.338453 123.220908,128.771093 C123.99368,127.714375 124.440321,127.083167 125.305217,126.728562 C126.141771,126.39521 126.964175,126.487411 127.474597,126.600909 C127.517132,126.622163 127.566764,126.64346 127.609299,126.664713 C127.65893,127.06187 127.772343,127.35977 127.786536,127.409376 C128.176449,128.430642 129.098073,128.934197 129.750336,129.168249 C130.232416,129.345552 130.629425,129.671761 130.870443,130.118567 C131.076066,130.49447 131.317084,130.941276 131.593584,131.430634 C132.912218,133.72847 133.578631,134.849036 134.138728,134.799386 C135.450265,134.678789 135.471554,132.771053 135.584967,132.097294 C135.627502,131.813592 135.641695,131.466085 135.606256,131.06183 C135.826028,131.246232 135.96073,131.388083 136.074143,131.522834 C137.272267,132.891606 137.711811,134.324183 138.02375,135.331294 C138.69726,137.536929 138.597997,139.345409 138.512926,140.742577 Z" id="XMLID_95_" fill="#E8B49E" fill-rule="nonzero"></path>
                    <path d="M136.775995,147.394979 C136.690924,148.068695 136.471152,148.579349 136.386082,148.763751 C136.152117,149.274362 135.705476,150.253077 134.741317,150.67153 C134.188359,150.905539 134.060711,150.699883 133.039824,150.891384 C131.777918,151.125392 131.543953,151.515493 130.757031,151.600595 C130.182785,151.657301 129.346231,151.558044 128.254423,150.756632 C127.786536,151.111238 127.176851,151.18924 126.680579,150.955189 C126.16306,150.714081 125.964534,150.224724 125.921999,150.111226 C125.617156,150.132523 125.184708,150.125424 124.688436,150.00487 C124.397743,149.933923 124.135435,149.834667 123.915663,149.742466 L123.915663,149.735367 C123.894417,149.550965 123.873128,149.366563 123.844786,149.182161 C123.795154,148.749553 123.745522,148.309846 123.688795,147.877237 C124.19926,147.203478 124.652997,146.643217 125.014568,146.210566 C125.964534,145.090043 126.425368,144.67159 126.857816,144.77089 C127.276114,144.87019 127.396623,145.402098 127.807825,145.373702 C128.148107,145.345349 128.226081,144.983645 128.608897,144.948193 C128.963371,144.919796 129.076827,145.224795 129.38167,145.281501 C130.204031,145.444649 130.79247,143.508474 131.685752,143.529771 C132.444331,143.551025 132.557744,144.962347 133.458122,145.082944 C134.344307,145.203498 134.84058,143.919828 135.627502,144.10423 C136.194652,144.238982 136.456959,145.026195 136.6271,145.522652 C136.853968,146.203467 136.861065,146.855972 136.775995,147.394979 Z" id="XMLID_64_" fill="#C48D79" fill-rule="nonzero"></path>
                    <path d="M135.584967,132.097294 C135.471554,132.771053 135.450265,134.678788 134.138728,134.799386 C133.578631,134.849036 132.912218,133.72847 131.593585,131.430634 C131.317084,130.941276 131.076066,130.49447 130.870444,130.118567 C130.629425,129.671761 130.232416,129.345552 129.750337,129.168249 C129.098073,128.934197 128.176449,128.430642 127.786536,127.409376 C127.772343,127.35977 127.658931,127.06187 127.609299,126.664713 C127.545475,126.168257 127.580957,125.515795 128.020501,125.047735 C128.665625,124.359778 129.736144,124.508728 130.211127,124.572532 C130.757031,124.650579 131.217865,124.83498 131.63612,125.090286 C132.146585,125.395241 132.58613,125.792398 133.04692,126.203752 C133.217061,126.352659 133.380148,126.508708 133.543192,126.657614 C133.543192,126.657614 133.543192,126.657614 133.550289,126.664713 C134.216702,127.288823 134.812194,127.969681 135.173765,129.005101 C135.436072,129.771061 135.570774,130.473173 135.606256,131.06183 C135.641695,131.466085 135.627502,131.813592 135.584967,132.097294 Z" id="XMLID_94_" fill="#C48D79" fill-rule="nonzero"></path>
                    <path d="M139.838656,140.430522 C139.477086,140.912781 138.867401,141.040433 138.491637,141.082984 C138.498734,140.96953 138.50583,140.856032 138.512926,140.742577 C138.597997,139.345409 138.69726,137.536929 138.02375,135.331294 C137.711812,134.324183 137.272267,132.891606 136.074143,131.522834 C135.96073,131.388083 135.826028,131.246232 135.606256,131.06183 C135.570774,130.473173 135.436072,129.771061 135.173765,129.005101 C134.812194,127.969681 134.216702,127.288822 133.550289,126.664713 C134.344307,127.154071 135.244685,127.842028 136.116678,128.771092 C137.499136,130.253319 138.137163,131.636289 138.732699,132.941256 C138.732699,132.941256 139.696858,135.040493 140.100964,139.097202 C140.136402,139.402158 140.186034,139.969518 139.838656,140.430522 Z" id="XMLID_92_" fill="#DBB1A2" fill-rule="nonzero"></path>
                    <path d="M138.491659,141.082984 C138.413685,141.090083 138.342786,141.097182 138.286079,141.097182" id="XMLID_28_" stroke="#AB3333" stroke-width="0.847902098"></path>
                    <path d="M208.018197,49.2188682 C205.061894,53.6798328 200.503362,55.4103092 198.036236,56.0556721 C197.603745,55.0202519 197.171297,54.0202402 196.731753,53.0628227 C197.121665,53.2401254 197.809368,53.4741339 198.589193,53.3252273 C200.177231,53.0415256 200.978346,51.4458009 201.382451,50.6231352 C201.687294,50.0202799 202.318268,48.7579069 202.048864,47.1267304 C201.963794,46.5877231 201.595127,44.3395365 199.744783,43.7083284 C198.11421,43.1551231 196.589954,44.2898865 196.419814,44.4175393 C196.398568,43.5735766 196.23548,42.0204028 195.271321,40.4743281 C195.051549,40.1268217 194.328408,39.0346091 192.392993,37.7722361 C189.954209,36.1906662 188.600137,36.2899661 186.671775,35.3750996 C185.21844,34.6871425 183.32556,33.3609214 181.574436,30.5453747 C180.319583,31.0914377 178.029694,32.3255011 176.441657,34.8431913 C175.995016,35.5382043 175.668885,36.2403162 175.434963,36.9211743 C174.85362,38.5523508 174.754357,40.1126236 174.669287,41.4530426 C174.548778,43.1905749 174.711822,44.5026411 174.974129,46.3962222 C174.243935,45.3395049 173.449873,43.821783 173.102496,41.89275 C172.436083,38.1835472 173.81854,35.3112515 174.279374,34.4460349 C174.187207,33.7651768 173.641303,29.3113545 176.881202,25.5241489 C180.043127,21.8149895 184.388983,21.5880368 185.090835,21.5596406 C185.799783,20.8149778 188.429953,18.2192847 192.712028,17.7228284 C197.157104,17.2051182 200.425389,19.3824011 201.928355,20.3823695 C201.956698,20.4036666 201.98504,20.4178214 202.013426,20.4391185 C206.621589,23.5383669 208.315986,28.0985882 209.195075,30.4886256 C209.329777,30.8432311 209.450286,31.1978366 209.556645,31.538244 L209.563699,31.538244 C210.520805,34.5523906 210.64841,36.9991771 210.676752,37.9920897 C210.73348,40.3537312 210.853989,44.9352496 208.018197,49.2188682 Z" id="XMLID_87_" fill="#010102" fill-rule="nonzero"></path>
                    <path d="M217.114015,25.8787546 C216.809172,27.0844219 216.242022,29.3113547 214.100985,30.6659286 C212.484562,31.6871941 210.75477,31.7084912 209.563699,31.5382442 L209.556645,31.5382442 C209.450286,31.1978368 209.329777,30.8432313 209.195075,30.4886259 C208.315986,28.0985884 206.621589,23.5383671 202.013426,20.4391187 C202.190663,19.0774026 202.757813,17.3043752 204.352946,15.9498012 C207.174546,13.5526647 210.73348,14.5739303 211.499157,14.8221367 C214.739055,15.8717984 216.114417,18.6589923 216.461794,19.3753022 C217.89384,22.2759508 217.340883,24.9922409 217.114015,25.8787546 Z" id="XMLID_74_" fill="#010102" fill-rule="nonzero"></path>
                </g>
            </g>
        </g>
    </g>
</svg>